<svg width="356" height="342" viewBox="0 0 356 342" fill="none" xmlns="http://www.w3.org/2000/svg">
<path d="M223.406 307.5C223.031 309.862 222.487 315.469 225.412 315.169C227.606 314.944 227.418 310.237 227.062 308.044C226.706 305.85 223.762 305.119 223.406 307.5Z" fill="#77C2FF"/>
<path d="M178.632 246.095C175.707 246.639 177.62 251.195 177.526 256.876C177.526 259.614 179.401 260.157 180.264 259.97C184.651 259.07 181.37 245.72 178.632 246.095Z" fill="#77C2FF"/>
<path d="M231.619 306.582C229.612 306.77 230.437 309.863 230.344 313.707C230.344 315.357 231.262 316.257 232.537 316.088C235.462 315.713 235.106 306.038 231.619 306.582Z" fill="#77C2FF"/>
<path d="M319.893 277.894C321.768 277.707 322.65 275.513 321.919 271.125C321.544 268.388 318.169 268.2 317.7 270.394C317.231 272.588 316.575 278.25 319.893 277.894Z" fill="#77C2FF"/>
<path d="M216.281 308.045C215.906 310.595 215.718 314.063 217.743 314.438C220.668 314.982 220.106 310.595 220.106 308.045C220.105 307.667 219.992 307.298 219.782 306.984C219.571 306.671 219.273 306.426 218.924 306.281C218.575 306.137 218.191 306.099 217.821 306.172C217.45 306.245 217.109 306.426 216.842 306.693C216.664 306.87 216.523 307.081 216.426 307.313C216.33 307.545 216.281 307.794 216.281 308.045Z" fill="#77C2FF"/>
<path d="M209.513 308.044C208.426 309.919 208.238 315.169 210.432 315.169C213.357 315.357 213.319 311.419 213.169 309.544C212.926 306.582 210.601 306.207 209.513 308.044Z" fill="#77C2FF"/>
<path d="M341.288 292.145C341.101 289.576 341.101 287.214 339.282 287.757C336.601 288.282 336.47 297.132 339.282 297.132C341.288 297.076 341.457 294.582 341.288 292.145Z" fill="#77C2FF"/>
<path d="M190.144 288.844C189.225 291.038 190.331 295.425 192.019 295.8C194.044 295.988 193.894 290.681 193.481 288.488C193.237 287.381 191.062 286.65 190.144 288.844Z" fill="#77C2FF"/>
<path d="M244.425 325.763C242.55 326.138 242.963 328.519 242.55 331.613C242.381 333.263 243.638 334.144 245.119 333.263C247.688 331.744 247.2 325.032 244.425 325.763Z" fill="#77C2FF"/>
<path d="M238.201 307.501C236.945 307.895 237.301 309.376 237.113 311.701C236.926 314.026 237.845 314.795 238.763 314.982C240.638 315.17 240.957 313.707 240.957 311.326C240.957 308.945 239.87 306.976 238.201 307.501Z" fill="#77C2FF"/>
<path d="M346.219 296.7C348.6 296.344 348.6 289.763 345.844 289.575C344.569 289.406 344.212 289.95 343.969 292.875C344.025 295.425 344.381 296.888 346.219 296.7Z" fill="#77C2FF"/>
<path d="M328.855 276.789C329.38 270.226 327.937 269.289 326.662 269.476C324.28 269.664 324.655 272.589 324.655 277.332C324.655 279.901 328.574 280.276 328.855 276.789Z" fill="#77C2FF"/>
<path d="M202.387 308.963C201.655 311.326 201.843 315.394 204.037 314.982C206.605 314.494 206.23 309.694 206.043 308.776C205.929 308.364 205.679 308.004 205.333 307.754C204.987 307.505 204.566 307.38 204.14 307.402C203.713 307.424 203.307 307.591 202.989 307.875C202.67 308.158 202.458 308.542 202.387 308.963Z" fill="#77C2FF"/>
<path d="M282.977 290.307C295.783 291.6 293.946 330.15 277.352 328.688C273.883 328.332 274.071 331.425 278.458 331.8C297.096 332.888 300.752 290.138 283.577 286.65C270.039 284.1 264.564 305.663 265.652 313.519C266.027 316.444 268.952 314.25 268.952 312.057C268.914 302.55 272.196 289.219 282.977 290.307Z" fill="#77C2FF"/>
<path d="M195.994 308.588C195.431 311.326 195.806 315.713 198.187 315.17C199.819 314.795 199.462 311.701 199.65 309.545C199.819 306.77 196.575 305.832 195.994 308.588Z" fill="#77C2FF"/>
<path d="M291.393 271.858C291.018 274.052 291.018 276.977 293.025 277.333C295.031 277.689 294.9 274.595 294.9 271.858C294.9 269.12 291.75 269.664 291.393 271.858Z" fill="#77C2FF"/>
<path d="M278.589 327.6C280.051 327.225 280.614 327.6 280.97 324.488C288.826 323.025 290.12 312.056 282.433 308.4C282.433 305.663 282.62 302.55 282.808 299.813C284.814 300.356 285.17 301.969 286.558 301.688C288.433 301.275 287.476 297.3 282.808 296.194C282.808 292.913 282.451 292.2 280.933 292.725C279.845 293.119 279.058 293.1 279.058 296.381C271.389 298.031 271.033 309 278.514 311.006C278.57 314.49 278.325 317.971 277.783 321.413C277.347 321.369 276.926 321.232 276.548 321.012C276.17 320.792 275.843 320.494 275.589 320.138C273.583 317.756 271.389 324.713 277.052 325.069C276.958 327.413 277.501 327.413 278.589 327.6ZM282.339 312.431C284.72 313.894 284.533 318.638 281.608 320.288C282.084 317.695 282.36 315.068 282.433 312.431H282.339ZM278.589 306.581C275.083 304.238 276.827 301.069 278.964 300C278.964 302.081 278.964 304.388 278.776 306.581H278.589Z" fill="#77C2FF"/>
<path d="M333.45 278.794C336.731 279.169 336.581 268.651 332.887 270.207C331.012 270.976 331.612 274.238 331.987 276.788C331.944 277.244 332.068 277.699 332.338 278.069C332.607 278.438 333.003 278.697 333.45 278.794Z" fill="#77C2FF"/>
<path d="M189.769 309.319C189.225 312.244 190.144 314.063 191.962 314.25C194.344 314.438 193.612 310.969 193.425 309.131C193.237 306.581 190.144 307.125 189.769 309.319Z" fill="#77C2FF"/>
<path d="M275.85 340.576C291.206 344.044 306.562 338.569 310.387 323.026C313.875 310.426 314.962 291.038 303.825 283.37C300.075 280.801 294.131 279.619 290.287 278.982C254.343 271.707 248.756 333.957 275.85 340.576ZM301.575 286.107C299.006 288.301 302.474 290.138 305.043 289.857C305.399 290.401 305.587 290.963 305.962 291.732C301.575 291.732 300.843 295.201 307.406 295.482C307.593 296.026 307.781 296.757 307.968 297.357C301.931 296.813 303.937 301.557 308.7 301.013C308.855 301.797 308.919 302.598 308.887 303.394C305.775 303.394 305.399 306.676 309.056 307.051C308.906 307.892 308.843 308.747 308.868 309.601C302.118 307.951 301.931 313.632 308.512 313.257C308.512 313.988 308.324 314.719 308.324 315.263C302.118 313.388 301.2 319.107 307.593 319.013C307.406 319.744 307.237 320.288 307.05 320.888C302.118 318.863 299.924 324.169 305.774 324.544C305.587 325.088 305.231 325.819 305.043 326.419C303.768 326.419 302.662 326.232 301.575 326.232C297.543 326.607 299.7 329.982 303.037 329.982C302.648 330.635 302.216 331.262 301.743 331.857C299.55 332.401 295.893 330.751 295.35 333.319C294.993 334.594 296.268 335.513 297.543 335.513C294.881 336.902 291.954 337.707 288.956 337.876C304.124 326.194 307.593 297.488 294.581 283.782C296.994 284.282 299.342 285.063 301.575 286.107ZM282.562 282.094C308.7 282.451 301.575 341.307 276.525 337.107C254.1 333.263 259.031 281.719 282.618 282.094H282.562Z" fill="black"/>
<path d="M346.407 278.251C349.144 277.52 348.282 269.551 345.675 269.851C343.669 270.076 344.025 272.214 344.213 276.601C344.025 278.251 344.944 278.626 346.407 278.251Z" fill="#77C2FF"/>
<path d="M339.993 278.25C342.018 278.25 342.187 276.056 342.187 273.675C342.187 271.294 341.831 269.119 339.637 268.744C337.762 268.556 338.174 270.619 338.174 272.213C338.174 275.325 337.987 278.25 339.993 278.25Z" fill="#77C2FF"/>
<path d="M298.874 270.207C296.681 270.582 297.243 273.863 297.412 276.601C297.581 279.338 301.162 279.357 301.162 275.138C301.256 270.582 300.712 269.851 298.874 270.207Z" fill="#77C2FF"/>
<path d="M197.625 287.382C195.619 287.57 195.206 291.413 195.619 293.795C196.106 296.532 199.088 296.701 199.369 295.07C199.463 292.876 200.194 286.838 197.625 287.382Z" fill="#77C2FF"/>
<path d="M304.913 270.019C302.925 270.882 302.663 279.882 306.019 278.625C307.106 278.438 307.894 276.75 307.894 273.507C307.894 270.263 306.75 269.119 304.913 270.019Z" fill="#77C2FF"/>
<path d="M244.051 308.232C242.588 308.401 242.963 310.782 242.963 312.788C242.963 314.795 244.051 315.32 245.326 314.982C247.688 314.382 246.976 307.707 244.051 308.232Z" fill="#77C2FF"/>
<path d="M212.25 226.163C210.975 223.238 206.4 217.032 205.125 219.394C204.207 221.269 207 224.7 208.969 227.438C210.6 229.463 213.45 228.956 212.25 226.163Z" fill="#77C2FF"/>
<path d="M333.6 324.675C331.593 325.032 332.137 327.225 331.968 329.607C331.8 331.988 332.325 332.888 333.975 332.888C336.975 332.888 336.581 324.338 333.6 324.675Z" fill="#77C2FF"/>
<path d="M319.726 307.856C319.587 307.528 319.367 307.24 319.087 307.021C318.807 306.801 318.475 306.656 318.123 306.6C317.771 306.544 317.411 306.579 317.076 306.701C316.741 306.823 316.443 307.028 316.21 307.297C315.897 307.657 315.715 308.112 315.694 308.587C314.438 318.956 322.201 315.862 319.726 307.856Z" fill="#77C2FF"/>
<path d="M215.719 234.02C215.137 232.145 213.525 230.363 212.437 230.926C210.562 231.826 212.794 235.295 213.525 236.757C214.819 239.326 216.75 237.151 215.719 234.02Z" fill="#77C2FF"/>
<path d="M187.763 247.557C185.888 248.644 188.682 253.182 189.413 254.85C190.876 257.963 193.988 256.725 193.163 253.95C192.338 250.294 189.77 246.263 187.763 247.557Z" fill="#77C2FF"/>
<path d="M326.85 333.075C329.944 333.075 329.775 323.7 327.019 324.132C324.657 324.488 325.144 327.057 325.144 328.519C325.388 330.338 324.825 333.075 326.85 333.075Z" fill="#77C2FF"/>
<path d="M202.012 200.569C199.274 202.594 208.424 206.063 211.706 208.444C214.631 210.45 217.181 208.069 213.899 204.694C211.331 202.219 204.074 199.294 202.012 200.569Z" fill="#77C2FF"/>
<path d="M180.262 264.732C177.712 265.088 176.625 274.107 179.531 274.969C180.994 275.513 182.231 274.238 182.287 271.669C182.381 267.282 181.912 264.582 180.262 264.732Z" fill="#77C2FF"/>
<path d="M320.457 334.35C323.007 334.538 323.195 324.488 320.457 324.488C318.263 324.488 318.807 326.363 318.807 328.688C318.451 331.425 317.888 334.181 320.457 334.35Z" fill="#77C2FF"/>
<path d="M185.569 218.307C186.675 217.22 186.3 215.757 183.019 214.295C181.556 213.376 179.569 212.832 179.269 214.107C178.969 215.382 178.875 216.151 181.144 217.576C183.412 219.001 184.65 219.226 185.569 218.307Z" fill="#77C2FF"/>
<path d="M316.069 296.702C318.807 296.533 318.807 287.758 315.694 288.302C314.607 288.489 313.819 289.408 314.044 291.227C314.269 293.045 313.876 296.702 316.069 296.702Z" fill="#77C2FF"/>
<path d="M346.576 325.951C344.944 325.37 344.569 327.058 344.569 329.064C344.757 330.695 344.569 333.301 346.219 333.451C348.769 333.676 348.976 326.814 346.576 325.951Z" fill="#77C2FF"/>
<path d="M219.375 266.457C214.257 265.914 203.475 273.414 193.8 281.645C185.382 283.276 182.288 285.845 182.644 292.895C182.832 296.551 184.294 300.02 187.407 301.482C180.263 305.682 181.913 316.839 187.032 320.232C179.719 323.982 182.644 337.107 188.494 339.245C190.369 339.976 196.538 339.976 211.163 340.145C235.275 340.52 243.694 342.02 250.538 337.782C254.757 335.214 254.569 322.239 250.182 320.232C252.919 318.582 254.569 315.845 254.569 310.539C254.569 305.232 253.294 302.495 250.369 301.164C253.294 299.889 254.025 296.42 254.025 292.764C254.025 285.995 251.457 281.795 245.25 281.514C238.575 273.32 223.407 266.739 219.375 266.457ZM247.707 335.176C243.563 337.82 222.488 336.826 211.519 336.282C198.544 335.739 188.138 338.664 187.407 329.701C186.488 318.451 195.619 322.201 208.032 321.657C220.948 321.177 233.88 321.421 246.769 322.389C251.738 322.707 251.044 332.964 247.707 335.082V335.176ZM244.969 317.814C244.782 317.814 192.282 318.47 189.769 317.457C186.3 315.995 185.757 306.489 189.6 304.482C199.088 302.101 241.857 303.376 247.519 304.107C253.013 304.201 252.282 317.551 244.969 317.72V317.814ZM250.088 292.239C250.444 303.376 238.388 299.907 220.482 299.551C193.8 299.364 186.488 302.645 186.488 290.964C186.488 283.932 194.794 284.345 211.519 284.926C245.082 286.201 249.75 281.139 250.088 292.145V292.239Z" fill="black"/>
<path d="M342.562 330.338C342.562 328.331 342.562 324.131 340.556 324.3C338.55 324.469 338.55 326.175 338.55 328.688C338.55 331.2 338.55 333.806 340.556 333.619C342.562 333.431 342.562 331.8 342.562 330.338Z" fill="#77C2FF"/>
<path d="M210.975 287.383C209.1 287.758 208.781 289.951 208.969 292.501C209.156 295.051 209.7 296.889 210.975 296.889C213.169 296.889 212.981 294.151 212.981 291.77C212.981 289.389 212.625 287.083 210.975 287.383Z" fill="#77C2FF"/>
<path d="M324.283 297.995C327.583 298.539 327.751 289.408 324.283 289.408C322.089 289.408 322.408 292.145 322.651 293.42C322.895 294.695 321.92 297.62 324.283 297.995Z" fill="#77C2FF"/>
<path d="M225.058 288.489C222.676 288.301 222.864 291.414 223.033 293.232C223.201 295.051 223.22 297.264 225.058 297.076C227.608 296.889 227.608 288.845 225.058 288.489Z" fill="#77C2FF"/>
<path d="M334.162 292.876C333.975 290.682 333.975 287.57 331.968 287.757C330.862 287.945 330.093 288.676 330.093 291.414C330.093 294.151 329.906 296.157 331.556 296.889C333.206 297.62 334.331 296.345 334.162 292.876Z" fill="#77C2FF"/>
<path d="M315.337 326.869C315.337 324.675 311.85 323.756 311.681 326.494C311.512 329.231 310.218 333.994 313.143 333.994C316.068 333.994 315.337 328.875 315.337 326.869Z" fill="#77C2FF"/>
<path d="M217.743 286.65C215.549 287.944 215.868 291.769 216.28 294.881C216.693 297.994 219.205 297.45 219.749 293.606C220.293 289.763 219.937 285.563 217.743 286.65Z" fill="black"/>
<path d="M202.388 289.763C201.844 292.144 202.2 295.988 203.85 296.344C206.775 297.263 206.963 291.601 206.044 288.113C205.5 285.919 202.744 286.838 202.388 289.763Z" fill="#77C2FF"/>
<path d="M346.575 314.982C348.956 314.438 349.144 310.426 348.45 308.588C347.756 306.751 345.15 307.501 344.981 309.863C344.812 312.226 343.837 315.526 346.575 314.982Z" fill="#77C2FF"/>
<path d="M326.118 315.356C329.586 315.356 328.48 306.206 326.118 305.85C324.093 305.663 323.38 307.725 323.924 309.863C324.468 312 323.736 315.356 326.118 315.356Z" fill="#77C2FF"/>
<path d="M244.425 295.801C246.975 294.882 246.975 287.757 244.425 288.114C242.775 288.301 242.55 289.576 242.55 291.601C242.55 293.626 242.775 296.345 244.425 295.801Z" fill="#77C2FF"/>
<path d="M236.569 292.706C236.569 298.031 240.582 298.481 240.582 293.437C240.582 291.787 240.957 288.506 238.575 288.694C236.738 288.844 236.569 290.306 236.569 292.706Z" fill="#77C2FF"/>
<path d="M335.437 311.457C335.25 308.344 335.625 306.525 333.431 306.713C330.394 306.975 330.15 314.888 333.056 315.469C334.519 315.713 335.625 314.625 335.437 311.457Z" fill="#77C2FF"/>
<path d="M341.832 312.619C342.189 310.425 341.832 306.206 339.639 306.206C337.445 306.206 337.089 311.7 338.176 314.062C339.264 316.425 341.645 315.206 341.832 312.619Z" fill="#77C2FF"/>
<path d="M231.995 287.214C230.12 287.026 230.12 289.407 230.12 291.414C230.12 293.42 230.308 295.614 231.77 295.614C233.233 295.614 234.339 294.151 234.339 291.77C234.376 288.845 233.645 287.382 231.995 287.214Z" fill="#77C2FF"/>
<path d="M315.151 274.051C315.151 270.301 314.419 268.782 312.582 268.932C309.844 269.157 310.707 274.557 311.119 276.244C311.494 278.626 315.244 278.063 315.151 274.051Z" fill="#77C2FF"/>
<path d="M345.676 259.614C348.601 259.614 348.957 251.383 345.676 251.383C343.482 251.383 344.814 255.789 344.026 258.339C343.689 259.426 344.57 259.614 345.676 259.614Z" fill="#77C2FF"/>
<path d="M195.075 227.437C196.95 226.125 195.075 223.425 193.068 221.962C189.956 219.956 187.95 221.775 189.6 223.837C190.95 225.431 192.656 229.219 195.075 227.437Z" fill="#77C2FF"/>
<path d="M340.182 259.801C342.188 259.801 342.376 256.051 342.057 253.576C341.738 251.101 341.494 250.651 339.676 250.294C338.401 250.107 337.669 251.569 338.026 254.851C338.382 258.132 338.176 259.801 340.182 259.801Z" fill="#77C2FF"/>
<path d="M195.994 208.8C193.613 207.525 189.919 209.044 192.694 211.369C203.85 220.65 205.538 213.844 195.994 208.8Z" fill="#77C2FF"/>
<path d="M331.575 258.338C331.219 261.075 334.5 260.344 334.875 259.8C336.15 257.925 335.962 250.65 333.412 250.107C330.506 249.582 331.969 255.582 331.575 258.338Z" fill="#77C2FF"/>
<path d="M296.869 176.457C301.144 177.263 293.944 168 310.576 166.407C311.494 166.407 312.582 165.488 312.451 164.532C311.888 162.169 302.569 162.9 297.638 168C295.594 170.232 294.301 175.969 296.869 176.457Z" fill="#77C2FF"/>
<path d="M196.894 269.119C196.894 266.194 195.619 259.238 192.694 261.076C191.231 261.994 192.15 266.701 192.881 269.851C193.425 272.082 196.894 272.776 196.894 269.119Z" fill="#77C2FF"/>
<path d="M321.356 252.844C321.187 250.294 318.262 249.919 317.606 251.757C315.319 259.407 322.481 264.094 321.356 252.844Z" fill="#77C2FF"/>
<path d="M127.462 326.139C127.087 323.757 124.125 323.757 123.975 325.407C123.019 336.132 128.906 335.514 127.462 326.139Z" fill="#77C2FF"/>
<path d="M326.662 259.801C329.587 260.344 328.856 253.951 328.856 252.301C328.856 250.651 325.556 249.376 324.844 251.926C324.281 253.763 323.737 259.613 326.662 259.801Z" fill="#77C2FF"/>
<path d="M119.041 333.619C121.235 333.619 121.047 328.875 121.047 325.95C121.047 323.025 117.766 322.838 117.297 326.138C116.828 329.438 117.035 333.619 119.041 333.619Z" fill="#77C2FF"/>
<path d="M132.935 333.263C135.128 333.451 135.672 329.063 135.316 326.682C134.96 324.301 131.472 323.944 131.566 326.682C131.66 329.419 130.741 333.076 132.935 333.263Z" fill="#77C2FF"/>
<path d="M316.575 167.494C318.769 169.369 322.613 167.494 319.857 165.131C317.532 162.75 313.5 164.944 316.575 167.494Z" fill="#77C2FF"/>
<path d="M312.957 260.701C316.238 261.076 314.832 255.076 314.607 253.032C314.532 252.677 314.365 252.349 314.121 252.08C313.878 251.811 313.568 251.612 313.222 251.503C312.876 251.393 312.508 251.378 312.154 251.458C311.801 251.538 311.475 251.71 311.209 251.958C310.855 252.29 310.63 252.737 310.576 253.22C310.388 255.77 309.657 260.345 312.957 260.701Z" fill="#77C2FF"/>
<path d="M305.325 259.971C307.687 260.158 307.331 256.689 306.956 253.221C306.787 251.346 303.675 250.296 303.3 253.033C302.925 255.771 302.906 259.802 305.325 259.971Z" fill="#77C2FF"/>
<path d="M233.813 212.082C236.738 214.819 238.35 210.638 236.194 208.332C233.4 205.444 229.988 204.301 228.694 205.032C226.575 206.251 231.45 209.907 233.813 212.082Z" fill="#77C2FF"/>
<path d="M139.706 332.082C142.256 332.27 142.256 327.526 141.712 325.332C141.168 323.138 137.962 323.87 137.962 325.688C137.962 327.507 137.137 332.082 139.706 332.082Z" fill="#77C2FF"/>
<path d="M181.576 194.551C181.576 196.201 184.67 196.201 191.251 198.751C193.445 199.67 194.72 198.207 194.72 197.288C194.701 193.913 181.576 191.176 181.576 194.551Z" fill="#77C2FF"/>
<path d="M242.044 262.538C241.804 262.608 241.58 262.725 241.386 262.882C241.191 263.039 241.03 263.233 240.911 263.453C240.792 263.672 240.719 263.914 240.694 264.162C240.67 264.411 240.695 264.662 240.769 264.901C241.5 268.745 240.394 272.213 242.775 272.213C246.244 272.213 244.594 262.351 242.044 262.538Z" fill="#77C2FF"/>
<path d="M193.987 185.401C190.874 185.401 190.237 188.513 192.693 188.888C195.806 189.057 200.193 191.082 201.843 190.894C207.674 190.276 203.549 185.401 193.987 185.401Z" fill="#77C2FF"/>
<path d="M92.5487 325.032C90.6737 325.407 90.1674 332.72 93.0924 332.157C94.7424 331.801 94.7424 329.063 94.7424 326.532C94.9112 325.595 94.5549 324.676 92.5487 325.032Z" fill="#77C2FF"/>
<path d="M319.726 176.456C315.816 178.919 311.2 180.013 306.601 179.569C302.57 179.269 300.563 178.106 299.832 179.738C298.182 183.488 305.682 183.488 308.607 183.488C316.651 184.031 327.357 179.288 324.507 170.138C324.33 169.682 323.982 169.313 323.538 169.11C323.093 168.906 322.586 168.885 322.126 169.05C319.163 170.419 322.651 174.075 319.726 176.456Z" fill="#77C2FF"/>
<path d="M241.124 258.507C243.505 258.882 243.318 252.489 241.312 248.27C240.037 245.72 237.299 247.182 238.03 250.295C238.762 253.951 239.118 258.339 241.124 258.507Z" fill="#77C2FF"/>
<path d="M181.182 206.607C183.357 207.376 187.032 208.801 188.138 208.257C190.013 207.339 188.138 203.457 181.557 202.632C179.176 202.276 178.238 205.576 181.182 206.607Z" fill="#77C2FF"/>
<path d="M178.255 239.137C180.768 236.718 175.705 227.268 173.324 229.274C171.449 230.737 173.868 235.293 175.705 238.781C175.831 238.994 176.003 239.176 176.209 239.313C176.415 239.45 176.649 239.538 176.894 239.572C177.139 239.606 177.388 239.584 177.624 239.509C177.86 239.433 178.075 239.306 178.255 239.137Z" fill="#77C2FF"/>
<path d="M180.095 188.157C181.97 188.663 187.032 188.701 185.945 185.963C184.295 181.932 175.182 186.769 180.095 188.157Z" fill="#77C2FF"/>
<path d="M147.563 327.601C147.001 325.407 144.638 325.595 144.451 326.495C141.507 336.339 149.701 335.945 147.563 327.601Z" fill="#77C2FF"/>
<path d="M226.875 255.582C227.063 257.776 226.688 262.351 229.613 262.895C232.538 263.438 231.619 257.607 230.532 254.851C229.444 252.094 226.688 253.332 226.875 255.582Z" fill="#77C2FF"/>
<path d="M218.831 213.001C218.287 214.107 219.937 215.926 221.944 218.12C223.95 220.314 225.225 221.87 226.519 221.42C227.812 220.97 227.419 217.67 225.412 215.382C223.406 213.095 219.75 211.182 218.831 213.001Z" fill="#77C2FF"/>
<path d="M211.707 195.094C216.282 197.101 219.939 200.457 222.864 200.213C226.614 199.913 219.376 192.544 212.626 192.169C210.432 191.982 208.97 194.007 211.707 195.094Z" fill="#77C2FF"/>
<path d="M204.075 147.206C214.857 143.194 216.319 125.456 205.538 121.987C208.281 119.269 210.067 115.732 210.625 111.91C211.183 108.089 210.483 104.189 208.632 100.8C208.632 100.8 216.675 78.4874 199.688 55.1061C209.925 76.8561 199.5 121.987 186.563 132.769C186.488 132.769 199.088 135.206 204.075 147.206Z" fill="#77C2FF"/>
<path d="M224.87 325.032C222.864 325.032 223.595 327.414 223.407 330.151C223.22 332.889 223.595 334.539 225.414 334.182C227.232 333.826 227.607 331.614 227.42 328.332C227.607 325.764 226.689 325.032 224.87 325.032Z" fill="#77C2FF"/>
<path d="M204.076 324.864C201.882 325.408 202.051 327.058 202.051 329.251C202.051 331.445 202.051 333.264 204.076 333.62C206.438 333.995 206.082 331.989 206.27 329.87C206.588 326.139 205.501 324.583 204.076 324.864Z" fill="#77C2FF"/>
<path d="M197.27 325.764C195.395 326.495 195.807 328.145 195.807 329.795C195.807 332.72 197.082 333.076 197.682 333.076C201.563 333.076 200.045 324.732 197.27 325.764Z" fill="#77C2FF"/>
<path d="M192.15 325.408C189.412 325.22 189.412 331.802 191.793 332.533C194.568 333.377 193.837 325.82 192.15 325.408Z" fill="#77C2FF"/>
<path d="M211.574 325.031C208.668 325.275 208.649 333.075 211.387 333.45C214.124 333.825 213.58 330.525 213.412 328.519C213.243 326.512 213.449 324.881 211.574 325.031Z" fill="#77C2FF"/>
<path d="M256.576 277.707C255.301 278.063 255.976 280.819 256.22 283.557C256.501 287.025 256.388 289.763 258.582 289.575C261.751 289.294 260.476 276.507 256.576 277.707Z" fill="#77C2FF"/>
<path d="M216.45 326.138C215.494 328.669 216.094 333.263 218.475 333.263C220.856 333.263 220.519 327.638 220.106 325.763C219.787 324.3 217.2 324.3 216.45 326.138Z" fill="#77C2FF"/>
<path d="M236.382 327.226C235.651 329.607 236.57 333.619 238.576 333.263C240.957 332.888 240.451 328.144 239.851 326.494C239.251 324.844 236.739 325.951 236.382 327.226Z" fill="#77C2FF"/>
<path d="M254.475 249.189C253.744 244.633 250.275 237.489 248.25 238.22C245.513 239.326 249.375 244.108 250.819 250.464C251.644 254.158 255.019 252.489 254.475 249.189Z" fill="#77C2FF"/>
<path d="M231.807 326.138C229.801 326.87 230.157 330.526 230.345 332.345C230.532 333.451 231.076 334.726 232.538 334.22C234.432 333.788 234.976 324.938 231.807 326.138Z" fill="#77C2FF"/>
<path d="M299.25 260.532C301.444 261.263 301.444 256.501 300.9 253.763C300.356 251.026 297.412 252.113 297.15 254.851C296.887 257.588 297.244 259.969 299.25 260.532Z" fill="#77C2FF"/>
<path d="M99.076 325.032C95.7573 324.676 96.0198 333.62 98.8885 333.263C100.351 333.076 100.539 331.613 100.351 329.063C100.164 326.513 100.595 325.22 99.076 325.032Z" fill="#77C2FF"/>
<path d="M78.112 119.439C73.3495 113.401 69.1495 101.533 72.6182 93.8452C74.9995 88.7264 77.9245 91.9702 84.6933 91.8389C91.462 91.7077 96.562 83.7952 92.0057 73.5577C105.337 70.0889 99.5058 45.0577 122.156 41.9452C86.887 41.2139 69.337 49.9889 66.9557 84.7139C64.2182 92.0264 50.6995 88.4639 51.5995 106.633C51.787 109.014 49.4057 111.395 47.2307 110.664C34.4245 107.195 23.6432 114.414 30.037 131.683C50.137 114.32 60.7495 120.526 78.112 119.439Z" fill="#77C2FF"/>
<path d="M110.325 325.951C109.969 328.519 109.594 333.076 111.975 333.451C114.357 333.826 113.982 328.876 113.85 326.326C113.719 323.776 110.644 323.213 110.325 325.951Z" fill="#77C2FF"/>
<path d="M104.981 324.582C102.412 325.313 102.6 333.169 105.337 333.357C108.075 333.544 107.344 328.238 106.987 326.775C106.987 325.219 106.444 324.132 104.981 324.582Z" fill="#77C2FF"/>
<path d="M92.7354 318.45C82.4979 318.825 81.7667 336.187 88.9854 339.075C90.8604 339.806 93.3729 339.618 112.367 339.806C149.285 339.993 154.217 342.543 154.592 328.837C154.948 322.443 153.317 319.331 146.548 318.412C141.804 313.125 132.654 305.081 125.173 302.7C116.323 305.718 113.023 301.443 92.7354 318.45ZM147.917 322.293C153.223 323.568 152.492 335.643 145.535 336C142.61 336.187 93.5979 336.562 91.2729 335.643C87.9729 334.35 87.0542 324.131 91.0854 322.668C99.8604 319.368 146.829 322.106 147.917 322.293Z" fill="black"/>
<path d="M293.027 259.425C295.595 259.8 294.902 254.681 294.902 252.488C294.95 251.991 294.799 251.495 294.483 251.108C294.167 250.722 293.711 250.476 293.214 250.425C292.717 250.376 292.221 250.526 291.834 250.842C291.447 251.159 291.202 251.616 291.152 252.113C290.852 253.95 290.477 259.069 293.027 259.425Z" fill="#77C2FF"/>
<path d="M288.281 264.901C284.531 266.926 283.744 273.451 286.087 275.139C286.205 275.229 286.342 275.292 286.487 275.325C286.632 275.357 286.782 275.358 286.927 275.326C287.073 275.295 287.209 275.232 287.328 275.143C287.447 275.054 287.545 274.94 287.615 274.809C287.71 274.634 287.752 274.437 287.737 274.239C287.925 271.126 289.012 268.201 290.662 267.826C299.25 265.633 319.162 266.739 329.212 267.283C341.287 267.826 351.712 263.083 351.881 274.595C351.975 280.445 350.25 280.858 348.225 281.176C340.575 282.414 316.969 281.551 313.144 281.908C309.319 282.264 309.656 285.376 313.144 285.564C349.031 286.408 350.962 283.689 350.962 293.064C350.719 301.37 348.169 299.833 328.669 300.358C315.694 300.545 315.544 300.733 315.15 301.82C314.775 303.47 317.7 304.201 321.356 304.014C327.75 303.658 344.212 303.283 348.412 304.745C351.881 305.851 352.162 315.17 348.6 317.72C346.725 319.014 334.894 318.451 323.925 318.639C317.531 318.639 313.144 318.639 313.312 321.02C313.481 323.401 316.237 322.483 319.725 322.67C325.556 322.839 344.569 321.939 348.769 323.214C352.256 324.301 352.8 334.183 348.956 336.189C343.856 338.739 318.6 336.095 307.706 337.276C303.956 337.651 302.587 340.576 306.431 340.576C318.675 340.764 342.619 342.958 350.662 339.301C357.975 335.814 357.244 323.026 351.75 319.914C357.056 315.901 356.325 305.12 351.581 301.651C355.95 299.626 356.325 285.564 351.581 283.726C357.6 282.095 356.869 266.551 351.581 264.976C357.6 260.964 355.95 245.439 346.462 245.251C339.506 237.751 324.337 227.608 319.406 227.701C312.825 227.833 302.775 235.014 293.456 245.439C283.537 245.72 281.887 259.614 288.281 264.901ZM291.206 249.376C299.25 247.37 318.075 248.101 327.937 248.458C340.181 249.001 351.337 246.264 351.337 256.145C351.337 265.351 345.712 263.008 309.112 263.458C296.137 263.626 288.487 266.551 288.487 255.414C288.656 252.489 289.744 249.733 291.206 249.376Z" fill="black"/>
<path d="M254.289 271.857C254.375 272.292 254.614 272.682 254.962 272.958C255.31 273.233 255.744 273.376 256.188 273.361C256.482 273.352 256.769 273.274 257.026 273.132C260.139 271.257 257.026 259.801 253.932 259.801C250.445 259.801 253.557 267.282 254.289 271.857Z" fill="#77C2FF"/>
<path d="M165.468 192.713C163.275 194.007 163.443 202.35 166.012 201.488C168.918 200.513 167.85 191.625 165.468 192.713Z" fill="black"/>
<path d="M245.325 217.033C231.619 218.908 217.369 229.633 217.2 245.533C214.106 237.32 182.119 221.964 187.594 236.589C194.831 255.733 208.5 254.177 218.119 258.695C219.037 265.652 215.381 272.045 219.394 272.402C223.406 272.758 222.506 259.277 221.419 254.12C231.469 246.264 246.994 238.783 249.544 223.97C250.087 220.502 249.712 216.302 245.325 217.033ZM190.95 235.295C188.044 230.458 215.756 240.058 217.631 254.045C208.35 248.683 200.775 254.195 190.95 235.295ZM245.888 223.333C243.131 235.952 230.531 242.702 221.025 249.583C218.475 236.608 231.619 222.339 244.969 220.145C245.887 219.77 246.431 220.502 245.888 223.333Z" fill="black"/>
<path d="M168.206 216.844C171.112 215.869 169.124 206.794 166.931 208.069C164.737 209.344 165.637 217.706 168.206 216.844Z" fill="black"/>
<path d="M344.946 188.701C336.527 189.976 325.015 194.551 321.002 202.408C320.434 200.547 319.765 198.719 318.996 196.933C320.471 196.037 321.718 194.81 322.635 193.348C323.553 191.887 324.118 190.232 324.284 188.514C334.521 190.708 342.021 178.839 333.79 171.339C339.096 164.026 335.252 153.601 325.202 155.626C324.096 148.858 313.952 145.576 308.927 150.508C301.634 143.383 287.196 150.508 291.94 161.645C279.321 160.914 278.046 176.458 287.365 180.658C283.165 191.439 294.49 198.395 303.827 193.445C305.015 195.371 306.797 196.858 308.904 197.683C311.011 198.508 313.329 198.627 315.509 198.02C317.63 201.995 318.524 206.511 318.077 210.995C310.39 201.133 299.327 203.87 288.284 201.62C286.409 201.245 285.546 201.808 285.546 203.495C286.465 218.851 302.421 225.433 316.24 219.958C315.884 226.539 317.534 238.408 322.09 237.489C322.335 237.467 322.57 237.382 322.773 237.244C322.976 237.106 323.141 236.918 323.252 236.699C323.362 236.479 323.415 236.235 323.406 235.99C323.396 235.744 323.324 235.505 323.196 235.295C320.271 229.67 319.165 219.226 321.321 213.189C337.221 213.189 346.915 204.058 346.915 190.52C346.938 190.262 346.902 190.002 346.809 189.761C346.716 189.519 346.568 189.302 346.378 189.126C346.188 188.95 345.96 188.821 345.711 188.747C345.463 188.673 345.201 188.658 344.946 188.701ZM288.827 204.958C299.44 207.526 310.577 204.058 316.615 216.208C302.084 222.095 290.327 214.258 288.827 204.958ZM313.877 194.908C312.33 195.226 310.72 194.952 309.366 194.139C308.012 193.327 307.012 192.035 306.565 190.52C305.459 185.776 298.709 195.095 292.127 189.62C286.821 185.233 294.846 178.576 290.121 177.733C282.621 176.42 282.434 163.558 293.402 165.676C296.327 166.22 297.059 163.483 296.327 162.564C292.315 156.939 295.596 151.314 301.952 151.314C302.995 151.394 304.007 151.696 304.923 152.201C305.838 152.705 306.635 153.4 307.259 154.239C309.865 156.939 312.002 150.601 317.665 152.045C323.665 153.658 320.346 160.483 324.246 159.358C326.815 158.626 329.871 158.458 331.371 160.82C335.44 166.445 326.177 170.083 329.909 173.064C337.765 178.164 331.034 187.839 322.784 184.408C322.482 184.227 322.124 184.163 321.778 184.229C321.432 184.294 321.123 184.485 320.909 184.764C320.327 186.508 321.021 193.951 313.877 194.908ZM343.877 192.358C343.146 196.37 339.49 209.233 322.315 209.533C323.965 197.664 334.015 195.639 343.877 192.17V192.358Z" fill="black"/>
<path d="M153.767 80.3255C157.798 77.588 160.348 77.7567 161.998 78.1317C165.748 79.0505 164.923 84.1692 168.205 83.2505C172.405 82.1442 168.748 74.288 162.898 73.013C160.626 72.6493 158.3 72.8283 156.11 73.5354C153.92 74.2426 151.929 75.4578 150.298 77.0817C148.292 79.4067 151.386 81.9755 153.767 80.3255Z" fill="black"/>
<path d="M124.706 253.764C121.237 254.851 114.299 268.389 109.181 285.751C107.906 289.951 112.762 288.095 113.737 285.189C116.559 276.091 120.487 267.376 125.437 259.239C125.999 258.508 126.899 259.07 127.462 259.801C130.685 264.266 133.671 268.897 136.406 273.676C137.324 275.551 140.981 274.97 140.437 273.32C137.512 265.464 129.281 252.489 124.706 253.764Z" fill="black"/>
<path d="M162.002 87.8076C157.478 86.4004 152.592 86.7279 148.296 88.7264C145.727 90.1889 147.189 94.0326 149.927 92.9264C152.331 92.045 154.93 91.8359 157.444 92.3215C159.958 92.8072 162.293 93.9692 164.196 95.6826C164.484 95.8857 164.815 96.0194 165.164 96.073C165.513 96.1265 165.869 96.0987 166.205 95.9915C166.541 95.8843 166.848 95.7008 167.101 95.4553C167.354 95.2097 167.547 94.9089 167.664 94.5764C168.208 92.1951 165.864 89.0264 162.002 87.8076Z" fill="black"/>
<path d="M180.096 320.101C172.596 320.101 165.846 320.007 162.171 319.913C159.471 319.913 158.646 317.082 157.802 314.063C166.558 310.313 172.052 308.588 177.527 306.563C181.183 305.101 178.802 302.176 175.164 303.094C169.671 304.557 160.539 308.213 156.414 309.676C151.464 292.801 148.914 291.582 147.039 292.669C145.164 293.757 148.333 300.338 148.689 301.632C154.183 316.801 154.914 324.282 160.577 324.282C163.671 324.282 171.171 324.469 177.208 324.469C182.458 324.582 183.021 320.101 180.096 320.101Z" fill="black"/>
<path d="M169.48 101.457C165.824 103.82 159.43 104.364 157.968 99.0761C157.891 98.5271 157.644 98.016 157.261 97.6151C156.878 97.2143 156.379 96.944 155.834 96.8424C155.289 96.7408 154.725 96.8131 154.224 97.0491C153.722 97.2851 153.307 97.6728 153.038 98.1574C147.919 104.195 139.201 100.37 138.413 95.2324C137.982 92.3261 134.213 93.3574 134.944 97.8011C136.407 105.657 148.463 108.395 154.501 104.007C158.701 110.401 167.626 108.582 171.132 105.47C174.244 103.164 172.969 99.3386 169.482 101.457H169.48Z" fill="black"/>
<path d="M89.9832 305.12C69.5832 298.163 41.5519 291.226 28.1082 289.763C26.8332 278.251 33.5832 249.376 34.3144 236.213C53.0644 246.057 87.8832 276.901 97.9144 245.363C113.814 235.482 145.802 216.845 150.002 215.757C154.033 219.226 161.889 227.27 168.096 226.895C175.783 226.351 176.871 213.563 175.971 201.132C174.096 173.682 163.296 166.37 149.458 192.357C143.034 191.943 136.666 190.9 130.446 189.245C131.716 188.344 132.667 187.064 133.163 185.588C133.658 184.112 133.672 182.516 133.202 181.032C131.177 175.538 122.421 172.07 121.689 175.538C121.651 175.839 121.672 176.144 121.752 176.437C121.832 176.729 121.97 177.003 122.156 177.242C122.343 177.481 122.575 177.68 122.839 177.829C123.103 177.977 123.395 178.072 123.696 178.107C137.402 182.663 123.508 192.713 110.571 180.845C110.538 178.374 111.082 175.931 112.159 173.707C113.237 171.484 114.818 169.543 116.777 168.038C117.883 167.326 118.427 165.488 117.339 164.945C113.589 162.751 107.289 167.87 106.371 177.001C97.7832 169.876 96.8644 159.638 105.996 155.063C106.237 154.946 106.451 154.777 106.622 154.57C106.793 154.363 106.917 154.121 106.986 153.861C107.056 153.602 107.068 153.33 107.024 153.065C106.979 152.8 106.878 152.548 106.727 152.326C104.589 149.738 98.6832 152.326 96.6769 158.551C95.2332 144.845 110.327 139.651 107.646 136.426C105.639 133.688 100.146 139.351 97.9519 141.545C93.5832 137.795 94.2019 134.232 97.9519 131.87C105.452 127.332 117.489 134.963 119.889 134.963C133.596 136.613 139.446 140.457 147.489 154.163C150.227 158.72 153.527 154.707 151.689 151.051C149.139 146.307 143.477 139.351 142.183 138.995C172.521 135.507 191.177 157.988 191.177 179.738C191.177 182.851 195.377 183.038 195.377 178.107C195.533 169.772 193.222 161.578 188.735 154.552C184.248 147.527 177.785 141.984 170.158 138.62C174.898 138.084 179.556 136.982 184.033 135.338C201.227 136.238 213.058 164.645 201.771 180.657C201.002 181.745 201.227 183.188 202.314 183.395C207.639 184.388 214.558 165.863 208.896 153.788C222.602 150.32 226.802 129.845 216.939 119.607C223.708 112.313 220.952 101.157 213.189 94.9508C213.189 92.9258 213.377 91.107 213.377 89.1008C239.458 78.9758 252.752 17.8508 160.202 14.1008C145.389 -10.2742 82.5207 -0.692952 73.9519 24.882C27.9019 40.0508 25.8769 67.2945 52.5582 82.2758C44.8894 85.5571 41.3082 92.8695 41.3082 101.476C23.2144 100.182 12.0769 120.226 23.7582 136.013C18.4707 144.413 18.6394 154.107 24.1332 163.426C-5.11682 202.801 -12.9731 205.82 30.1707 233.045C29.9832 246.77 21.7519 278.738 24.1332 291.357C18.0957 293.907 11.3457 299.026 8.42068 304.332C5.49568 309.638 7.68943 316.032 16.2769 316.932C22.1269 317.495 74.2144 317.851 83.3457 317.851C87.9207 317.851 87.5457 313.838 81.4707 313.838C57.0957 313.838 19.3332 312.732 16.7832 312.376C4.78318 310.651 17.3269 297.113 27.7519 294.095C40.8769 295.37 71.6082 301.595 91.3519 309.095C93.8269 310.238 95.0832 306.845 89.9832 305.12ZM166.202 180.657C167.015 181.532 167.584 182.606 167.852 183.77C165.471 185.12 166.764 194.757 169.858 190.895C170.498 193.721 170.924 196.592 171.133 199.482C167.871 198.751 168.339 210.863 171.677 207.526C171.677 210.638 172.052 217.576 169.802 220.651C169.071 221.926 167.421 221.738 166.502 220.463C159.583 210.526 163.352 180.657 166.202 180.657ZM119.964 190.351C127.86 193.285 136.083 195.25 144.452 196.201C138.246 196.557 123.827 195.826 118.689 194.551C119.233 192.901 119.589 191.626 119.964 190.351ZM139.708 200.832C153.414 201.563 152.496 193.52 159.621 185.12C157.433 196.471 157.934 208.177 161.083 219.301C157.239 216.92 153.583 210.338 149.383 211.07C144.808 211.801 115.933 228.807 100.952 237.938C105.883 226.051 113.927 207.601 117.396 198.826C122.346 200.026 132.021 200.401 139.708 200.832ZM95.4769 144.582C88.7082 155.551 93.0957 169.257 101.683 178.032C93.8269 182.232 77.9269 186.976 58.3707 171.62C73.1832 165.601 86.1582 153.526 80.6644 135.263C83.9959 134.695 87.4039 134.753 90.7144 135.432C90.7316 137.225 91.172 138.988 91.9996 140.578C92.8272 142.168 94.0186 143.54 95.4769 144.582ZM41.9269 159.207C43.6989 162.9 46.04 166.291 48.8644 169.257C28.5769 174.188 17.2519 148.782 28.9519 135.995C38.4582 123.92 58.1832 118.445 68.7957 121.726C74.8144 123.601 89.0832 120.995 85.4269 130.332C83.1475 130.255 80.8686 130.501 78.6582 131.063C77.5707 129.188 76.1082 125.438 73.5394 127.032C73.2929 127.195 73.0822 127.407 72.9202 127.655C72.7583 127.902 72.6485 128.18 72.5976 128.471C72.5467 128.763 72.5558 129.061 72.6242 129.349C72.6927 129.637 72.8191 129.907 72.9957 130.145C76.2116 134.23 77.7849 139.37 77.4068 144.556C77.0287 149.742 74.7265 154.6 70.9519 158.176C67.4952 154.879 64.4254 151.199 61.8019 147.207C61.4229 146.817 60.9184 146.574 60.3773 146.52C59.8363 146.466 59.2936 146.605 58.8451 146.912C58.3965 147.219 58.0709 147.675 57.9258 148.199C57.7807 148.723 57.8253 149.282 58.0519 149.776C60.7578 153.968 63.9417 157.831 67.5394 161.288C63.5946 164.454 59.0646 166.812 54.2082 168.226C50.8502 165.19 48.1178 161.528 46.1644 157.445C45.9208 156.883 45.4639 156.441 44.8942 156.215C44.3246 155.99 43.6889 156.001 43.1269 156.245C42.565 156.488 42.1229 156.945 41.8979 157.515C41.6728 158.084 41.6833 158.72 41.9269 159.282V159.207ZM184.839 129.207C177.714 133.595 157.427 136.145 132.208 132.507C120.152 131.588 100.221 118.426 91.6332 130.857C91.1618 130.703 90.6656 130.64 90.1707 130.67C91.2769 124.276 89.4394 120.432 80.6644 118.238C75.7332 115.145 70.0707 99.6008 75.0394 93.8633C75.9582 92.757 77.0457 92.9445 79.4269 93.3195C89.4769 97.0695 98.7957 83.2695 94.9519 74.8508C100.577 72.3008 102.452 67.5383 104.833 59.4945C113.608 30.9945 182.139 44.8883 192.189 54.0196C189.808 53.6446 180.939 52.1446 181.764 55.8946C182.589 59.6446 188.664 55.8945 196.933 60.4695C197.308 61.3883 197.852 62.4758 198.227 63.3946C177.827 54.5821 165.339 74.7196 175.952 87.4508C179.964 92.382 192.827 94.5758 200.983 94.9508C198.733 109.745 191.608 125.832 184.839 129.301V129.207ZM200.008 68.7196C197.271 72.1883 189.414 82.2383 185.571 87.1696C180.264 84.8071 176.196 82.5758 177.527 73.8383C179.346 62.9258 195.077 65.7008 200.008 68.8133V68.7196ZM216.639 108.563C217.014 114.995 210.302 117.395 213.527 121.163C219.939 130.538 219.939 145.295 207.902 148.951C206.325 144.89 203.871 141.228 200.714 138.226C197.556 135.224 193.775 132.958 189.639 131.588C203.702 119.888 211.558 82.9696 203.158 62.8695C210.096 69.9945 210.489 84.0758 209.552 94.482C209.472 95.2847 209.603 96.0943 209.932 96.8309C210.261 97.5675 210.776 98.2055 211.427 98.6821C213.018 99.8184 214.319 101.314 215.225 103.047C216.131 104.78 216.615 106.702 216.639 108.657V108.563ZM154.314 13.4258C129.263 13.3543 104.313 16.6141 80.1207 23.1195C96.8644 -1.06795 141.846 0.957047 154.314 13.4258ZM40.0894 59.8508C38.4582 17.2695 200.383 1.18205 222.489 41.1008C234.002 59.382 226.689 75.0946 213.358 83.8695C213.902 43.2945 168.021 37.4445 133.127 37.4445C82.3144 37.632 61.6707 59.007 56.7207 79.482C47.9457 75.3945 40.6519 70.632 40.0894 59.8508ZM25.8394 113.401C29.1394 107.776 34.9707 105.732 43.0144 106.276C49.5957 106.82 40.0894 87.0758 59.4769 85.257C63.6769 71.9071 69.5269 49.0695 113.383 43.2195C98.0269 51.2633 102.133 65.5508 92.1769 71.5508C91.5481 71.9172 91.0727 72.4984 90.8384 73.1875C90.6041 73.8765 90.6267 74.627 90.9019 75.3008C92.1769 79.3133 92.5519 84.6758 87.1519 88.2758C82.0332 91.7446 76.7457 85.7071 71.8144 91.0133C65.9644 97.5946 69.4332 111.113 74.3644 118.426C60.1144 114.226 39.2832 117.695 26.4769 132.507C24.5172 129.732 23.4125 126.445 23.2992 123.049C23.186 119.654 24.069 116.3 25.8394 113.401ZM15.2457 218.12C-7.42307 202.951 11.9457 187.426 26.7582 167.326C32.3832 173.888 44.1207 175.351 53.0082 173.157C69.2832 186.695 87.3769 191.251 104.927 181.388C108.078 184.471 111.722 187.006 115.708 188.888C112.052 202.407 97.2394 234.207 92.1207 246.826C87.0019 259.445 71.6644 254.326 54.4707 244.07C37.8957 234.207 25.9519 225.432 15.2457 218.12Z" fill="black"/>
<path d="M146.102 276.601C132.752 276.788 121.727 285.019 119.421 294.151C108.639 287.213 81.2082 291.769 93.2832 300.001C110.158 313.482 142.577 306.001 148.296 278.982C148.442 278.509 148.395 277.998 148.164 277.56C147.934 277.122 147.54 276.793 147.068 276.646C146.755 276.546 146.422 276.531 146.102 276.601ZM118.127 302.551C110.428 303.67 102.583 301.988 96.0207 297.807C94.1457 296.701 94.3707 295.932 95.1019 295.613C100.033 294.151 110.646 292.688 118.689 297.807C118.328 299.363 118.14 300.955 118.127 302.551ZM144.377 280.801C141.639 287.569 135.002 298.894 121.708 302.007C122.271 290.494 129.583 282.826 142.727 280.257C144.639 279.713 144.639 280.444 144.452 280.801H144.377Z" fill="black"/>
<path d="M120.879 51.4509C127.959 49.8476 135.338 50.1648 142.254 52.3697C142.542 52.4718 142.847 52.5149 143.152 52.4962C143.457 52.4775 143.755 52.3975 144.028 52.2609C144.301 52.1244 144.544 51.9341 144.741 51.7015C144.939 51.4688 145.088 51.1987 145.179 50.9072C146.454 45.0572 127.517 45.4134 119.585 47.9822C115.948 49.1447 116.66 52.1822 120.879 51.4509Z" fill="black"/>
<path d="M161.998 113.402C157.423 117.152 148.461 115.277 145.723 111.208C144.992 110.12 143.361 109.745 142.629 110.664C140.604 113.589 144.261 118.333 153.223 119.795C162.186 121.258 166.929 116.702 165.279 113.589C164.828 113.204 164.263 112.977 163.67 112.943C163.078 112.91 162.49 113.071 161.998 113.402Z" fill="black"/>
<path d="M148.838 70.089C150.713 58.839 142.444 53.814 127.819 54.189C114.694 54.5453 106.613 58.0328 105.319 67.314C103.313 81.7515 113.176 85.9515 126.338 86.064C138.788 86.3453 146.832 82.1453 148.838 70.089ZM119.044 81.0578C108.076 81.414 106.444 65.3453 114.301 60.9578C121.801 56.739 135.132 57.8453 140.794 60.5828C133.106 66.9266 125.84 73.7662 119.044 81.0578Z" fill="black"/>
</svg>
