<svg width="479" height="474" viewBox="0 0 479 474" fill="none" xmlns="http://www.w3.org/2000/svg">
<path d="M343.758 464.54C344.201 467.977 366.397 461.226 368.434 458.794C371.259 455.455 370.621 437.261 366.15 439.347C355.619 444.259 344.912 444.455 342.901 447.159C341.893 448.505 342.311 453.245 343.758 464.54Z" fill="#77C2FF"/>
<path d="M162.854 89.4447C158.263 87.3582 148.047 93.7287 147.23 97.9145C153.792 101.131 160.118 104.808 166.161 108.917C175.328 104.401 170.417 92.9072 162.854 89.4447Z" fill="#77C2FF"/>
<path d="M198.014 268.78C200.322 285.374 205.846 300.476 215.2 295.444C220.112 292.79 209.603 281.128 219.522 280.097C223.378 279.704 225.956 283.756 225.709 287.536C225.205 295.348 239.569 299.96 241.643 289.255C242.945 282.451 253.991 285.727 254.925 296.278C255.762 305.657 270.174 310.272 270.323 298.879C270.65 273.051 196.124 255.199 198.014 268.78Z" fill="#77C2FF"/>
<path d="M117.012 102.111C105.793 109.084 106.98 125.499 123.176 125.094C129.779 124.927 133.415 111.37 132.284 108.497C131.152 105.624 121.778 100.395 117.012 102.111Z" fill="#77C2FF"/>
<path d="M359.57 120.97C359.548 129.686 376.119 129.49 377.714 122.199C379.309 114.909 359.605 112.132 359.57 120.97Z" fill="#77C2FF"/>
<path d="M221.19 95.5804C223.768 94.5976 227.621 87.1081 225.29 84.4067C223.35 82.174 215.641 78.0487 212.889 79.3516C210.138 80.6544 207.93 88.9276 208.84 90.4975C210.924 94.0356 217.98 96.8101 221.19 95.5804Z" fill="#77C2FF"/>
<path d="M260.774 398.123C269.932 410.766 358.689 417.814 359.868 392.579C358.714 371.335 265.267 375.092 260.774 398.123Z" fill="#77C2FF"/>
<path d="M304.622 120.994C306.464 111.67 287.534 113.434 288.419 121.246C289.104 127.476 303.002 129.194 304.622 120.994Z" fill="#77C2FF"/>
<path d="M285.448 432.252C293.229 432.056 291.216 419.95 297.77 420.318C304.325 420.686 304.892 446.022 313.019 443.668C321.146 441.314 321.098 420.932 326.844 420.318C333.668 419.582 334.013 428.47 339.144 428.298C344.889 428.102 349.652 418.133 352.402 404.507C312.895 416.931 242.159 408.852 254.925 382.628C248.789 389.039 241.522 439.936 259.444 444.699C271.746 444.013 265.996 422.775 272.974 422.134C279.951 421.494 277.394 432.446 285.448 432.252Z" fill="#77C2FF"/>
<path d="M85.8812 280.318C82.9101 276.286 79.7425 273.859 76.4035 273.885C67.7624 273.983 53.6428 282.306 51.8259 289.892C50.4021 295.811 55.7294 310.001 64.5191 309.732C79.2032 309.313 98.2821 297.258 85.8812 280.318ZM57.7429 291.293C58.2821 288.959 62.1629 285.595 66.6813 283.141C69.3667 289.173 72.5787 294.957 76.28 300.425C72.6306 302.34 68.6115 303.445 64.4965 303.666C59.7261 303.58 57.1305 293.354 57.7429 291.293Z" fill="black"/>
<path d="M133.294 272.608C140.977 272.414 154.9 267.281 158.385 259.252C161.21 252.327 153.574 236.663 145.178 236.738C136.534 236.834 122.344 245.135 120.6 252.745C119.126 258.637 124.519 272.83 133.294 272.608ZM135.478 245.969C138.165 252.001 141.378 257.785 145.08 263.254C134.397 269.662 126.051 265.391 126.542 254.121C127.082 251.788 130.96 248.423 135.478 245.969Z" fill="black"/>
<path d="M63.3904 251.198C53.9605 257.41 47.2624 261.609 52.4888 265.31C55.533 267.473 56.8585 261.48 66.2884 256.571C66.9551 256.163 67.4402 255.515 67.6438 254.76C67.8473 254.005 67.7539 253.201 67.3828 252.513C67.0116 251.825 66.3909 251.305 65.6483 251.061C64.9057 250.816 64.0977 250.865 63.3904 251.198Z" fill="black"/>
<path d="M246.309 294.29C246.175 299.849 244.491 305.26 241.448 309.914C241.008 310.569 240.84 311.37 240.979 312.147C241.119 312.924 241.554 313.617 242.194 314.079C242.835 314.541 243.629 314.736 244.411 314.623C245.192 314.51 245.899 314.098 246.382 313.474C248.739 309.442 257.407 293.783 249.573 291.45C247.97 290.998 246.43 292.619 246.309 294.29Z" fill="black"/>
<path d="M261.326 280.297C244.288 269.965 214.161 256.946 201.246 262.299C186.27 268.511 199.775 280.395 197.121 294.071C197.032 294.471 197.03 294.886 197.115 295.286C197.2 295.687 197.371 296.065 197.616 296.394C197.861 296.722 198.174 296.994 198.533 297.191C198.893 297.388 199.29 297.505 199.699 297.534C208.295 296.992 201.64 278.356 201.37 275.95C200.216 271.482 199.185 268.511 203.285 268.044C221.379 266.028 252.425 282.041 257.914 285.795C264.163 290.68 268.31 297.769 269.506 305.61C269.604 306.593 269.778 307.5 268.891 307.893C263.382 310.436 258.832 314.675 255.905 319.989C255.567 320.705 255.521 321.524 255.776 322.274C256.031 323.023 256.568 323.644 257.273 324.004C257.978 324.364 258.795 324.436 259.552 324.204C260.309 323.972 260.946 323.455 261.328 322.761C262.559 320.329 264.286 318.181 266.396 316.456C268.507 314.73 270.955 313.465 273.583 312.742C279.407 311.426 272.948 288.716 261.326 280.297Z" fill="black"/>
<path d="M380.172 328.933C321.932 305.749 288.245 357.391 283.152 366.009C269.083 369.298 258.229 374.847 252.607 380.666C245.634 387.886 244.997 388.548 245.019 426.064C245.019 442.245 244.112 456.51 247.696 456.976C253.787 457.763 248.285 409.908 253.073 396.822C261.594 413.665 356.245 420.686 376.208 393.949C376.354 395.864 376.501 397.827 376.624 399.866C370.437 404.949 365.536 408.141 365.402 408.24C364.85 408.495 364.405 408.938 364.147 409.49C363.889 410.041 363.835 410.667 363.994 411.255C364.152 411.843 364.514 412.355 365.014 412.702C365.515 413.05 366.122 413.209 366.728 413.151C369.724 412.511 370.904 411.725 377.09 407.355C378.219 451.354 378.685 456.732 382.1 456.533C385.094 457.002 383.181 449.729 382.909 402.605C410.175 381.991 422.606 345.817 380.172 328.933ZM372.879 386.265C369.787 393.508 362.273 399.326 346.386 403.033C313.78 410.669 244.959 402.665 257.506 384.325C262.71 376.714 282.958 369.986 307.054 368.701C352.377 366.327 376.906 376.909 372.879 386.265ZM382.382 394.858C380.711 358.371 318.626 360.385 291.41 364.339C307.909 337.375 344.789 319.848 377.738 334.532C412.655 350.121 405.362 375.412 382.382 394.858Z" fill="black"/>
<path d="M109.233 232.242C116.402 227.651 125.265 229.518 124.527 225.123C123.743 220.459 111.491 223.281 105.72 227.391C105.378 227.613 105.085 227.901 104.859 228.239C104.632 228.577 104.476 228.958 104.402 229.358C104.327 229.758 104.334 230.169 104.423 230.566C104.513 230.963 104.682 231.338 104.92 231.668C105.159 231.998 105.463 232.275 105.812 232.484C106.161 232.693 106.55 232.828 106.953 232.882C107.357 232.935 107.767 232.906 108.159 232.797C108.551 232.687 108.916 232.498 109.233 232.242Z" fill="black"/>
<path d="M10.0822 334.875C11.5287 336.35 16.1453 335.982 19.633 334.802C21.5571 338.101 24.5696 340.627 28.1531 341.947C9.57822 363.823 7.56222 399.939 10.183 427.906C10.5283 431.515 15.8329 430.729 15.6842 427.12C14.2604 394.342 15.6842 363.601 35.0882 343.456C36.5831 343.569 38.0834 343.594 39.5813 343.532C40.3928 356.568 55.3439 357.896 68.3345 354.211C72.1145 365.997 90.3568 361.771 99.2701 357.084C109.015 364.937 123.822 359.503 134.207 352.468C157.391 352.468 167.917 348.552 167.134 325.239C169.577 322.074 171.592 318.6 173.126 314.907C179.256 315.106 185.177 317.18 190.091 320.849C189.552 329.566 186.507 329.344 195.836 336.564C194.166 340.092 192.079 344.714 190.066 349.575C165.685 344.91 162.714 383.998 134.676 379.432C124.878 377.836 115.776 369.147 115.67 369.072C112.55 366.63 108.748 371.476 111.915 373.86C112.112 374.009 114.493 375.876 118.077 378.144C87.5596 395.257 82.0408 430.121 88.0006 453.996C63.8389 439.438 55.2961 429.151 45.8435 409.508C45.1052 407.996 43.8275 406.61 42.4289 407.52C37.1747 411.005 49.3791 429.665 60.0085 440.738C65.7289 446.706 85.594 463.94 109.95 470.668C126.794 475.333 144.57 475.628 168.729 467.453C213.776 452.161 229.466 438.805 231.505 419.951C233.959 397.271 235.998 379.759 219.449 368.366C221.818 363.172 224.069 357.924 226.2 352.626C229.786 354.985 239.067 354.468 241.842 352.921C246.947 350.121 255.86 332.051 253.234 326.995C251.072 322.82 242.903 325.569 237.298 322.525C231.111 319.161 199.317 302.539 198.971 302.418C193.127 300.281 194.158 308.015 191.532 314.325C186.552 311.299 180.953 309.435 175.152 308.874C176.75 303.03 177.141 296.083 173.361 291.99C176.183 284.231 175.125 272.274 168.351 266.626C179.474 256.755 155.683 227.98 149.151 225.918C96.9517 146.637 -43.9088 218.106 13.522 307.581C6.55422 310.913 7.38582 332.149 10.0822 334.875ZM227.256 389.665C225.439 392.437 218.501 397.508 212.426 400.738C211.848 401.075 211.396 401.591 211.139 402.208C210.881 402.825 210.832 403.509 210.999 404.156C211.166 404.803 211.539 405.379 212.063 405.794C212.587 406.21 213.232 406.443 213.9 406.459C217.312 405.599 221.903 402.212 227.772 397.767C227.747 401.131 227.503 404.889 227.132 409.062C223.091 413.149 218.513 416.668 213.524 419.522C212.972 419.878 212.549 420.401 212.316 421.016C212.084 421.63 212.055 422.303 212.233 422.935C212.412 423.567 212.789 424.125 213.308 424.527C213.828 424.929 214.463 425.153 215.12 425.167C218.065 424.555 220.643 422.1 226.243 418.111C225.973 427.246 221.651 433.065 210.331 441.315C170.483 465.719 127.98 476.719 95.5228 457.788C87.4588 435.497 91.2388 397.659 124.372 381.627C139.472 391.25 156.734 383.643 165.276 372.837C172.668 363.48 178.93 354.839 187.793 355.28C181.581 368.49 181.581 373.62 184.035 377.232C189.075 384.54 201.542 387.42 206.282 386.488C211.022 385.555 214.064 380.989 216.813 373.842C219.69 375.455 222.139 377.733 223.956 380.486C225.773 383.238 226.904 386.386 227.256 389.665ZM206.068 379.474C200.42 381.906 191.336 376.627 190.575 373.139C188.559 363.861 196.736 349.643 201.033 339.774C205.551 342.451 211.869 345.79 220.689 349.988C215.84 362.079 209.48 378.015 206.068 379.487V379.474ZM199.334 309.486C215.344 316.855 232.898 330.455 248.195 330.947C244.735 339.343 240.902 346.488 239.306 347.397C236.255 348.176 233.067 348.251 229.982 347.619C192.344 327.265 191.925 336.645 199.334 309.486ZM168.157 295.468C173.633 301.188 167.618 314.128 162.731 320.832C162.078 321.753 161.711 322.846 161.675 323.974C160.831 343.038 155.799 346.51 135.649 346.367C134.08 346.356 132.533 346.745 131.156 347.496C122.532 352.258 108.241 359.524 102.528 351.528C102.069 350.855 101.373 350.38 100.579 350.198C99.7847 350.016 98.9512 350.14 98.2444 350.545C90.6063 355.285 73.8861 359.617 73.9365 350.275C73.9565 349.756 73.8484 349.24 73.6217 348.773C73.3951 348.305 73.057 347.901 72.6372 347.595C72.2173 347.289 71.7286 347.092 71.2143 347.019C70.6999 346.947 70.1757 347.002 69.6878 347.181C57.0197 352.165 46.8289 351.379 45.6747 342.221C45.575 341.171 45.0818 340.198 44.2942 339.497C43.5066 338.796 42.4828 338.419 41.4285 338.441C33.2763 338.809 25.9607 337.532 24.0178 329.621C22.1782 323.606 25.3207 315.945 29.0578 314.103C34.2868 310.618 42.4894 306.173 46.4912 303.693C50.6164 311.157 56.6065 321.691 64.0228 321.862C74.4304 321.862 99.8446 306.742 102.546 299.913C104.633 294.634 97.7329 282.822 94.54 277.79C99.7463 274.766 110.131 268.804 114.967 266.004C122.555 277.445 129.969 292.325 110.794 292.179C110.423 292.13 110.046 292.163 109.69 292.278C109.333 292.392 109.007 292.584 108.734 292.841C108.462 293.097 108.249 293.411 108.113 293.759C107.977 294.108 107.92 294.482 107.946 294.855C108.198 298.512 113.889 298.661 120.798 296.352C129.293 293.505 129.87 287.341 129.145 283.83C138.673 287.106 152.692 277.863 163.57 270.694C174.517 278.332 163.911 291.957 168.157 295.468ZM46.3702 286.948C47.1791 282.308 72.5102 268.516 78.5103 268.851C79.2209 268.892 82.3634 270.89 87.4966 278.256C93.7815 287.268 97.3901 295.896 96.8509 297.703C95.5505 301.987 70.3329 317.001 63.6297 315.774C58.3579 314.791 45.3925 292.57 46.3702 286.948ZM147.311 231.679C147.999 231.729 151.56 233.443 156.298 241.109C164.18 253.827 170.294 259.107 161.527 264.605C148.171 272.979 135.354 286.751 124.503 270.227C117.26 259.205 114.41 254.22 115.179 249.775C115.958 245.136 141.321 231.213 147.311 231.679ZM114.781 206.784C119.959 205.04 132.335 210.269 142.304 226.77C130.027 231.949 104.91 242.165 109.746 253.605C105.132 256.125 93.7865 262.425 86.3097 267.158C84.3773 264.75 81.6053 263.163 78.5506 262.715C71.5803 263.794 34.3322 278.453 41.1337 291.247C37.4746 293.235 26.3513 299.273 18.62 304.159C17.1654 301.78 15.829 299.33 14.6157 296.818C44.8179 279.461 21.3189 248.376 61.8556 239.486C108.665 229.224 104.859 210.123 114.781 206.784ZM12.1486 291.171C-17.8545 231.876 64.0304 180.389 109.232 201.963C85.2185 249.768 37.4872 216.939 27.5836 267.735C25.6281 276.611 23.8843 284.329 12.1486 291.171Z" fill="black"/>
<path d="M337.127 441.575C340.983 439.93 358.144 437.647 365.954 433.35C369.512 431.362 367.99 426.352 363.842 428.096C348.349 434.577 337.397 434.9 333.322 437.672C329.663 440.151 328.093 446.24 330.497 456.184C331.455 460.216 331.994 469.099 334.106 469.074C342.039 469.043 331.727 443.889 337.127 441.575Z" fill="black"/>
<path d="M339.537 121.285C329.028 126.958 307.863 113.796 314.085 133.782C318.432 147.753 338.171 150.553 347.429 140.117C352.623 134.253 350.708 115.25 339.537 121.285ZM342.384 137.295C333.201 143.922 320.851 140.657 318.837 130.541C317.658 124.279 328.665 133.243 342.213 126.736C345.822 125.463 345.403 135.115 342.384 137.3V137.295Z" fill="black"/>
<path d="M326.423 113.875C329.663 116.06 333.002 110.783 329.638 108.696C329.59 108.671 325.76 106.141 325.982 103.024C326.153 100.592 330.351 98.5784 331.972 97.326C334.794 95.1411 332.365 90.7236 328.24 92.5632C321.904 95.4133 313.508 105.158 326.423 113.875Z" fill="black"/>
<path d="M146.55 116.476C135.329 123.451 136.518 139.864 152.714 139.458C159.317 139.294 162.953 125.732 161.824 122.859C160.695 119.986 151.313 114.757 146.55 116.476Z" fill="black"/>
<path d="M309.362 63.9358C304.579 62.2473 299.408 61.9907 294.481 63.1974C291.095 64.0088 292.249 69.0665 296.175 69.0665C299.872 68.8547 303.58 69.2445 307.152 70.2206C307.962 70.4275 308.82 70.3234 309.557 69.929C310.294 69.5347 310.857 68.8785 311.134 68.0899C311.411 67.3013 311.383 66.4374 311.055 65.6685C310.727 64.8996 310.123 64.2814 309.362 63.9358Z" fill="black"/>
<path d="M362.469 74.1598C359.383 74.25 356.348 74.9745 353.554 76.2882C350.76 77.602 348.266 79.4768 346.228 81.7959C344.189 84.1151 342.65 86.8291 341.706 89.7688C340.762 92.7085 340.433 95.8111 340.739 98.8835C341.402 104.309 345.233 110.768 349.799 111.736C355.252 112.89 358.982 110.803 363.452 110.312C369.042 109.511 374.745 110.179 379.999 112.25C391.417 116.786 391.565 89.3932 384.247 81.7828C381.427 78.952 378.003 76.7958 374.232 75.4756C370.46 74.1555 366.439 73.7057 362.469 74.1598ZM382.035 105.844C377.157 104.713 372.173 104.105 367.167 104.029C365.676 96.0116 363.733 88.0845 361.348 80.2859C377.668 77.9045 386.261 91.7015 382.035 105.844Z" fill="black"/>
<path d="M457.128 119.375C456.563 112.624 451.233 107.344 448.56 101.427C461.696 99.9532 476.355 86.6702 469.405 74.7607C463.022 65.7744 454.356 69.7787 446.327 65.9231C466.739 49.1777 454.643 26.3187 423.493 34.2996C414.041 36.7314 406.158 32.8985 399.185 28.9471C406.821 24.3809 406.241 11.8338 398.155 8.53509C387.45 4.16541 379.544 11.6775 369.379 11.8741C356.832 10.8434 342.836 -5.85411 329.086 2.17713C322.729 5.88405 323.144 12.7611 324.865 17.6197C295.326 36.6986 280.473 14.1572 261.936 26.1171C249.732 36.1341 254.3 53.2953 268.614 58.7209C257.05 66.2582 242.048 53.9102 236.23 69.4763C227.954 62.7 215.48 55.7019 205.317 58.232C202.197 37.4093 181.573 41.3883 162.497 50.672C155.068 38.8809 140.754 46.6929 128.016 53.7212C116.424 60.5706 107.687 71.8904 120.282 84.6316C102.334 80.8011 90.0569 115.376 91.6773 124.851C94.8651 132.607 118.44 144.721 139.92 153.75C138.471 182.133 210.173 238.223 250.044 242.9C270.169 245.261 297.014 234.06 301.162 230.28C306.122 233.201 316.091 235.804 317.86 239.856C322.547 250.412 332 273.027 340.694 276.489C343.173 277.47 346.046 273.493 343.982 271.701C336.568 264.875 327.925 246.95 323.555 237.696C317.442 224.781 294.804 226.694 289.843 210.123C285.669 196.152 289.991 180.855 292.226 174.323C294.19 168.578 288.469 167.94 286.309 172.088C280.685 182.924 277.174 218.076 295.271 226.694C263.156 248.129 219.819 232.145 189.431 207.371C216.647 206.438 238.954 173.661 236.555 148.297C257.793 164.012 261.55 167.325 264.398 163.964C267.001 160.844 261.157 158.954 251.483 151.195C259.395 142.53 268.769 135.325 279.178 129.908C287.454 168.285 339.751 176.755 367.348 166.983C368.724 173.787 367.617 175.823 357.454 179.358C336.951 186.455 329.83 196.005 335.379 222.372C339.555 242.237 354.753 256.526 381.664 254.81C409.26 255.374 448.865 238.407 471.376 220.681C474.763 218.003 473.561 212.431 468.012 215.598C460.893 219.648 451.659 225.787 445.669 229.322C453.33 207.545 431.429 168.48 425.192 157.754C431.283 152.893 437.273 150.023 437.469 146.918C437.641 144.265 434.498 143.773 433.173 144.807C423.153 150.673 418.415 160.718 399.909 154.383C412.309 146.918 418.252 137.171 420.363 126.932C428.589 135.722 448.55 139.651 455.744 125.508C460.235 127.792 468.78 132.653 473.175 138.963C473.65 139.609 474.359 140.043 475.15 140.175C475.941 140.306 476.752 140.124 477.411 139.667C478.07 139.21 478.524 138.514 478.677 137.727C478.831 136.939 478.671 136.124 478.233 135.452C472.389 127.353 461.512 121.487 457.128 119.375ZM263.372 47.4489C259.222 42.1947 260.424 35.3529 265.875 30.7791C279.158 23.0679 290.306 36.9153 309.063 30.5574C322.323 27.488 330.031 18.6 344.811 19.8751C345.212 19.9153 345.616 19.875 346.001 19.7568C346.386 19.6385 346.743 19.4446 347.052 19.1864C347.361 18.9282 347.615 18.6109 347.8 18.2532C347.985 17.8955 348.096 17.5044 348.128 17.1031C346.704 10.1807 334.452 14.8351 330.596 15.4097C330.477 14.4282 330.557 13.4328 330.831 12.4828C331.104 11.5328 331.567 10.6477 332.19 9.88016C332.813 9.11261 333.584 8.47837 334.458 8.01523C335.331 7.55209 336.289 7.26952 337.274 7.18437C346.016 6.37545 362.295 18.9704 369.709 17.9145C375.112 18.3329 382.427 13.8825 389.057 13.5197C393.404 13.2677 398.928 14.5503 398.24 20.7395C397.603 26.2835 389.743 24.1263 385.056 22.2867C381.175 21.5484 379.285 25.7719 382.846 27.5157C386.629 29.1027 390.317 30.9058 393.893 32.9161C407.501 41.5597 416.14 41.7563 425.141 39.521C434.816 37.0917 446.282 37.1144 449.744 45.9773C451.929 51.5515 447.363 59.9481 437.222 63.8693C413.653 73.0521 395.458 53.5826 394.647 52.7233C391.701 49.6539 387.477 53.5095 391.063 57.5113C396.99 63.6082 404.39 68.073 412.546 70.4742C396.121 80.1485 367.101 64.6555 363.736 48.0084C366.76 44.8659 361.549 40.4232 359.047 44.0797C350.942 56.2841 339.822 62.2489 331.302 57.9271C321.529 52.9425 336.531 45.0751 333.978 39.2791C333.504 38.693 332.832 38.3015 332.088 38.1793C331.345 38.0571 330.582 38.2126 329.946 38.6163C306.018 53.943 275.94 63.4182 263.372 47.4489ZM207.365 64.9403C216.596 60.8175 232.114 71.9131 236.02 78.1249C238.303 81.7613 224.086 109.947 218.857 115.716C217.276 113.698 215.22 112.103 212.872 111.075C210.524 110.047 207.957 109.617 205.402 109.824C204.372 95.8783 208.618 79.6722 207.365 64.9403ZM194.04 50.3822C205.36 58.6302 198.117 86.5468 199.246 111.197C196.943 111.996 194.84 113.286 193.085 114.977C191.855 111.953 190.408 108.398 188.785 104.469C193.526 104.295 193.379 99.7062 193.256 95.4575C193.085 88.6812 190.799 82.8575 180.316 84.7777C179.58 83.1321 178.819 81.4866 178.081 79.841C192.543 77.2631 193.379 77.8049 188.591 61.7474C187.437 57.8187 171.574 58.6781 170.102 63.4661C168.761 60.8848 167.352 58.3387 165.879 55.8305C177.66 49.9689 188.067 47.8773 194.04 50.3822ZM187.674 98.2824C187.261 98.4865 186.841 98.6756 186.414 98.8494C185.248 96.0904 184.061 93.3402 182.853 90.5989C183.891 90.4507 184.947 90.4839 185.973 90.6972C187.211 93.027 187.799 95.6471 187.674 98.2824ZM119.712 71.8929C119.367 62.4404 150.403 47.5371 155.093 51.2289C167.124 65.6408 176.16 91.0777 188.876 120.884C188.705 121.23 188.533 121.547 188.372 121.94C177.078 113.297 150.166 93.754 129.717 86.9121C125.017 80.965 119.982 73.6821 119.712 71.8929ZM134.076 144.494C89.8805 123.379 90.1023 125.443 111.88 92.1966C129.754 85.0272 160.813 110.366 186.52 128.215C186.268 129.591 186.079 131.113 185.956 132.708C176.11 124.997 166.337 138.403 168.84 146.989C170.631 151.58 182.468 157.497 187.279 150.769C189.491 170.425 156.197 153.478 134.076 144.492V144.494ZM185.366 139.487C184.962 142.476 183.758 145.301 181.881 147.662C180.491 147.744 179.1 147.509 177.815 146.973C176.53 146.437 175.384 145.615 174.464 144.57C174.806 141.569 176.096 138.755 178.149 136.539C180.776 136.851 183.27 137.869 185.366 139.484V139.487ZM193.198 201.408C187.331 202.857 180.898 203.127 167.368 188.42C155.952 175.997 145.565 162.812 146.475 156.416C174.464 169.11 195.678 170.238 193.599 151.356C192.47 141.276 191.389 133.875 192.739 128.034C193.697 119.881 203.202 113.607 210.442 116.663C218.423 120.035 219.577 136.675 229.718 143.01C232.999 157.654 228.848 192.566 193.198 201.406V201.408ZM246.428 147.712C231.157 137.693 227.228 133.494 222.564 121.146C227.425 113.952 237.18 98.7536 240.831 87.1389C243.911 90.7383 247.959 93.3794 252.494 94.7494C242.305 106.83 256.274 124.803 270.466 127.726C261.606 133.296 253.523 140.016 246.428 147.71V147.712ZM277.588 122.691C261.75 124.067 245.128 100.692 260.989 95.586C263.715 94.7267 269.289 92.9828 268.846 90.11C268.594 88.4418 266.439 87.7765 264.895 88.3914C252.295 93.8674 236.953 78.3114 242.746 69.756C247.68 62.5135 263.493 72.9967 276.187 60.9158C277.617 61.1656 279.059 61.3338 280.508 61.4198C275.124 81.3926 274.128 102.294 277.588 122.689V122.691ZM419.872 160.647C425.272 171.672 456.062 220.507 432.81 235.338C406.244 247.492 367.131 258.885 347.44 234.282C352.399 235.559 363.154 236.343 363.227 231.656C363.221 231.25 363.132 230.849 362.964 230.479C362.796 230.109 362.553 229.778 362.252 229.506C361.95 229.234 361.595 229.027 361.21 228.898C360.824 228.77 360.417 228.722 360.012 228.758C354.387 229.166 348.734 228.576 343.314 227.014C341.437 222.428 340.214 217.602 339.681 212.675C346.187 214.565 357.573 215.399 357.875 211.105C357.88 210.706 357.805 210.31 357.653 209.941C357.501 209.572 357.276 209.238 356.992 208.958C356.708 208.678 356.37 208.458 355.998 208.313C355.627 208.167 355.23 208.097 354.831 208.109C349.677 208.402 344.513 207.77 339.582 206.242C339.681 181.493 376.092 187.41 374.252 170.518C367.794 135.997 406.292 171.433 419.872 160.647ZM392.908 151.323C383.08 145.898 369.412 148.131 367.67 160.481C346.502 170.203 281.169 165.589 282.151 110.885C288.24 108.7 297.019 109.312 304.716 112.087C306.066 112.591 308.375 113.095 309.478 112.185C317.386 105.679 316.451 88.1495 309.675 81.101C304.494 75.7007 295.853 72.281 283.971 72.974C284.676 69.0824 285.644 65.2432 286.869 61.4828C296.468 60.9183 308.352 57.6524 322.691 49.9689C319.989 71.5023 349.307 67.7198 359.274 53.7263C360.703 57.0654 362.642 60.163 365.019 62.9091C357.409 63.4131 356.106 67.5737 358.588 69.5367C360.748 71.2554 363.227 68.0651 371.329 68.9471C380.268 76.0182 393.158 80.7331 404.77 79.2791C417.12 106.263 424.62 135.432 392.911 151.318L392.908 151.323ZM294.749 80.0905C307.787 81.3908 312.747 96.9745 306.412 106.608C303.605 105.129 300.565 104.14 297.425 103.685C296.959 95.6339 295.78 86.7433 294.749 80.0905ZM448.943 124.629C439.871 134.573 422.621 122.298 421.319 119.448C421.981 103.685 415.402 87.774 410.886 77.9057C414.439 76.7224 417.672 74.7395 420.338 72.1097C427.088 72.9003 433.928 71.909 440.176 69.2343C448.547 76.9682 473.346 70.8799 462.79 86.8744C458.443 93.4541 447.418 98.1942 435.07 94.1672C434.688 94.0423 434.285 93.9939 433.884 94.025C433.484 94.0561 433.093 94.166 432.735 94.3484C432.377 94.5307 432.058 94.782 431.797 95.0878C431.536 95.3936 431.338 95.7479 431.215 96.1303C430.207 101.556 438.85 101.017 442.091 101.674C444.203 109.063 454.736 118.246 448.943 124.629Z" fill="black"/>
<path d="M154.04 286.285C147.927 285.549 153.894 294.681 141.944 294.78C141.142 294.782 140.353 294.992 139.656 295.39C138.959 295.787 138.376 296.358 137.965 297.048C134.772 302.592 131.161 309.005 125.494 303.282C125.081 302.775 124.523 302.407 123.895 302.227C123.267 302.047 122.599 302.063 121.981 302.274C116.628 305.122 127.021 315.975 108.121 313.594C102.473 312.881 105.003 321.671 96.2767 320.663C93.6736 320.37 92.6177 321.892 92.9629 323.561C93.5249 326.189 96.0802 328.127 101.783 326.753C103.502 326.36 105.094 325.54 106.412 324.368C107.73 323.196 108.731 321.711 109.323 320.05C120.617 320.91 123.939 317.618 126.338 310.966C133.311 312.226 137.804 310.991 142.738 300.825C146.457 301.113 150.142 299.952 153.025 297.584C157.576 293.552 156.789 286.63 154.04 286.285Z" fill="black"/>
<path d="M157.451 76.8965C158.311 73.9254 152.885 62.1167 147.875 62.7845C140.484 63.7421 133.829 68.9232 133.683 73.1165C133.585 75.2761 136.825 81.3418 140.114 84.5321C145.716 88.5364 156.567 79.7441 157.451 76.8965ZM139.922 73.0434C140.535 71.2996 145.398 68.2806 147.679 68.9409C148.684 69.6608 149.527 70.5837 150.153 71.6498C150.779 72.7159 151.174 73.9015 151.313 75.13C151.217 77.4862 145.567 80.4825 143.556 79.4745C142.009 78.7134 139.282 74.7117 139.922 73.0434Z" fill="black"/>
</svg>
