<svg width="375" height="375" viewBox="0 0 375 375" fill="none" xmlns="http://www.w3.org/2000/svg">
<path d="M286.048 43.329C287.135 47.1915 282.691 57.1103 284.941 57.9353C287.191 58.7603 289.985 48.654 292.441 46.4603C295.891 43.404 311.191 49.9478 312.054 47.3603C312.916 44.7728 297.916 41.2478 296.679 37.4978C295.591 34.2353 299.848 23.8665 297.391 23.1915C294.935 22.5165 292.573 33.5228 289.31 35.4165C286.048 37.3103 277.066 32.2103 276.429 34.4978C275.791 36.7853 284.998 39.879 286.048 43.329Z" fill="#77C2FF"/>
<path d="M50.3406 259.292C49.2156 257.099 54.0906 247.049 51.9531 246.505C49.8156 245.961 45.8031 255.88 42.1093 256.874C39.8968 257.511 30.9531 253.124 30.4843 255.317C30.0156 257.511 40.8156 261.524 41.6406 264.261C42.6531 267.599 37.7968 277.049 40.0468 278.061C42.2968 279.074 45.3718 269.23 47.9781 267.392C50.5843 265.555 58.6281 268.18 59.2281 266.361C60.1656 264.017 51.4656 261.486 50.3406 259.292Z" fill="#77C2FF"/>
<path d="M39.373 163.742C41.5668 163.742 40.0105 153.167 41.248 151.217C43.3105 147.954 51.3168 146.829 51.3168 145.236C51.3168 143.642 42.5605 144.467 40.7793 142.723C38.998 140.979 37.0293 127.723 35.1543 127.723C33.2793 127.723 35.7918 142.911 34.423 144.823C33.0543 146.736 21.4293 147.373 22.1418 149.417C22.8543 151.461 32.5105 149.417 35.0418 151.817C36.8605 153.448 37.1418 163.742 39.373 163.742Z" fill="#77C2FF"/>
<path d="M126.598 82.2731C127.232 82.4099 127.895 82.2892 128.44 81.9375C128.985 81.5859 129.368 81.0322 129.505 80.3981C129.641 79.7641 129.521 79.1017 129.169 78.5567C128.817 78.0116 128.264 77.6286 127.63 77.4919C109.161 73.5356 75.8796 50.6231 67.0296 39.6356C66.1858 38.5856 64.1608 38.0419 63.5796 39.2606C59.8108 47.5106 108.392 79.9669 126.598 82.2731Z" fill="#77C2FF"/>
<path d="M109.984 47.6212C114.634 50.0962 115.177 44.865 112.384 43.3462C102.627 38.0531 93.6324 31.4618 85.6462 23.7525C83.7712 21.8775 80.0212 24.5025 82.6837 27.6712C87.6524 33.54 101.977 43.3087 109.984 47.6212Z" fill="#77C2FF"/>
<path d="M117.353 36.9545C120.428 38.1733 122.115 35.342 118.215 32.117C113.584 28.3387 108.766 24.7967 103.778 21.5045C99.6151 19.1045 98.8089 22.7045 100.778 25.0483C105.623 29.8866 111.221 33.9075 117.353 36.9545Z" fill="#77C2FF"/>
<path d="M85.9661 186.204C73.0473 185.435 93.7848 198.204 97.7973 198.467C98.4115 198.673 99.0824 198.627 99.6626 198.339C100.243 198.05 100.685 197.543 100.891 196.929C101.097 196.315 101.051 195.644 100.763 195.064C100.475 194.484 99.9677 194.042 99.3536 193.835C94.4548 192.147 89.9145 189.559 85.9661 186.204Z" fill="#77C2FF"/>
<path d="M126.539 300.298C124.402 297.261 125.883 282.373 122.789 282.373C119.696 282.373 120.089 297.917 117.464 300.598C114.839 303.28 98.527 300.861 98.527 303.973C98.527 307.386 115.064 306.598 117.839 310.011C120.614 313.423 118.739 327.767 122.039 328.761C125.339 329.755 124.533 314.548 126.746 311.117C129.577 306.73 142.777 308.417 142.777 305.736C142.777 303.055 128.846 303.542 126.539 300.298Z" fill="#77C2FF"/>
<path d="M220.215 69.9725C220.215 67.535 207.802 68.8287 205.215 66.035C202.627 63.2412 203.452 47.6787 201.09 47.6787C198.727 47.6787 197.977 64.085 195.577 66.4287C192.596 69.2037 182.621 67.7975 182.621 70.0662C182.621 72.335 192.202 71.3225 195.015 74.885C198.183 78.8975 197.508 94.8725 200.115 94.1225C202.721 93.3725 203.396 77.51 206.883 74.5287C209.996 71.8662 220.215 72.41 220.215 69.9725Z" fill="#77C2FF"/>
<path d="M323.49 221.941C321.015 215.585 318.465 211.46 307.852 201.56C280.684 217.816 232.346 198.541 222.559 178.479C198.709 181.741 219.69 189.091 216.934 200.397C203.809 230.679 196.309 274.029 249.484 272.866C248.359 258.86 256.646 247.141 268.496 251.772C271.852 237.016 281.827 242.397 287.096 250.872C293.584 253.61 318.052 236.922 322.046 233.172C325.402 230.116 324.84 225.354 323.49 221.941Z" fill="#77C2FF"/>
<path d="M80.2299 213.748C75.9363 212.107 72.0843 209.488 68.9799 206.098C57.4862 203.755 72.2424 217.348 78.5799 218.398C78.8852 218.507 79.2089 218.554 79.5325 218.537C79.856 218.52 80.1731 218.44 80.4656 218.301C80.7581 218.161 81.0203 217.966 81.2372 217.725C81.4542 217.485 81.6216 217.204 81.7299 216.898C81.8383 216.593 81.8854 216.269 81.8686 215.946C81.8519 215.622 81.7716 215.305 81.6323 215.013C81.493 214.72 81.2975 214.458 81.0569 214.241C80.8162 214.024 80.5352 213.857 80.2299 213.748Z" fill="#77C2FF"/>
<path d="M72.7271 190.965C72.3119 190.512 71.7419 190.231 71.1296 190.178C70.5173 190.124 69.9072 190.302 69.4197 190.677C68.9323 191.051 68.6029 191.595 68.4967 192.2C68.3905 192.805 68.515 193.429 68.8459 193.947C80.2084 208.947 104.602 219.053 96.8209 208.347C87.3421 204.883 79.0043 198.868 72.7271 190.965Z" fill="#77C2FF"/>
<path d="M90.5969 103.122C75.8782 98.9972 61.3844 83.8284 61.2344 83.6784C47.1157 80.9784 73.0469 103.46 89.3594 107.753C89.9272 107.798 90.4928 107.642 90.9577 107.313C91.4227 106.984 91.7578 106.503 91.9049 105.953C92.0519 105.402 92.0016 104.818 91.7627 104.301C91.5237 103.784 91.1113 103.367 90.5969 103.122Z" fill="#77C2FF"/>
<path d="M102.239 177.091C65.9768 153.748 36.2581 203.735 70.2894 226.123C103.777 248.173 135.502 198.635 102.239 177.091ZM102.464 220.517C94.6831 227.81 83.3393 228.354 72.8393 221.942C52.2143 209.154 57.5956 182.379 77.5644 176.942C103.646 170.773 122.752 202.498 102.464 220.517Z" fill="black"/>
<path d="M272.864 179.998C269.827 178.123 266.452 181.048 259.289 178.123C243.502 171.917 254.171 190.76 261.671 191.848C272.339 193.535 277.627 182.792 272.864 179.998Z" fill="black"/>
<path d="M354.917 250.723C353.779 232.967 346.206 216.234 333.617 203.661C341.342 197.811 343.873 190.123 336.88 178.892C338.243 177.571 339.45 176.099 340.48 174.504C359.998 173.267 358.161 146.511 344.548 140.229C347.905 131.004 342.673 115.704 333.298 112.011C332.726 107.301 330.45 102.963 326.899 99.8166C323.348 96.6698 318.768 94.9315 314.023 94.9295C308.211 76.5732 276.205 72.8607 264.636 89.3045C253.536 83.6795 238.18 88.6107 236.098 101.192C225.598 100.048 217.705 111.523 221.192 121.161C212.68 129.186 212.998 146.792 220.423 153.636C217.03 159.205 215.941 165.877 217.386 172.236C211.038 173.106 204.992 175.492 199.761 179.192C197.248 175.442 196.292 172.311 197.886 169.142C203.68 157.892 193.311 153.504 184.967 154.798C177.636 140.004 160.78 139.986 149.53 149.173C118.33 174.373 167.398 246.861 194.23 244.367C193.967 250 194.6 255.639 196.105 261.073C185.323 283.573 190.967 311.811 193.348 336.223C173.736 356.248 185.136 366.804 213.748 364.798C228.748 363.654 250.667 366.317 258.973 360.148C261.673 367.798 299.248 365.267 314.661 365.042C323.886 364.892 337.836 364.236 340.348 356.754C348.111 339.261 323.361 314.586 326.305 290.998C345.167 283.386 356.511 271.592 354.917 250.723ZM335.342 194.211C334.337 196.792 332.405 198.905 329.923 200.136C327.605 198.068 325.177 196.128 322.648 194.323C325.703 191.084 328.142 187.317 329.848 183.204C330.949 182.909 332.003 182.461 332.98 181.873C335.905 186.317 336.711 190.536 335.342 194.211ZM296.398 202.911C268.123 209.867 210.973 191.248 224.248 156.748C242.492 170.661 245.605 160.498 258.13 161.773C266.455 162.579 269.38 171.504 274.798 173.998C289.236 180.598 302.136 182.773 312.092 169.798C317.378 172.41 321.948 176.272 325.405 181.048C320.923 192.129 310.667 199.854 296.398 202.911ZM329.38 178.254C325.577 172.993 320.594 168.697 314.83 165.711C316.803 162.503 318.36 159.056 319.461 155.454C328.311 159.523 335.68 166.404 336.58 171.561C334.872 174.437 332.373 176.761 329.38 178.254ZM227.661 109.423C229.705 106.329 233.061 106.011 236.061 106.254C237.936 106.404 239.38 105.879 239.923 104.079C242.642 95.0232 252.467 88.8732 262.273 93.692C261.317 95.7732 260.942 98.9982 263.642 99.167C266.68 99.3545 266.267 95.417 267.598 93.7107C276.017 79.5732 301.705 80.3045 308.848 95.4732C306.548 95.8873 304.429 96.9927 302.773 98.642C301.855 99.842 302.773 103.629 305.436 101.942C312.073 96.6357 326.473 100.911 327.936 110.792C326.359 110.562 324.767 110.456 323.173 110.473C320.023 110.473 319.423 115.461 322.648 115.348C327.205 114.673 336.748 117.223 338.755 124.723C342.28 131.436 339.58 137.286 339.017 142.761C339.194 143.103 339.447 143.4 339.755 143.631C340.064 143.861 340.42 144.019 340.798 144.092C350.68 146.454 355.667 166.592 341.042 169.461C338.942 161.961 329.567 154.461 320.248 150.373C319.461 127.873 274.986 123.129 255.411 115.273C244.573 111.992 233.173 112.611 225.28 117.711C225.084 116.24 225.194 114.744 225.604 113.318C226.014 111.892 226.714 110.566 227.661 109.423ZM222.036 140.192C222.276 139.975 222.559 139.811 222.867 139.709C223.174 139.607 223.499 139.57 223.821 139.6C224.144 139.63 224.456 139.726 224.74 139.883C225.023 140.04 225.271 140.253 225.467 140.511C235.198 155.098 258.317 144.148 276.973 157.854C287.023 165.204 297.242 166.686 303.055 155.979C303.199 155.693 303.4 155.439 303.643 155.231C303.887 155.023 304.17 154.866 304.476 154.768C304.781 154.67 305.103 154.634 305.422 154.662C305.741 154.69 306.052 154.781 306.336 154.929C306.911 155.229 307.345 155.745 307.541 156.363C307.738 156.981 307.682 157.652 307.386 158.229C300.411 171.842 285.317 171.748 274.236 161.829C260.248 149.342 236.961 161.661 222.28 144.579C221.38 143.604 220.967 141.054 222.017 140.192H222.036ZM219.036 177.073C236.286 208.704 289.686 220.086 319.03 197.698C334.223 208.011 344.865 223.775 348.748 241.723C339.036 236.811 318.973 239.379 302.661 244.292C301.198 241.479 302.08 231.505 297.167 232.592C294.13 233.267 296.848 242.829 297.955 245.717C293.267 246.673 287.661 250.179 286.03 247.292C280.273 237.073 268.592 238.18 267.955 249.505C251.567 245.005 243.861 262.536 248.305 277.63C229.892 277.63 204.036 268.404 201.055 260.304C196.555 248.136 198.805 212.942 219.13 189.054C219.339 188.81 219.498 188.527 219.597 188.22C219.696 187.914 219.734 187.592 219.708 187.271C219.682 186.95 219.592 186.638 219.445 186.352C219.297 186.066 219.095 185.812 218.848 185.604C214.892 183.298 212.698 190.198 210.43 192.429C208.386 189.411 205.142 186.073 202.686 183.054C206.08 180.748 212.961 177.186 219.017 177.073H219.036ZM194.436 239.454C172.911 241.742 133.892 186.542 147.561 158.642C149.605 161.361 149.98 166.761 153.598 167.792C153.997 167.789 154.39 167.689 154.741 167.501C155.093 167.313 155.393 167.042 155.617 166.711C155.84 166.381 155.98 166.001 156.023 165.605C156.067 165.208 156.013 164.807 155.867 164.436C154.198 160.348 152.117 158.192 151.198 154.161C153.538 151.967 156.328 150.31 159.373 149.304C161.642 152.511 162.992 158.679 166.742 160.011C172.911 158.398 165.167 151.423 164.192 148.067C177.317 144.767 178.93 160.967 184.63 159.936C188.867 159.186 192.017 159.429 193.817 161.511C194.848 162.729 194.736 164.529 193.48 166.854C187.273 178.573 202.573 188.154 207.411 197.023C199.943 210.008 195.508 224.514 194.436 239.454ZM219.617 359.886C196.78 359.679 176.492 360.711 197.117 339.411C215.68 338.623 239.773 350.023 259.273 350.792C256.33 362.923 233.286 359.998 219.617 359.886ZM335.623 355.198C328.611 363.748 282.317 359.998 269.998 359.511C260.623 359.117 263.436 350.136 266.998 344.961C295.948 338.811 311.492 349.329 336.505 348.542C337.015 350.795 336.702 353.156 335.623 355.198ZM336.017 343.667C311.136 344.061 295.686 333.973 266.436 340.104C259.498 331.722 254.331 322.021 251.248 311.586C250.423 308.379 249.373 305.961 250.03 295.179C250.255 291.429 247.142 292.329 246.767 293.642C242.08 310.742 253.405 330.711 262.517 343.029C261.936 344.023 261.448 344.998 260.998 345.954C241.348 345.504 217.311 334.086 198.167 334.498C196.161 312.767 190.667 286.479 199.367 266.398C208.742 276.092 233.811 282.842 249.861 282.486C261.58 311.061 304.63 299.211 321.111 292.836C319.255 312.017 335.38 331.404 336.017 343.667ZM256.348 284.792C259.546 284.92 262.749 284.738 265.911 284.248C266.547 284.124 267.108 283.752 267.471 283.214C267.833 282.676 267.967 282.016 267.842 281.38C267.718 280.743 267.346 280.182 266.808 279.82C266.27 279.458 265.61 279.324 264.973 279.448C261.347 279.977 257.671 280.065 254.023 279.711C253.046 276.988 252.416 274.153 252.148 271.273C256.123 271.273 266.136 273.579 266.136 267.917C266.054 267.606 265.91 267.315 265.714 267.061C265.518 266.806 265.273 266.593 264.994 266.435C264.715 266.276 264.406 266.174 264.087 266.136C263.768 266.097 263.445 266.123 263.136 266.211C259.499 266.929 255.761 266.967 252.111 266.323C255.373 247.573 262.123 257.211 271.461 252.992C273.655 251.117 272.361 245.379 275.436 245.004C277.198 244.667 278.848 244.348 281.698 249.561C286.198 257.323 294.486 250.723 301.555 249.729C326.605 242.454 359.68 236.173 348.186 266.604C339.542 290.042 268.611 307.086 256.348 284.792Z" fill="black"/>
<path d="M162.654 112.498C176.285 100.742 152.866 79.123 147.035 74.4355C156.991 27.0168 100.385 -8.06448 63.86 18.5605C21.1475 -0.189482 2.41627 18.5605 40.6663 58.6668C35.4163 100.629 89.81 136.873 125.623 111.523C139.01 115.029 152.491 119.361 162.654 112.498ZM59.2663 22.0105C50.0078 29.8204 43.7346 40.5915 41.51 52.498C13.1225 20.623 22.385 7.29177 59.2663 22.0105ZM72.5788 107.604C50.6225 94.7043 46.5913 81.1105 45.3913 63.3918C66.6575 83.8502 92.0042 99.5872 119.773 109.573C106.573 117.448 89.3975 117.467 72.5788 107.604ZM124.591 106.179C98.7725 98.3793 64.91 76.873 45.7475 56.9793C48.71 23.473 88.8725 2.60427 118.873 21.5043C149.398 37.9855 150.204 85.048 124.591 106.179ZM130.085 107.867C137.912 100.263 143.408 90.5842 145.929 79.9668C169.123 99.6168 168.616 119.529 130.085 107.867Z" fill="black"/>
<path d="M77.4716 64.1982C49.4029 48.7482 38.5091 29.6982 37.6841 27.6919C36.5779 25.0857 38.6966 24.7669 40.3841 24.6169C43.9654 24.2982 43.5904 20.8669 40.3841 20.6044C13.3841 19.4419 57.5029 59.9794 74.6966 68.4919C79.7966 70.9856 81.2404 66.2794 77.4716 64.1982ZM152.847 95.4544C134.828 99.0169 117.897 89.4732 117.709 89.3981C113.959 88.0481 113.115 92.0982 116.847 94.3669C125.338 98.8323 134.778 101.192 144.372 101.248C147.578 100.629 155.622 102.392 155.622 97.4981C155.515 96.8636 155.166 96.2954 154.648 95.9139C154.13 95.5324 153.484 95.3676 152.847 95.4544Z" fill="#77C2FF"/>
</svg>
