<svg width="375" height="375" viewBox="0 0 375 375" fill="none" xmlns="http://www.w3.org/2000/svg">
<path d="M168.751 145.068C169.369 141.318 161.494 128.324 154.632 128.324C147.769 128.324 138.526 136.668 138.526 141.131C138.526 145.593 147.301 156.374 152.926 156.993C158.326 156.993 168.188 149.062 168.751 145.068ZM165.169 144.524C164.363 147.149 155.982 153.674 152.794 153.374C149.044 152.043 142.163 143.681 142.144 141.131C142.294 139.012 149.363 131.943 154.632 131.943C159.057 131.999 165.526 142.687 165.244 144.524H165.169Z" fill="#77C2FF"/>
<path d="M186.433 308.268C181.689 308.268 176.814 309.168 175.614 310.818C172.352 316.443 173.233 333.318 184.877 330.936C190.333 330.936 196.389 329.268 197.571 326.943C200.421 318.749 198.977 306.374 186.433 308.268ZM194.421 325.143C182.739 330.074 174.546 327.843 178.464 313.086C189.377 310.255 198.096 310.536 194.421 325.161V325.143Z" fill="#77C2FF"/>
<path d="M334.651 309.374C320.664 303.955 305.007 311.83 313.314 328.349C316.951 333.111 333.601 331.255 336.282 328.349C338.964 325.442 338.682 311.736 334.651 309.374ZM333.639 325.855C322.389 329.811 308.72 328.686 317.232 313.236C317.345 311.999 331.145 310.705 332.72 312.43C334.295 314.155 335.139 323.38 333.639 325.761V325.855Z" fill="#77C2FF"/>
<path d="M176.251 180.449C183.038 179.512 191.738 170.924 191.251 166.518C190.763 162.112 181.876 150.806 176.476 150.449C171.151 150.449 160.107 159.637 159.976 163.856C159.845 167.681 169.182 181.256 176.251 180.449ZM163.52 163.968C164.307 161.174 172.895 154.049 176.42 154.068C179.157 154.612 187.088 163.331 187.557 166.949C180.113 181.162 169.857 178.799 163.52 163.968Z" fill="#77C2FF"/>
<path d="M328.989 234.843C314.364 232.968 313.727 247.256 317.045 256.462C319.67 260.362 333.096 260.587 337.445 257.512C342.527 253.912 341.477 239.849 339.17 237.131C337.877 235.631 333.489 234.843 328.989 234.843ZM320.083 254.474C318.752 252.056 318.883 242.474 320.683 239.906C321.564 238.331 334.858 238.031 336.433 239.549C337.28 242.058 337.63 244.707 337.464 247.349C338.758 258.506 325.183 256.762 320.083 254.474Z" fill="#77C2FF"/>
<path d="M317.513 270.731C313.52 278.1 314.307 296.981 328.763 294.694C343.763 296.569 342.826 280.538 338.907 271.313C336.076 267.338 320.157 267.431 317.513 270.731ZM336.526 289.481C321.526 294.881 316.37 288.281 320.27 273.169C321.901 271.538 334.988 271.838 335.907 273.525C337.82 276.281 337.97 286.706 336.526 289.388V289.481Z" fill="#77C2FF"/>
<path d="M113.588 248.736C104.495 249.599 81.7134 255.018 94.8384 264.111C97.5009 265.499 113.757 261.393 117.17 257.099C119.476 254.23 118.407 248.136 113.588 248.736Z" fill="#77C2FF"/>
<path d="M316.669 206.455C314.363 209.774 313.632 219.392 316.557 222.955C319.051 226.03 335.307 227.736 339.357 224.511C341.832 221.98 344.138 208.986 338.701 205.592C334.144 202.78 319.576 202.742 316.669 206.455ZM336.844 208.724C339.938 211.349 337.782 220.705 336.844 221.849C334.201 223.555 319.294 221.849 319.313 220.574C317.644 218.699 318.057 210.974 319.557 208.611C321.057 206.942 334.407 206.549 336.844 208.724Z" fill="#77C2FF"/>
<path d="M41.5691 205.294C43.9878 198.337 39.0753 177.694 44.2691 173.419C59.0628 177.169 79.1066 173.081 89.0441 158.062C105.244 164.269 109.407 180.562 109.407 180.562C122.869 166.031 95.6253 155.175 89.8316 154.387C81.8816 126.562 31.2941 139.706 31.3316 168.562C21.9566 176.587 15.0753 191.625 22.5941 202.106C28.7066 208.856 40.8191 209.419 41.5691 205.294Z" fill="#77C2FF"/>
<path d="M106.877 220.593C102.658 221.98 103.258 225.543 90.8078 227.849C65.5328 229.443 67.1828 243.111 89.1391 242.605C124.933 238.33 111.077 219.205 106.877 220.593Z" fill="#77C2FF"/>
<path d="M37.3694 230.623C31.0694 232.498 29.5694 241.18 33.5256 241.723C55.5569 244.78 57.7881 241.123 59.3819 238.648C62.4194 233.886 45.3756 228.355 37.3694 230.623Z" fill="#77C2FF"/>
<path d="M221.944 274.087C208.688 271.912 207.788 288.337 213.825 294.168C216.825 296.643 228.694 297.618 232.8 295.199C236.906 292.78 237.019 279.899 234.375 276.918C233.063 275.437 227.344 274.087 221.944 274.087ZM230.906 292.105C229.031 293.755 216.525 292.574 216.113 291.374C207.844 276.543 221.569 275.774 231.713 279.393C233.063 281.737 232.5 290.624 230.906 292.105Z" fill="#77C2FF"/>
<path d="M290.944 306.074C276.301 303.467 275.513 322.761 281.569 328.93C285.113 331.461 298.107 331.536 301.801 328.93C305.494 326.324 305.982 311.624 303.057 308.699C301.632 307.274 296.251 306.074 290.944 306.074ZM299.663 325.93C298.444 327.561 284.663 327.467 283.669 325.93C282.113 324.561 280.369 315.224 283.126 311.399C284.438 308.755 298.932 309.655 300.451 311.155C301.876 313.78 301.407 324.261 299.663 325.93Z" fill="#77C2FF"/>
<path d="M226.125 157.499C221.663 157.499 210.825 167.38 211.65 172.386C212.475 177.392 220.575 187.742 225.488 188.005C245.138 182.549 243.75 164.024 226.125 157.499ZM236.644 173.642C235.781 178.536 228.113 184.367 225.394 184.386C222.863 183.936 215.794 175.724 215.138 171.824C215.138 169.274 222.938 161.492 225.956 161.117C227.906 161.249 237.338 169.386 236.644 173.68V173.642Z" fill="#77C2FF"/>
<path d="M281.794 202.875C280.069 206.288 280.051 212.25 279.919 215.363C279.788 221.663 282.676 224.025 293.044 224.269C301.088 224.438 304.651 223.819 306.169 218.794C307.538 214.575 307.838 206.25 305.476 202.35C302.701 199.35 285.001 199.238 281.794 202.875ZM303.863 215.194C303.638 222.994 286.744 220.819 283.819 218.944C282.394 216.656 282.544 207.694 284.494 205.275C285.451 203.569 301.369 203.269 303.094 204.919C304.289 208.208 304.555 211.763 303.863 215.194Z" fill="#77C2FF"/>
<path d="M247.669 312.337C241.838 322.012 244.931 333.337 257.175 331.687C261.488 331.687 265.969 331.012 268.05 329.812C272.1 327.337 272.438 313.931 269.7 310.837C267.263 308.006 251.7 307.5 247.669 312.337ZM266.156 326.644C265.2 328.125 251.156 328.519 250.069 327.019C248.194 325.425 248.194 316.537 250.463 314.625C251.381 312.281 264.713 311.587 267.056 313.275C268.538 315.787 267.919 325.162 266.25 326.644H266.156Z" fill="#77C2FF"/>
<path d="M268.97 239.662C264.807 236.849 251.645 238.518 248.588 240.543C245.213 242.737 244.988 253.668 248.138 258.712C251.288 263.755 268.107 262.105 271.013 259.612C273.92 257.118 272.457 242.305 268.97 239.662ZM268.52 256.912C266.645 258.337 252.413 258.955 251.176 256.743C248.813 252.993 249.301 244.987 250.632 243.524C250.838 242.549 264.732 240.899 266.72 242.493C268.707 244.087 269.701 254.268 268.52 256.874V256.912Z" fill="#77C2FF"/>
<path d="M315.094 74.8111C332.832 73.6674 334.838 58.7799 334.838 58.7799C334.838 58.7799 333.919 59.3049 329.607 58.1611C325.294 57.0174 313.388 39.4111 290.363 39.4111C277.838 39.4111 270.169 49.6861 274.519 56.7736C278.869 63.8611 300.975 75.7299 315.094 74.8111Z" fill="#77C2FF"/>
<path d="M264.526 294C268.276 291.394 268.088 278.719 265.295 275.888C262.707 273.338 246.376 270.938 242.945 275.888C234.807 295.669 249.601 300 264.526 294ZM246.282 291.75C244.613 290.231 243.376 281.494 245.888 277.988C247.463 275.438 261.676 277.163 262.763 278.494C264.245 280.669 264.02 289.556 262.463 291.038C262.501 292.313 247.276 293.213 246.282 291.75Z" fill="#77C2FF"/>
<path d="M185.625 241.143C171.281 239.624 171.15 252.937 175.481 262.143C178.256 265.706 194.231 265.631 196.819 262.668C201.131 255.318 199.162 238.968 185.625 241.143ZM194.137 260.174C192.656 261.656 179.044 261.337 178.294 259.856C176.55 257.437 176.419 248.606 177.694 246.281C190.687 242.043 198.281 245.624 194.081 260.174H194.137Z" fill="#77C2FF"/>
<path d="M195.676 294.919C199.538 286.031 200.213 271.2 185.87 272.925C172.163 270.75 171.095 288.356 175.051 295.425C177.601 298.556 192.976 298.669 195.676 294.919ZM178.801 278.044C180.882 275.869 192.188 276.45 193.351 278.044C194.645 280.481 194.513 290.1 192.77 292.706C192.001 294.225 179.251 294.581 177.77 293.044C176.363 290.325 176.251 279.787 178.801 278.044Z" fill="#77C2FF"/>
<path d="M281.512 258.524C285.018 260.624 298.068 261.468 301.631 258.655C306.862 253.03 306.6 235.143 293.437 237.336C288.131 237.336 282.45 238.78 281.137 240.336C278.587 243.393 277.5 256.236 281.512 258.524ZM283.837 242.774C296.493 238.311 305.681 240.899 299.325 255.899C298.2 257.343 284.456 256.799 283.406 255.468C282.356 254.136 282.168 245.211 283.837 242.774Z" fill="#77C2FF"/>
<path d="M220.239 149.231C214.801 131.943 200.326 125.549 190.595 144.993C188.514 151.518 200.326 163.387 204.17 163.949C209.045 164.343 220.276 154.199 220.239 149.231ZM204.676 160.349C192.826 152.849 189.095 141.599 205.82 136.143C209.345 137.249 216.545 146.531 216.62 149.268C216.695 152.006 207.77 160.049 204.676 160.349Z" fill="#77C2FF"/>
<path d="M293.082 274.443C288.338 274.443 283.444 275.718 282.038 277.143C279.132 280.068 278.176 294.318 282.038 297.037C285.901 299.756 298.707 299.024 302.044 296.606C307.501 291.356 306.038 272.231 293.082 274.443ZM300.001 293.681C299.719 294.918 285.676 295.856 284.269 294.112C282.638 292.987 283.238 280.818 284.682 279.712C298.388 274.649 304.726 280.668 300.001 293.681Z" fill="#77C2FF"/>
<path d="M219.656 308.85C205.8 306.975 202.781 321.3 207.788 329.381C210.863 332.306 227.681 332.194 230.4 328.894C235.388 319.294 234.075 307.313 219.656 308.85ZM227.719 326.456C226.95 327.975 211.856 328.331 210.338 326.775C209.381 325.538 208.331 316.088 211.425 313.95C213.881 311.813 226.988 312.356 228.3 313.95C229.613 316.069 229.444 324.375 227.719 326.456Z" fill="#77C2FF"/>
<path d="M284.307 107.475C287.476 108.9 294.357 99.5809 288.788 98.2684C286.201 99.7684 275.419 97.6309 275.663 101.512C276.398 103.218 277.599 104.682 279.127 105.737C280.656 106.791 282.451 107.394 284.307 107.475ZM280.332 102.168C281.794 101.775 289.969 99.3372 286.651 103.837C285.432 104.868 280.126 105.225 280.332 102.168Z" fill="black"/>
<path d="M258.9 78.2243C261.769 77.4555 264.225 76.1055 267.919 77.0055C268.335 76.9835 268.732 76.8236 269.047 76.5512C269.362 76.2787 269.577 75.9092 269.658 75.5009C269.74 75.0925 269.684 74.6686 269.498 74.296C269.312 73.9234 269.007 73.6233 268.632 73.443C265.051 72.6058 261.288 73.1129 258.057 74.868C256.875 75.768 256.763 78.7493 258.9 78.2243Z" fill="black"/>
<path d="M359.719 168.562C357.469 158.812 356.513 154.199 349.182 154.387C348.638 129.749 343.35 111.468 329.925 98.2868C331.516 96.572 332.735 94.5473 333.507 92.3394C334.279 90.1315 334.586 87.788 334.41 85.4557C334.234 83.1234 333.579 80.8526 332.484 78.7855C331.39 76.7185 329.88 74.8997 328.05 73.443C331.345 71.0579 334.014 67.9125 335.832 64.2743C336.713 62.0993 337.369 59.493 335.682 57.8243C334.294 56.4555 332.794 56.9055 331.65 56.7555C329.625 56.5118 327.75 55.743 323.344 48.2055C315.057 33.6368 289.594 28.9118 271.032 38.4931C255.282 46.6306 247.838 59.943 248.288 79.218C248.644 88.368 247.613 101.718 255.619 109.537C247.71 113.675 239.159 116.446 230.325 117.731C225.75 114.581 218.738 111.281 217.725 119.887C217.313 123.318 212.7 124.162 210.844 125.737C197.119 112.856 187.969 139.781 177.825 141.168C172.5 137.587 161.794 115.537 156.225 117.187C149.55 117.187 129.544 132.431 128.513 139.687C128.044 143.081 138.207 156.037 145.988 165.393C143.435 166.242 141.026 167.475 138.844 169.049C135.563 167.718 131.85 167.062 130.35 167.962C126.6 170.193 128.682 176.474 127.95 178.893C127.313 180.956 124.669 183.899 114.15 192.018C114.126 190.133 113.956 188.252 113.644 186.393C133.613 166.874 110.944 149.999 91.763 145.499C78.3755 110.118 24.0192 141.281 23.7192 166.124C1.66922 182.999 4.96922 216.206 33.9942 216.149C34.1501 217.17 34.5559 218.136 35.1755 218.962C21.6192 228.562 16.5942 249.131 17.5317 260.624C18.2817 269.774 27.788 276.824 39.0567 281.699C37.388 293.193 28.7255 334.199 37.0692 339.337C65.3067 341.006 108.188 339.243 135.15 339.337C144.525 336.806 138.657 327.074 131.738 324.224C130.313 302.662 123.769 266.099 125.25 246.112C149.457 226.874 164.269 212.999 166.875 188.699C172.275 193.968 173.513 193.987 174.132 193.987C178.463 195.412 194.757 176.399 200.138 174.431C205.913 176.118 217.219 200.474 223.369 200.024C232.613 199.312 251.138 181.893 251.494 174.843C251.494 172.181 245.044 163.237 236.888 153.431C241.275 152.699 244.144 151.556 248.85 150.749C252.694 156.112 257.794 156.749 264.619 157.499C251.063 169.349 253.069 194.231 272.419 197.118C270.882 203.906 270.019 223.049 271.482 229.462C225.957 226.293 239.157 231.337 236.569 265.331C231.282 267.412 210.957 264.056 206.157 266.156C206.719 244.012 206.288 233.212 202.407 231.562C196.782 229.199 171.619 228.806 167.344 231.562C165.3 232.912 164.475 238.443 164.963 285.937C165.169 305.812 165.319 331.162 167.475 335.774C177.732 346.612 285.507 338.137 313.969 341.006C348.338 338.849 348.525 349.462 345.525 302.399C348.807 295.218 347.644 217.799 347.082 197.868C352.107 201.468 364.463 207.374 365.644 198.262C365.625 194.137 361.875 178.124 359.719 168.562ZM345.638 142.499C339.14 143.631 332.541 144.077 325.95 143.831C329.269 143.081 330.882 138.037 326.4 139.312C322.65 141.899 314.925 145.124 305.625 147.918C307.125 139.631 304.894 127.031 297.957 120.131C299.832 118.949 303.844 118.143 302.513 115.406C302.237 115.018 301.823 114.75 301.357 114.656C300.89 114.562 300.405 114.649 300 114.899C292.969 119.549 278.419 122.699 267.863 123.637C264.938 123.506 263.044 118.987 259.257 119.549C259.035 117.122 259.264 114.675 259.932 112.331C279.6 121.349 316.8 113.662 326.944 100.499C337.819 109.631 344.325 126.974 345.638 142.499ZM272.888 41.6243C319.05 24.2056 318.319 60.6555 332.888 60.5993C323.513 84.9743 294.994 74.2868 273.844 63.0743C262.5 57.0555 263.925 49.4431 272.888 41.6243ZM263.513 48.0181C261.638 52.3118 260.738 56.5868 263.007 60.3368C258.651 62.0571 254.986 65.1684 252.582 69.1868C253.579 61.0715 257.419 53.5718 263.419 48.0181H263.513ZM252.038 81.768C258.488 51.4305 272.963 68.343 290.419 74.5868C288.807 75.243 284.7 76.4618 286.219 79.0493C286.512 79.4237 286.937 79.6727 287.407 79.7458C287.877 79.8189 288.357 79.7107 288.75 79.443C294.375 76.818 298.125 76.7243 301.257 77.6805C314.794 81.7118 327.019 72.0555 328.932 79.5555C332.025 88.368 332.1 94.2555 323.4 98.3055C316.294 107.568 299.888 112.331 278.532 112.424C254.55 112.499 251.532 99.1306 251.944 81.8055L252.038 81.768ZM92.4942 149.268C108.45 153.318 126.769 167.118 112.819 182.099C109.932 173.287 107.494 165.393 91.1817 156.881C92.1267 154.498 92.5425 151.939 92.4005 149.381L92.4942 149.268ZM108.019 178.931C125.494 222.637 55.5192 233.699 37.7067 215.662C51.4505 211.293 38.7192 184.218 45.6005 175.574C65.063 180.581 82.8005 172.124 89.6255 160.162C97.9369 163.853 104.496 170.62 107.925 179.043L108.019 178.931ZM14.2692 200.624C9.31922 189.637 17.1005 177.187 27.3942 166.743C25.5192 151.087 65.0255 119.868 83.0255 138.412C102 157.893 70.5005 180.131 45.5255 171.824C42.6992 170.867 40.1324 169.269 38.0255 167.156C30.3567 165.581 38.9255 173.699 42.0192 174.281C36.3942 182.156 43.8942 203.437 38.7755 210.937C29.363 215.793 17.0442 208.912 14.1567 200.737L14.2692 200.624ZM21.2442 260.193V256.443C29.5317 251.081 46.5942 250.312 60.6192 255.074C66.038 256.218 70.4255 260.699 75.2255 257.212C77.9817 254.474 80.8505 253.912 81.713 254.549C82.988 255.393 80.6067 258.693 81.713 260.174C85.463 263.737 89.7942 264.224 89.3067 269.868C78.3755 266.662 78.0567 272.774 88.7817 273.468C88.2426 275.446 87.3674 277.317 86.1942 278.999C80.9817 277.574 76.8192 277.331 76.8192 278.324C76.6692 280.443 80.2317 281.362 83.3067 282.262C77.5505 290.718 57.6942 285.806 42.9192 279.374C31.538 274.837 22.5005 267.787 21.1317 260.306L21.2442 260.193ZM89.7005 335.849C75.3567 335.962 46.5755 337.012 38.1942 335.699C37.7858 334.718 37.5694 333.668 37.5567 332.606C43.4817 329.531 91.163 318.018 89.588 335.962L89.7005 335.849ZM93.6942 335.849C94.6692 332.437 92.9067 329.249 90.0755 326.906C98.6255 324.281 116.832 322.912 130.557 327.937C153.75 340.724 102.788 334.706 93.5817 335.943L93.6942 335.849ZM128.082 323.362C115.193 320.074 101.676 320.138 88.8192 323.549C90.4317 319.593 96.8817 285.506 89.0817 295.031C89.7005 303.168 87.3942 315.562 84.8255 324.374C69.113 320.287 48.9567 324.374 37.4255 328.781C37.8211 313.449 39.4956 298.177 42.4317 283.124C61.913 289.049 79.6505 296.718 90.113 279.187C99.488 278.531 114.694 276.824 122.925 272.643C124.332 284.774 126.6 313.368 127.969 323.456L128.082 323.362ZM126.413 240.731C128.063 232.462 127.707 227.118 114.769 216.149C114.395 215.968 113.97 215.917 113.563 216.004C113.156 216.09 112.789 216.31 112.521 216.628C112.252 216.946 112.097 217.344 112.08 217.76C112.063 218.175 112.184 218.585 112.425 218.924C133.913 236.456 115.482 245.324 122.588 268.631C117.507 271.706 106.294 274.143 91.838 275.287C94.1817 268.499 91.7255 260.962 84.9192 258.824C87.6567 248.474 78.1505 249.149 72.5067 254.756C68.1942 255.093 66.3192 252.881 61.5942 251.756C63.393 248.153 65.7894 244.882 68.6817 242.081C70.0505 232.537 58.7255 247.574 58.1067 250.668C44.6817 247.199 30.4505 247.856 21.5067 252.243C22.7817 241.537 27.8817 228.093 37.988 221.343C58.088 232.387 103.613 228.843 112.519 203.006C116.813 214.724 129.919 225.374 139.182 229.912C135.078 233.768 130.779 237.41 126.3 240.824L126.413 240.731ZM160.313 201.356C157.275 209.737 151.275 217.874 141.975 227.231C130.95 222.393 115.444 208.349 114.788 196.293C120.582 190.162 131.213 186.393 131.663 178.068C131.438 174.599 131.457 171.656 132.207 171.187C132.957 170.718 135.694 171.787 136.575 172.181C141.6 174.468 147.825 167.137 148.819 168.656C149.813 170.174 150.975 171.206 151.857 172.199C143.213 178.856 147.094 183.562 154.238 174.956C156.113 177.056 157.763 178.931 159.282 180.581C150.919 188.924 154.538 194.324 161.663 183.431C165.094 189.243 162.282 196.237 160.2 201.431L160.313 201.356ZM248.044 174.768C248.044 177.374 240.544 186.018 231.994 192.168C226.632 195.918 223.857 196.556 223.088 196.293C218.007 192.393 204.957 169.068 200.269 170.756C195.619 170.006 179.775 189.224 174.394 190.274C163.538 182.362 134.269 146.343 132.225 140.099C133.125 134.999 150.657 120.806 156.225 120.806C161.532 121.499 172.182 144.806 177.263 144.749C185.475 146.624 196.688 125.193 204.375 125.343C208.744 125.812 245.813 166.874 247.932 174.843L248.044 174.768ZM247.069 147.374C242.859 148.501 238.59 149.396 234.282 150.056C227.789 142.381 220.905 135.046 213.657 128.081C217.95 124.574 219.132 126.618 221.157 118.481C221.607 116.737 223.913 116.924 226.107 118.987C228.975 121.574 231.019 121.312 234.863 120.618C241.688 119.381 250.444 115.481 256.05 113.418C255.62 115.966 255.576 118.564 255.919 121.124C254.936 122.537 254.383 124.204 254.325 125.924C251.777 125.949 249.34 126.972 247.538 128.774C245.736 130.576 244.712 133.013 244.688 135.562C244.446 139.651 245.226 143.736 246.957 147.449L247.069 147.374ZM255 151.556C253.409 150.535 252.115 149.112 251.25 147.431C253.238 147.431 257.269 148.743 257.382 145.724C257.335 145.26 257.117 144.83 256.77 144.518C256.424 144.206 255.973 144.034 255.507 144.037C253.467 144.109 251.427 143.888 249.45 143.381C248.876 141.708 248.517 139.969 248.382 138.206C250.744 138.674 255.6 140.531 256.2 137.231C256.2 136.733 256.003 136.256 255.651 135.905C255.3 135.553 254.823 135.356 254.325 135.356C252.398 135.445 250.475 135.099 248.7 134.343C249.225 127.912 258.225 131.774 258.075 125.793C258.357 123.806 258.6 123.299 259.444 123.112C262.35 122.981 264.394 127.856 268.369 127.162C277.263 126.377 286.024 124.487 294.45 121.537C301.95 127.593 304.032 141.562 301.819 148.931C286.482 152.681 268.725 157.124 255 151.556ZM264.375 189.374C252.769 177.656 262.969 154.331 280.557 156.881C267.938 168.487 267.094 186.693 282.769 193.893C276.188 194.381 268.613 193.856 264.375 189.374ZM206.119 269.999C207.807 268.499 217.369 269.006 222.488 269.287C226.672 269.658 230.879 269.696 235.069 269.399C239.869 268.781 240.15 267.018 240.469 264.018C241.388 255.637 239.438 237.393 241.088 234.112C245.213 230.737 268.407 232.612 276.825 233.081C283.182 233.418 302.569 231.806 307.688 234.074C308.869 236.362 308.944 250.049 307.932 265.949C266.438 265.031 272.719 257.793 271.557 300.074C257.269 300.974 213.919 302.643 206.457 299.324C205.069 297.074 205.894 276.787 206.1 269.999H206.119ZM228.038 337.124C202.332 337.406 173.175 337.724 170.85 334.424C167.813 320.287 167.607 249.618 169.613 234.449C173.363 232.856 195.863 232.687 200.925 234.768C204.507 237.881 201.919 281.193 201.694 290.099C201.338 304.499 202.125 303.862 212.175 304.293C217.5 304.537 226.238 304.293 237.094 304.743C235.725 306.618 235.219 329.212 237.244 337.031L228.038 337.124ZM340.969 335.924C327.338 338.868 267.113 336.318 241.425 336.993C240.244 336.993 239.944 330.618 239.757 326.812C238.8 307.706 240.657 305.081 240.938 304.799C246.563 302.924 270.375 306.206 273.788 302.924C276.994 304.256 274.632 273.168 276.019 269.774C282.169 267.337 299.869 269.549 307.275 269.456C310.932 310.706 298.332 301.724 341.963 303.018C343.894 319.874 343.463 334.781 340.95 335.999L340.969 335.924ZM344.044 207.393C342.713 228.806 345.45 283.518 342.919 299.531C336.244 298.293 318.544 300.168 311.963 299.062C307.725 226.349 328.5 228.599 276.957 229.481C271.875 228.243 275.513 214.968 274.819 210.224C274.969 205.218 275.194 198.337 276.15 197.493C289.575 196.537 311.775 197.849 322.538 197.343C329.292 197.043 336.058 197.093 342.807 197.493C343.125 197.606 344.363 198.431 344.025 207.468L344.044 207.393ZM346.519 194.118C325.782 192.468 318.263 194.999 295.894 193.331C270.938 192.224 268.088 168.956 287.494 155.831C298.283 153.964 308.856 151.012 319.05 147.018C328.004 147.827 337.023 147.519 345.9 146.099C346 148.935 345.887 151.774 345.563 154.593C345.957 154.818 305.532 156.749 317.007 161.849C326.869 160.106 335.757 159.093 341.869 158.531C345.488 168.374 346.632 184.593 346.5 194.193L346.519 194.118ZM360.825 199.237C356.885 199.278 353.07 197.855 350.119 195.243C350.344 185.868 349.294 168.993 345.582 158.174C348.507 158.174 352.013 156.862 353.382 160.049C355.257 165.299 365.307 197.549 360.807 199.312L360.825 199.237Z" fill="black"/>
<path d="M321.864 92.3243C325.614 95.8868 330.264 88.3305 325.464 86.118C321.995 84.5243 318.864 89.5305 321.864 92.3243Z" fill="black"/>
<path d="M292.914 94.3678C300.414 99.9928 318.732 92.3428 308.382 81.2428C300.001 77.5303 280.989 83.2116 292.914 94.3678ZM301.37 83.7928C303.229 83.7074 305.088 83.9486 306.864 84.5053C308.139 84.9366 308.87 91.8741 304.651 91.8178C302.917 88.7959 300.604 86.1453 297.845 84.0178C299.014 83.87 300.191 83.7948 301.37 83.7928Z" fill="black"/>
<path d="M279.788 96.7495C280.2 96.7699 280.608 96.6535 280.948 96.4184C281.287 96.1832 281.54 95.8426 281.666 95.4493C281.792 95.056 281.785 94.6321 281.645 94.2433C281.505 93.8546 281.241 93.5228 280.894 93.2995C280.636 93.258 280.402 93.1216 280.239 92.917C280.076 92.7124 279.995 92.4543 280.013 92.1933C280.2 90.4308 281.738 87.8058 283.763 90.1495C290.269 92.6808 285.45 83.3808 280.538 85.9495C276.132 87.4683 274.444 95.062 279.788 96.7495Z" fill="black"/>
<path d="M88.1267 210.58C87.4468 211.254 86.6154 211.756 85.7021 212.043C84.7887 212.33 83.82 212.394 82.8767 212.23C82.4773 212.303 82.112 212.502 81.8358 212.8C81.5596 213.097 81.3874 213.477 81.3452 213.88C81.3029 214.284 81.3928 214.691 81.6013 215.039C81.8099 215.387 82.1259 215.658 82.5017 215.812C85.483 216.393 92.983 214.48 90.7892 210.543C90.6125 210.37 90.4031 210.233 90.1733 210.141C89.9435 210.049 89.6977 210.004 89.4502 210.007C89.2026 210.011 88.9583 210.063 88.7311 210.161C88.504 210.26 88.2986 210.402 88.1267 210.58Z" fill="black"/>
<path d="M91.9693 200.418C88.7818 199.799 89.6818 204.749 84.2631 202.78C81.4131 202.78 79.8756 207.111 76.2006 206.774C74.1756 207.486 72.4506 204.036 70.5756 205.611C68.3631 212.624 81.8256 210.805 84.3756 206.568C87.6943 207.974 95.9068 204.168 91.9693 200.418Z" fill="black"/>
<path d="M264.208 96.3555C280.82 94.6867 275.458 75.7305 257.458 81.918C249.376 86.2492 254.195 97.3492 264.208 96.3555ZM263.795 84.693C267.095 84.693 269.308 84.8618 270.02 86.7555C270.733 88.6493 270.451 92.193 267.526 92.3805C265.855 89.4834 263.639 86.9366 261.001 84.8805C261.926 84.7447 262.86 84.682 263.795 84.693Z" fill="black"/>
<path d="M84.0192 176.25C87.3379 176.962 88.3129 170.625 92.9629 170.343C93.3365 170.165 93.6406 169.868 93.8278 169.499C94.015 169.13 94.0747 168.709 93.9976 168.302C93.9205 167.895 93.711 167.526 93.4018 167.25C93.0925 166.975 92.7008 166.81 92.2879 166.781C87.6379 167.868 80.8504 172.968 84.0192 176.25Z" fill="black"/>
<path d="M274.369 144.862C290.738 155.474 304.913 144.337 290.888 137.362C299.532 121.087 275.888 123.056 272.138 140.531C271.953 140.958 271.865 141.422 271.881 141.888C271.896 142.353 272.015 142.81 272.229 143.224C272.442 143.639 272.745 144 273.115 144.284C273.485 144.567 273.914 144.764 274.369 144.862ZM286.482 129.749C293.288 130.162 286.182 135.562 286.482 138.899C286.857 140.981 293.401 141.224 292.744 143.456C289.426 149.493 280.107 143.006 275.644 141.487C278.738 133.124 283.388 129.881 286.482 129.749Z" fill="black"/>
<path d="M95.7945 229.892C95.392 229.765 94.958 229.776 94.563 229.926C94.1679 230.075 93.8349 230.354 93.6179 230.716C93.4009 231.079 93.3126 231.504 93.3674 231.922C93.4221 232.341 93.6167 232.729 93.9195 233.024C105.282 239.699 104.626 241.892 101.42 252.43C101.195 254.305 98.682 257.792 101.42 258.842C104.251 259.424 104.045 255.092 104.87 253.48C108.413 241.986 108.938 237.617 95.7945 229.892Z" fill="black"/>
<path d="M87.7888 180C84.2076 191.25 100.914 197.362 105.92 187.5C112.183 175.5 91.7638 168.037 87.7888 180ZM91.2201 181.125C91.4193 180.531 91.7242 179.979 92.1201 179.493C95.431 181.929 99.1619 183.734 103.126 184.818C101.251 192.093 88.8764 188.606 91.2201 181.068V181.125Z" fill="black"/>
<path d="M73.5012 194.081C76.7824 193.706 74.0824 187.762 77.7012 187.012C80.5512 185.006 82.5949 190.762 85.3324 189.262C88.1262 184.518 78.1137 181.874 76.2949 183.749C72.9387 184.574 68.9637 192.374 73.5012 194.081Z" fill="black"/>
<path d="M84.1875 195.243C81.2625 194.662 72 199.481 77.6062 201.787C79.8187 201.037 81.5437 198.506 84.225 198.862C84.6211 198.75 84.9694 198.511 85.2161 198.181C85.4627 197.852 85.594 197.45 85.5898 197.038C85.5855 196.627 85.4459 196.228 85.1925 195.904C84.939 195.579 84.5858 195.347 84.1875 195.243Z" fill="black"/>
<path d="M52.1637 184.443C54.5825 183.543 57.7887 181.555 61.3512 182.736C61.7583 182.75 62.1587 182.63 62.4918 182.396C62.825 182.162 63.0728 181.825 63.1978 181.438C63.3227 181.05 63.3181 180.632 63.1845 180.248C63.051 179.863 62.7958 179.532 62.4575 179.305C58.1262 177.318 45.7137 181.311 52.1637 184.443Z" fill="black"/>
<path d="M56.8512 185.155C43.8949 187.443 47.6262 206.38 59.4762 205.405C74.1012 205.293 72.0574 181.555 56.8512 185.155ZM54.5074 190.049C57.8101 192.933 61.6809 195.092 65.8699 196.387C62.6262 208.743 45.7512 197.587 54.5074 190.049Z" fill="black"/>
</svg>
