<svg width="801" height="320" viewBox="0 0 801 320" fill="none" xmlns="http://www.w3.org/2000/svg">
<path d="M31.553 228.383C27.5462 229.185 22.7382 228.684 17.1288 226.881C11.7197 224.877 7.41245 222.573 4.20707 219.969C8.21379 220.37 12.9217 219.769 18.3308 218.166C23.9402 216.363 28.3476 214.159 31.553 211.555C29.3493 209.351 26.0437 207.047 21.6363 204.643C17.4293 202.039 13.723 200.737 10.5177 200.737C12.1203 198.533 14.7247 196.43 18.3308 194.426C22.1372 192.423 25.5429 191.121 28.5479 190.52C23.9402 190.72 18.8316 190.119 13.2222 188.717C7.81312 187.314 3.40572 185.311 8.18669e-06 182.707C4.60774 183.909 10.0168 183.808 16.2272 182.406C22.638 180.803 27.7466 178.6 31.553 175.795C29.1489 172.99 25.3425 170.386 20.1338 167.982C15.1254 165.578 10.8182 164.576 7.21211 164.977C9.81648 162.372 13.6229 159.968 18.6313 157.765C23.6397 155.361 27.9469 154.159 31.553 154.159C27.5462 151.955 22.4377 150.653 16.2272 150.252C10.2172 149.651 5.00841 149.952 0.601017 151.154C4.4074 148.549 9.41581 147.047 15.6262 146.646C21.8367 146.245 27.1456 146.746 31.553 148.149C28.7483 145.144 24.5412 142.539 18.9318 140.335C13.3224 138.132 8.5143 137.13 4.50757 137.33C7.51262 134.526 11.7197 131.921 17.1288 129.517C22.7382 127.113 27.5462 126.112 31.553 126.512C29.3493 124.309 26.1439 122.506 21.9368 121.103C17.7298 119.501 14.1237 118.9 11.1187 119.3C13.3224 117.096 16.5277 115.293 20.7348 113.891C24.9419 112.288 28.5479 111.687 31.553 112.088C27.7466 109.684 22.8383 107.981 16.8282 106.98C11.0185 105.978 5.90993 106.078 1.50253 107.28C3.50589 105.878 6.01009 104.776 9.01514 103.974C11.8198 102.973 14.7247 102.272 17.7298 101.871C11.1187 100.469 5.80976 98.2649 1.80303 95.2598C6.21043 96.2615 11.319 96.0612 17.1288 94.6588C23.1388 93.0561 27.9469 90.8524 31.553 88.0477C28.9486 88.2481 25.7432 87.7472 21.9368 86.5452C18.1304 85.3432 15.3257 83.7405 13.5227 81.7371C16.3274 81.7371 19.5328 81.1361 23.1388 79.9341C26.7449 78.5318 29.5496 76.9291 31.553 75.126C28.3476 75.126 24.5412 74.525 20.1338 73.323C15.7264 71.9207 12.4209 70.1176 10.2172 67.9139C13.4225 68.5149 17.2289 68.0141 21.6363 66.4114C26.0437 64.8087 29.3493 62.9055 31.553 60.7018C26.9452 61.5032 21.436 60.9022 15.0252 58.8988C8.8148 56.8954 4.00673 54.2911 0.601017 51.0857C5.20875 51.6867 10.6178 51.0857 16.8282 49.2827C23.239 47.2793 28.1472 44.6749 31.553 41.4696C29.3493 37.6632 25.7432 34.3576 20.7348 31.5529C15.9267 28.5479 11.4192 26.5445 7.21211 25.5428C11.6195 25.3425 16.5277 26.1438 21.9368 27.9469C27.3459 29.5496 31.6531 31.7533 34.8585 34.558C33.6565 29.7499 33.8568 24.0403 35.4595 17.4292C37.0622 10.8181 39.4662 5.70955 42.6716 2.1035C41.6699 6.91156 41.9704 12.6211 43.5731 19.2323C45.1758 25.643 47.4797 30.7516 50.4847 34.558C49.483 29.9502 49.5832 24.5412 50.7852 18.3307C51.9873 12.1203 53.8904 7.01174 56.4948 3.00502C55.0925 7.61275 55.0925 13.0218 56.4948 19.2323C57.8972 25.4427 59.9005 30.5512 62.5049 34.558C62.5049 31.3526 63.7069 27.446 66.111 22.8383C68.7153 18.0302 71.3197 14.6245 73.9241 12.6212C73.9241 15.8265 75.1261 19.8332 77.5301 24.6413C80.1345 29.249 82.7389 32.5546 85.3432 34.558C87.9476 31.5529 89.8508 27.446 91.0528 22.2373C92.2548 16.8282 92.355 12.2205 91.3533 8.4141C93.9577 11.4191 95.7607 15.6262 96.7624 21.0353C97.9644 26.244 98.1647 30.7516 97.3634 34.558C100.168 31.3526 102.171 26.9452 103.373 21.3358C104.576 15.526 104.776 10.5176 103.974 6.31056C105.978 8.7146 107.581 12.0201 108.783 16.2272C109.985 20.2339 110.686 24.2407 110.886 28.2474C111.287 25.643 111.888 23.239 112.689 21.0353C113.691 18.6312 114.793 16.6279 115.995 15.0252C115.594 18.0302 115.894 21.4359 116.896 25.2423C118.098 29.0487 119.601 32.1539 121.404 34.558C121.203 31.9536 121.604 28.8484 122.606 25.2423C123.607 21.4359 125.01 18.5311 126.813 16.5277C126.212 19.1321 126.412 22.3375 127.414 26.1439C128.616 29.9502 130.219 32.7549 132.222 34.558C130.82 29.5496 130.719 23.6396 131.921 16.8282C133.324 10.0168 135.427 4.40736 138.232 -2.27154e-05C136.83 5.00838 136.83 10.9183 138.232 17.7297C139.634 24.5412 141.638 30.1506 144.242 34.558C146.045 32.3543 147.447 29.3492 148.449 25.5428C149.451 21.7364 149.851 18.4309 149.651 15.6262C151.254 17.4292 152.456 19.8333 153.257 22.8383C154.259 25.8433 154.86 28.7482 155.06 31.5529C155.261 27.5462 156.162 23.3391 157.765 18.9317C159.367 14.324 161.271 10.718 163.474 8.1136C163.274 12.1203 163.975 16.8282 165.578 22.2373C167.381 27.446 169.484 31.5529 171.888 34.558C174.894 34.1573 178.299 32.5546 182.106 29.7499C185.912 26.7449 188.617 23.9401 190.219 21.3358C191.421 24.3408 191.521 28.1472 190.52 32.7549C189.718 37.3627 188.617 41.0689 187.214 43.8736C192.022 43.4729 197.732 44.1741 204.343 45.9771C210.954 47.5798 216.063 50.084 219.669 53.4897C214.861 52.8887 209.151 53.5899 202.54 55.5933C195.929 57.3963 190.82 59.9005 187.214 63.1059C192.223 62.1042 198.132 62.605 204.944 64.6084C211.956 66.4114 217.465 68.9156 221.472 72.121C216.463 70.919 210.453 71.3197 203.441 73.323C196.43 75.126 191.021 77.7304 187.214 81.1361C185.611 83.9408 184.409 87.6471 183.608 92.2548C183.007 96.6622 183.107 100.368 183.909 103.373C181.505 101.771 179.101 99.2666 176.697 95.8608C174.493 92.2548 172.99 88.9492 172.189 85.9442C172.99 89.3499 172.89 93.2565 171.888 97.6639C171.087 102.071 169.685 105.677 167.681 108.482C168.683 104.876 168.683 100.769 167.681 96.1613C166.88 91.3533 165.478 87.4467 163.474 84.4417C163.274 86.445 162.473 88.8491 161.07 91.6538C159.868 94.2581 158.466 96.6622 156.863 98.8659C159.067 101.07 161.17 104.275 163.174 108.482C165.177 112.489 166.079 115.894 165.878 118.699C168.282 117.898 170.787 116.295 173.391 113.891C176.196 111.287 178.099 108.883 179.101 106.679C180.303 108.682 181.104 111.587 181.505 115.394C182.106 119.2 182.005 122.205 181.204 124.409C183.808 127.013 187.615 129.217 192.623 131.02C197.632 132.823 201.939 133.424 205.545 132.823C202.74 135.227 198.834 137.33 193.825 139.133C189.017 140.936 184.81 141.638 181.204 141.237C183.408 143.641 186.413 145.745 190.219 147.548C194.226 149.15 198.333 150.452 202.54 151.454C206.947 152.255 210.754 152.556 213.959 152.356C210.553 155.962 205.445 158.867 198.633 161.07C191.822 163.274 186.012 164.175 181.204 163.775C182.406 167.181 182.406 171.588 181.204 176.997C180.002 182.406 178.399 186.713 176.396 189.919C175.995 186.313 174.092 182.306 170.686 177.899C167.481 173.491 164.276 170.286 161.07 168.282C158.666 170.286 156.162 173.591 153.558 178.199C150.953 182.807 149.751 186.713 149.952 189.919C147.347 187.915 144.743 184.61 142.139 180.002C139.735 175.394 138.532 171.488 138.532 168.282C136.329 172.289 134.826 177.197 134.025 183.007C133.224 188.817 133.324 193.925 134.325 198.333C132.122 194.326 130.519 189.418 129.517 183.608C128.716 177.798 128.916 172.69 130.118 168.282C128.516 171.087 127.314 174.593 126.512 178.8C125.711 183.007 125.511 186.914 125.911 190.52C126.112 191.922 126.312 193.224 126.512 194.426C125.911 193.224 125.31 191.822 124.709 190.219C122.305 189.618 119.601 189.418 116.596 189.618C116.195 193.625 116.295 197.231 116.896 200.436C115.093 197.431 113.591 193.925 112.389 189.919C109.985 190.119 107.581 190.52 105.177 191.121C104.776 191.922 104.375 192.623 103.974 193.224C103.974 192.824 103.974 192.323 103.974 191.722C99.3668 193.124 95.7607 194.927 93.1563 197.131C96.5621 196.93 100.569 197.632 105.177 199.234C109.784 200.637 113.29 202.54 115.694 204.944C112.288 204.744 108.182 205.445 103.373 207.047C98.7657 208.45 95.36 210.353 93.1563 212.757C96.3617 212.557 100.168 213.458 104.576 215.462C109.183 217.265 112.489 219.368 114.492 221.772C111.287 221.972 107.38 222.974 102.772 224.777C98.3651 226.38 95.1597 228.383 93.1563 230.787C91.5536 234.193 90.9526 238.4 91.3533 243.408C91.754 248.617 92.6555 252.924 94.0579 256.33C91.2531 253.926 88.8491 250.32 86.8457 245.512C84.8424 240.904 83.8407 236.697 83.8407 232.891C81.637 234.493 79.4333 237.198 77.2296 241.004C75.2262 245.011 74.2246 248.417 74.2246 251.222C72.2212 249.419 70.2178 246.614 68.2145 242.807C66.2111 239.001 65.0091 235.695 64.6084 232.891C62.8054 235.495 61.6034 239.001 61.0024 243.408C60.6017 247.816 60.9022 251.622 61.9039 254.828C60.3012 252.624 59.1994 249.819 58.5983 246.413C57.9973 249.218 57.0958 251.522 55.8938 253.325C56.8955 250.52 56.9957 247.014 56.1943 242.807C55.5933 238.801 54.4915 235.495 52.8888 232.891C50.0841 236.096 48.1809 240.504 47.1792 246.113C46.1775 251.722 46.0773 256.53 46.8787 260.537C44.2743 257.332 42.2709 252.924 40.8686 247.315C39.6666 241.706 39.6666 236.898 40.8686 232.891C38.8652 236.697 37.3627 241.405 36.361 247.014C35.5597 252.624 35.8602 257.432 37.2625 261.439C35.2592 257.632 33.6565 252.724 32.4545 246.714C31.4528 240.704 31.1523 234.594 31.553 228.383ZM121.704 84.4417C120.703 85.844 119.701 87.5469 118.699 89.5503C119.901 90.1513 121.103 90.7523 122.305 91.3533C121.504 88.7489 121.304 86.445 121.704 84.4417ZM123.507 99.4669C123.107 102.272 123.607 105.677 125.01 109.684C126.612 113.49 128.315 116.495 130.118 118.699C129.918 116.295 130.319 113.49 131.32 110.285C132.322 106.879 133.524 103.874 134.926 101.27C135.127 98.8659 134.626 95.961 133.424 92.5553C132.222 89.1496 130.719 86.445 128.916 84.4417C127.113 86.6454 125.911 89.6504 125.31 93.4568C126.512 94.2581 127.514 95.1597 128.315 96.1613C127.314 95.961 126.312 95.7607 125.31 95.5603C125.31 96.3617 125.31 96.9627 125.31 97.3634C124.91 96.7623 124.509 96.1613 124.108 95.5603C121.704 95.36 119.1 95.36 116.295 95.5603C115.694 98.5654 115.594 101.07 115.995 103.073C114.392 101.47 112.99 99.2666 111.788 96.4618C109.183 96.8625 106.579 97.5637 103.974 98.5654C103.373 99.3667 102.772 100.068 102.171 100.669C102.171 100.068 102.071 99.5671 101.871 99.1664C98.4652 100.368 95.5604 101.771 93.1563 103.373C94.5587 104.575 96.3617 105.577 98.5654 106.378C99.3668 105.577 100.168 104.876 100.969 104.275C100.769 105.076 100.569 106.078 100.368 107.28C101.971 107.881 103.574 108.382 105.177 108.783C106.579 106.579 107.981 104.876 109.384 103.674C109.384 105.477 109.884 107.48 110.886 109.684C113.691 110.085 116.195 110.185 118.399 109.985C119.801 105.377 121.504 101.871 123.507 99.4669ZM140.937 84.4417C141.337 86.445 141.137 88.7489 140.336 91.3533C139.734 93.7573 138.933 96.0612 137.931 98.2649C137.731 101.27 138.432 104.876 140.035 109.083C141.838 113.09 143.741 116.295 145.745 118.699C147.748 116.896 149.651 114.192 151.454 110.586C153.458 106.979 154.76 103.674 155.361 100.669C154.359 101.871 153.357 102.873 152.356 103.674C151.755 100.869 150.252 97.4635 147.848 93.4568C145.444 89.2497 143.14 86.2447 140.937 84.4417ZM109.684 85.9442C109.684 85.3432 109.684 85.243 109.684 85.6437V85.9442ZM116.896 118.699C116.896 116.495 117.297 113.991 118.098 111.187C116.496 112.188 114.793 112.99 112.99 113.591C114.392 115.995 115.694 117.697 116.896 118.699ZM101.57 118.699C101.57 118.098 101.671 117.397 101.871 116.596H100.669C100.869 117.397 101.17 118.098 101.57 118.699ZM120.202 181.805C119.4 182.406 118.399 182.907 117.197 183.308C116.996 184.109 116.896 184.91 116.896 185.712C119.701 186.914 122.205 188.216 124.409 189.618C123.207 186.212 122.405 182.606 122.005 178.8C121.604 174.793 121.905 171.287 122.906 168.282C120.502 171.488 118.699 175.795 117.497 181.204C118.499 181.605 119.4 181.805 120.202 181.805ZM109.985 178.5V178.199C109.985 178.399 109.985 178.5 109.985 178.5ZM284.178 238.3C283.377 239.302 282.476 241.305 281.474 244.31C280.472 247.315 279.471 250.621 278.469 254.227C277.467 258.033 276.666 261.439 276.065 264.444C275.664 267.649 275.564 269.853 275.764 271.055C275.364 269.853 274.963 267.649 274.562 264.444C274.362 261.439 274.262 258.033 274.262 254.227C274.262 250.42 274.362 246.914 274.562 243.709C274.763 240.504 275.163 238.3 275.764 237.098C273.561 238.901 271.357 241.505 269.153 244.911C267.15 248.517 265.848 251.722 265.247 254.527C263.444 252.323 262.342 249.118 261.941 244.911C261.54 240.704 261.841 237.198 262.843 234.393C262.041 236.597 260.338 238.901 257.734 241.305C255.33 243.909 253.126 245.712 251.123 246.714C252.125 244.711 252.425 241.906 252.024 238.3C251.824 234.694 251.223 231.889 250.221 229.886C247.016 230.887 243.61 233.091 240.004 236.497C236.599 239.903 234.395 243.308 233.393 246.714C232.792 243.308 233.193 239.402 234.595 234.994C235.998 230.387 237.6 226.881 239.403 224.477C237.2 227.482 233.794 230.086 229.186 232.29C224.779 234.293 220.872 235.495 217.467 235.896C220.472 233.692 223.076 230.286 225.28 225.679C227.483 220.871 228.585 216.563 228.585 212.757C224.378 212.957 219.67 214.46 214.461 217.265C209.253 220.069 205.446 223.275 203.042 226.881C205.847 221.472 210.154 216.764 215.964 212.757C211.356 214.159 207.55 214.56 204.545 213.959C207.55 212.957 210.755 211.154 214.161 208.55C217.767 205.946 220.171 203.241 221.373 200.436C218.969 198.633 215.363 197.131 210.555 195.929C205.947 194.526 202.141 194.126 199.136 194.727C200.538 192.122 202.942 189.117 206.348 185.712C209.954 182.306 213.159 180.202 215.964 179.401C213.76 176.596 210.054 174.292 204.845 172.489C199.837 170.686 195.53 169.785 191.924 169.785C194.328 166.98 197.934 164.376 202.742 161.972C207.55 159.568 211.757 158.266 215.363 158.065C212.558 154.86 208.451 151.755 203.042 148.75C197.433 145.745 192.525 144.042 188.318 143.641C191.523 140.836 196.131 138.432 202.141 136.429C208.151 134.426 213.259 133.624 217.467 134.025C216.064 130.82 213.259 127.614 209.052 124.409C205.046 121.203 201.239 119.1 197.633 118.098C200.839 116.696 204.745 115.995 209.353 115.995C214.161 115.794 218.268 116.295 221.674 117.497C219.871 116.696 218.068 115.494 216.264 113.891C214.461 112.088 213.259 110.285 212.658 108.482C214.061 110.085 216.164 111.287 218.969 112.088C221.774 112.889 224.178 113.29 226.181 113.29C223.977 111.287 221.674 108.482 219.27 104.876C217.066 101.07 215.864 97.6639 215.663 94.6588C217.667 96.8625 220.772 98.6655 224.979 100.068C229.186 101.47 232.792 102.171 235.797 102.171C236.398 98.9661 235.797 95.1597 233.994 90.7523C232.191 86.3449 230.188 82.839 227.984 80.2346C231.19 81.2363 234.695 83.1395 238.502 85.9442C242.308 88.7489 244.913 91.6538 246.315 94.6588C247.517 90.2514 247.417 85.0427 246.014 79.0326C244.812 73.0225 242.809 68.3146 240.004 64.9089C244.011 66.7119 247.817 70.1176 251.423 75.126C255.03 80.1344 257.333 84.7422 258.335 88.9492C259.737 85.5435 260.038 81.3365 259.237 76.3281C258.636 71.3197 257.434 67.1126 255.631 63.7069C258.636 66.1109 261.24 69.5166 263.444 73.924C265.848 78.3314 267.25 82.4383 267.651 86.2447C269.454 84.8423 271.357 82.3381 273.36 78.7321C275.564 74.9257 276.666 71.9207 276.666 69.717C278.87 70.5183 281.474 72.4215 284.479 75.4265C287.484 78.2313 289.387 80.7355 290.189 82.9391C289.988 80.1344 290.489 76.7287 291.691 72.722C292.893 68.7153 294.496 65.7102 296.499 63.7069C296.499 66.5116 297.2 69.8171 298.603 73.6235C300.005 77.4299 301.608 80.435 303.411 82.6386C302.81 79.6336 303.21 76.1277 304.613 72.121C306.015 68.1143 307.618 64.9089 309.421 62.5049C308.419 65.5099 308.319 69.116 309.12 73.323C310.122 77.3297 311.424 80.6353 313.027 83.2397C315.631 82.0376 318.236 79.5334 320.84 75.727C323.444 71.7203 325.147 68.3146 325.949 65.5099C327.752 67.7136 329.254 71.0191 330.456 75.4265C331.858 79.8339 332.459 83.44 332.259 86.2447C334.263 85.0427 336.166 83.0393 337.969 80.2346C339.772 77.2296 340.773 74.4249 340.974 71.8205C341.975 74.0242 342.376 76.8289 342.176 80.2346C341.975 83.6403 341.374 86.445 340.373 88.6487C342.176 88.2481 344.279 87.1462 346.683 85.3432C349.087 83.3398 350.69 81.5368 351.491 79.9341C352.493 81.5368 353.094 83.9408 353.294 87.1462C353.495 90.1513 353.194 92.4551 352.393 94.0578C353.996 92.2548 356.6 90.5519 360.206 88.9492C364.012 87.3466 367.118 86.6454 369.522 86.8457C368.119 88.8491 367.118 91.8541 366.517 95.8608C366.116 99.6672 366.216 102.772 366.817 105.176C370.624 106.178 375.331 106.178 380.941 105.176C386.751 103.974 391.258 102.272 394.464 100.068C394.063 104.075 392.16 108.482 388.754 113.29C385.348 118.098 382.043 121.504 378.837 123.507C382.243 124.91 386.45 125.41 391.458 125.01C396.667 124.409 400.774 123.107 403.779 121.103C401.575 124.108 398.27 127.013 393.863 129.818C389.655 132.422 385.749 133.724 382.143 133.724C384.146 133.724 386.751 134.426 389.956 135.828C393.161 137.03 395.465 138.432 396.868 140.035C394.864 140.636 392.46 141.938 389.655 143.942C387.051 145.945 385.248 147.848 384.246 149.651C387.051 151.454 390.657 152.656 395.065 153.257C399.672 153.858 403.579 153.658 406.784 152.656C404.581 154.259 401.676 155.461 398.07 156.262C402.477 157.064 406.384 158.366 409.789 160.169C406.384 158.766 402.076 158.566 396.868 159.568C391.859 160.369 387.652 161.671 384.246 163.474C385.649 165.678 388.053 168.282 391.458 171.287C395.065 174.292 398.17 176.196 400.774 176.997C398.971 179 396.066 181.204 392.059 183.608C388.053 186.012 384.747 187.314 382.143 187.515C384.747 187.314 387.652 188.015 390.857 189.618C394.063 191.021 396.467 192.723 398.07 194.727C395.866 193.324 392.961 192.523 389.355 192.323C385.949 192.122 383.044 192.523 380.64 193.525C380.841 195.528 381.742 198.233 383.345 201.638C384.948 205.044 386.65 207.348 388.453 208.55C386.851 209.752 384.146 210.754 380.34 211.555C376.533 212.156 373.629 212.256 371.625 211.855C374.23 213.659 376.634 216.563 378.837 220.57C381.241 224.377 382.443 227.882 382.443 231.088C380.44 228.684 377.435 226.48 373.428 224.477C369.422 222.273 365.815 221.271 362.61 221.472C361.608 222.874 360.607 225.478 359.605 229.285C358.603 232.891 358.203 235.595 358.403 237.398C356.6 237.799 353.895 237.398 350.289 236.196C346.683 234.794 344.179 233.592 342.777 232.59C342.176 233.792 341.775 236.096 341.575 239.502C341.374 243.108 341.374 246.914 341.575 250.921C341.775 255.128 341.975 258.934 342.176 262.34C342.576 265.946 342.977 268.35 343.378 269.552C342.376 268.551 340.673 266.247 338.269 262.641C336.066 259.035 333.862 255.128 331.658 250.921C329.655 246.714 328.152 243.208 327.151 240.403C327.752 244.009 327.551 247.916 326.55 252.123C325.548 256.53 324.346 260.237 322.944 263.242C323.344 259.435 322.443 255.028 320.239 250.02C318.236 245.011 315.832 241.105 313.027 238.3C313.027 240.303 312.326 242.607 310.923 245.211C309.721 248.016 308.419 250.02 307.017 251.222C306.816 249.419 305.314 247.115 302.509 244.31C299.705 241.706 293.594 239.702 284.178 238.3ZM304.913 196.229C305.314 194.426 305.114 192.323 304.312 189.919C303.711 187.314 302.91 185.211 301.908 183.608C303.711 183.808 305.715 184.71 307.918 186.313C310.322 187.715 312.025 189.117 313.027 190.52C312.025 188.717 310.322 186.914 307.918 185.111C305.514 183.107 303.311 182.005 301.307 181.805C303.11 180.803 305.514 180.102 308.519 179.702C311.524 179.101 313.928 179.201 315.731 180.002C314.73 178.6 313.127 177.398 310.923 176.396C308.72 175.394 306.816 174.793 305.214 174.593C306.416 173.591 308.119 172.79 310.322 172.189C312.726 171.388 314.73 170.987 316.332 170.987C313.728 170.787 311.524 169.785 309.721 167.982C310.723 167.982 311.925 167.681 313.327 167.08C314.73 166.479 315.832 165.778 316.633 164.977C315.231 165.177 313.628 164.977 311.825 164.376C310.022 163.775 308.619 162.973 307.618 161.972C309.02 161.972 310.623 161.771 312.426 161.371C314.229 160.77 315.631 159.968 316.633 158.967C315.231 158.967 313.628 158.666 311.825 158.065C310.022 157.264 308.72 156.362 307.918 155.361C309.321 155.361 310.823 154.96 312.426 154.159C314.229 153.357 315.531 152.456 316.332 151.454C315.531 150.653 314.229 149.952 312.426 149.351C310.623 148.549 309.12 148.149 307.918 148.149C308.72 147.147 309.922 146.245 311.524 145.444C313.327 144.442 314.83 143.942 316.032 143.942C314.429 142.539 312.025 141.638 308.82 141.237C305.614 140.636 303.11 140.636 301.307 141.237C302.109 139.634 303.811 137.931 306.416 136.128C305.214 136.329 304.112 136.429 303.11 136.429C304.513 135.427 305.715 133.925 306.716 131.921C307.718 129.918 308.219 128.115 308.219 126.512C306.816 127.714 305.514 129.317 304.312 131.32C303.11 133.123 302.209 135.127 301.608 137.33C301.407 140.536 300.806 143.14 299.805 145.144C299.805 145.144 299.805 144.943 299.805 144.543C299.404 143.341 299.003 141.938 298.603 140.335C296.599 141.137 294.095 141.638 291.09 141.838C288.285 141.838 285.881 141.337 283.878 140.335C285.08 141.738 286.783 143.04 288.987 144.242C291.19 145.244 293.194 145.745 294.997 145.745C292.392 147.548 289.387 148.649 285.981 149.05C289.387 149.451 291.992 150.653 293.795 152.656C292.192 152.255 290.289 152.356 288.085 152.957C286.082 153.558 284.379 154.359 282.976 155.361C283.978 156.362 285.38 157.364 287.184 158.366C289.187 159.167 290.89 159.568 292.292 159.568C291.491 160.77 290.088 161.771 288.085 162.573C286.082 163.374 284.379 163.775 282.976 163.775C284.579 163.574 286.382 163.775 288.386 164.376C290.589 164.977 292.292 165.778 293.494 166.78C289.688 166.379 286.282 167.481 283.277 170.085C285.28 169.685 287.684 169.885 290.489 170.686C293.494 171.488 295.798 172.69 297.401 174.292C295.197 174.092 292.693 174.693 289.888 176.095C287.284 177.298 285.28 178.7 283.878 180.303C285.28 179.902 287.083 180.002 289.287 180.603C291.691 181.004 293.494 181.705 294.696 182.707C293.294 182.907 291.691 183.808 289.888 185.411C288.085 187.014 286.883 188.516 286.282 189.919C287.083 189.117 288.386 188.516 290.189 188.116C291.992 187.515 293.294 187.314 294.095 187.515C295.297 183.107 297 179.601 299.204 176.997C297.801 179.601 297.401 182.907 298.002 186.914C298.803 190.72 301.107 193.825 304.913 196.229ZM286.282 132.222C287.284 134.025 289.087 135.728 291.691 137.33C294.295 138.733 296.599 139.634 298.603 140.035C298.402 139.434 298.302 138.833 298.302 138.232C297.501 136.028 296.499 133.925 295.297 131.921C294.095 129.718 292.693 128.015 291.09 126.813C291.491 128.616 292.292 130.719 293.494 133.123C294.896 135.327 296.399 136.83 298.002 137.631C296.199 137.631 293.995 137.13 291.391 136.128C288.987 134.926 287.284 133.624 286.282 132.222ZM293.795 195.929C293.394 194.727 293.294 193.525 293.494 192.323C293.294 193.925 293.394 195.127 293.795 195.929ZM415.079 221.171C413.476 219.969 411.372 218.867 408.768 217.866C406.164 216.864 403.86 216.563 401.856 216.964C403.459 215.762 405.563 214.66 408.167 213.659C410.771 212.657 413.075 212.356 415.079 212.757C412.875 210.353 409.369 208.249 404.561 206.446C399.953 204.643 395.946 203.742 392.541 203.742C394.143 202.139 396.247 200.637 398.851 199.234C401.656 197.832 404.561 196.73 407.566 195.929C404.16 196.129 400.755 195.929 397.349 195.328C393.743 194.526 390.738 193.425 388.334 192.022C392.14 193.425 396.648 193.825 401.856 193.224C407.265 192.623 411.673 191.221 415.079 189.017C411.473 189.819 407.065 189.418 401.856 187.815C396.848 186.212 392.841 184.209 389.836 181.805C393.442 182.606 397.85 182.206 403.058 180.603C408.267 179 412.274 176.997 415.079 174.593C413.276 172.389 410.471 170.586 406.664 169.184C402.858 167.782 399.553 166.98 396.748 166.78C398.551 164.776 401.356 162.973 405.162 161.371C408.968 159.768 412.274 158.967 415.079 158.967C412.875 156.563 409.469 154.159 404.861 151.755C400.454 149.15 396.648 147.748 393.442 147.548C395.646 145.144 398.952 142.74 403.359 140.335C407.766 137.931 411.372 136.629 414.177 136.429C410.571 136.83 406.364 136.529 401.556 135.527C396.748 134.325 392.941 132.522 390.137 130.118C393.943 130.719 398.25 130.519 403.058 129.517C408.067 128.315 412.074 126.612 415.079 124.409C413.877 122.405 411.673 120.402 408.467 118.399C405.262 116.395 402.558 115.394 400.354 115.394C401.556 113.591 403.659 111.687 406.664 109.684C409.87 107.681 412.274 106.679 413.877 106.679C409.67 107.28 404.861 106.98 399.452 105.777C394.043 104.575 389.736 102.772 386.531 100.368C390.738 101.17 395.746 101.07 401.556 100.068C407.366 99.0662 411.873 97.163 415.079 94.3583C414.277 92.1546 412.574 90.0511 409.97 88.0477C407.566 85.844 405.362 84.5418 403.359 84.1412C405.362 83.1395 407.967 82.9392 411.172 83.5402C414.377 83.9408 416.982 84.642 418.985 85.6437C420.187 84.4417 421.389 82.5385 422.591 79.9341C423.793 77.3297 424.294 75.0259 424.094 73.0225C426.498 75.2262 428.201 78.3314 429.202 82.3381C429.002 77.1294 430.404 72.6218 433.409 68.8154C432.608 71.2195 432.608 74.1244 433.409 77.5301C434.411 80.9358 435.613 83.6403 437.015 85.6437C440.02 82.4383 442.224 77.8306 443.626 71.8205C445.029 65.6101 445.43 60.3012 444.829 55.8938C447.834 59.0991 449.937 63.807 451.139 70.0175C452.341 76.0276 452.742 81.2363 452.341 85.6437C454.545 84.4417 456.949 82.0376 459.553 78.4316C462.358 74.8255 463.961 71.8205 464.361 69.4165C466.565 70.6185 468.869 73.1227 471.273 76.9291C473.677 80.7355 475.079 83.8407 475.48 86.2447C476.281 86.445 477.283 86.6454 478.485 86.8457C477.483 81.4366 477.383 77.0292 478.184 73.6235C481.39 78.0309 485.998 81.8373 492.008 85.0427C495.614 84.041 498.418 82.9392 500.422 81.7371C500.021 78.1311 500.121 74.4249 500.722 70.6185C501.323 66.6118 502.225 63.206 503.427 60.4013C504.228 64.4081 506.232 68.8155 509.437 73.6235C512.843 78.4316 516.349 81.7371 519.955 83.5402C518.552 79.9341 518.252 75.5267 519.053 70.318C519.854 64.9089 521.257 60.6017 523.26 57.3963C522.659 61.2027 523.16 65.6101 524.763 70.6185C526.365 75.6269 528.369 79.6336 530.773 82.6386C530.172 78.6319 530.472 74.0242 531.674 68.8154C533.077 63.6067 534.98 59.2995 537.384 55.8938C535.981 59.7002 535.481 64.4081 535.881 70.0175C536.482 75.4265 537.885 79.8339 540.088 83.2397C542.893 81.036 545.598 77.7304 548.202 73.323C550.806 68.7153 552.409 64.6084 553.01 61.0023C554.613 64.0074 555.414 67.8138 555.414 72.4215C555.614 76.8289 555.114 80.8356 553.912 84.4417C555.514 80.8356 557.818 77.3297 560.823 73.924C564.029 70.5183 567.134 68.1143 570.139 66.7119C567.534 69.3163 565.431 73.2229 563.828 78.4316C562.426 83.6403 561.925 88.1479 562.326 91.9543C564.73 92.1546 567.635 91.6538 571.04 90.4518C574.446 89.0494 576.95 87.4467 578.553 85.6437C578.753 88.0477 578.252 91.0528 577.05 94.6588C575.848 98.0645 574.446 100.569 572.843 102.171C575.848 100.368 580.156 99.3667 585.765 99.1664C591.374 98.966 595.882 99.5671 599.288 100.969C595.882 102.372 592.476 105.277 589.071 109.684C585.865 114.091 583.661 117.998 582.459 121.404C584.062 122.005 586.066 122.405 588.47 122.606C591.074 122.606 593.177 122.205 594.78 121.404C593.578 122.806 591.875 124.208 589.672 125.611C587.668 126.813 585.765 127.414 583.962 127.414C586.366 129.217 589.571 130.719 593.578 131.921C597.785 132.923 601.391 133.224 604.396 132.823C602.593 135.227 599.789 137.431 595.982 139.434C592.176 141.437 588.87 142.639 586.066 143.04C589.071 145.845 593.278 147.748 598.687 148.75C604.296 149.751 609.104 149.952 613.111 149.351C609.906 151.955 605.598 154.058 600.189 155.661C594.78 157.064 590.072 157.264 586.066 156.262C588.67 158.466 592.176 160.369 596.583 161.972C600.991 163.574 604.897 164.276 608.303 164.075C606.5 165.878 603.895 167.581 600.49 169.184C597.284 170.586 594.079 171.488 590.874 171.888C595.081 172.289 598.687 173.491 601.692 175.494C599.488 174.893 596.784 174.994 593.578 175.795C590.373 176.396 587.869 177.498 586.066 179.101C590.273 177.899 595.181 177.598 600.79 178.199C606.6 178.8 611.308 180.303 614.914 182.707C610.907 181.304 605.999 181.004 600.189 181.805C594.379 182.406 589.672 183.909 586.066 186.313C587.268 187.715 589.071 189.017 591.475 190.219C594.079 191.421 596.283 192.122 598.086 192.323C597.485 193.324 596.383 194.226 594.78 195.027C593.378 195.829 591.975 196.53 590.573 197.131C594.58 196.53 598.987 196.63 603.795 197.431C608.603 198.233 612.51 199.735 615.515 201.939C611.308 200.937 606.299 200.737 600.49 201.338C594.68 201.939 589.872 203.341 586.066 205.545C588.069 204.944 591.775 204.944 597.184 205.545C602.794 205.946 608.804 206.747 615.214 207.949C621.826 209.151 627.735 210.453 632.944 211.855C638.353 213.258 641.959 214.56 643.762 215.762C641.759 215.161 637.953 215.161 632.343 215.762C626.734 216.163 620.724 216.964 614.313 218.166C607.902 219.168 601.992 220.37 596.583 221.772C591.374 223.174 587.869 224.577 586.066 225.979C587.067 227.782 588.67 229.786 590.874 231.989C593.278 233.993 595.481 235.395 597.485 236.196C595.682 236.998 593.177 237.398 589.972 237.398C586.767 237.398 584.162 236.898 582.159 235.896C580.556 238.3 579.154 241.505 577.952 245.512C576.95 249.719 576.65 253.325 577.05 256.33C574.446 252.924 572.643 248.617 571.641 243.408C571.04 247.415 569.738 250.621 567.735 253.025C568.336 250.42 568.236 247.415 567.434 244.009C566.833 240.604 565.731 237.899 564.129 235.896C564.529 239.702 563.628 244.21 561.424 249.419C559.421 254.627 556.917 258.434 553.912 260.838C554.312 257.031 553.411 252.524 551.207 247.315C549.003 242.307 546.599 238.5 543.995 235.896C541.591 237.899 539.487 241.004 537.684 245.211C535.881 249.619 534.98 253.325 534.98 256.33C532.776 254.126 530.773 250.921 528.97 246.714C527.167 242.507 526.165 238.901 525.965 235.896C524.763 236.697 522.96 237.298 520.556 237.699C518.352 238.1 516.549 238.1 515.147 237.699C516.148 236.697 516.95 235.094 517.551 232.891C518.152 230.487 518.452 228.584 518.452 227.181C517.05 227.181 515.347 226.881 513.343 226.28C511.54 225.478 510.138 224.577 509.136 223.575C510.539 223.775 512.242 223.575 514.245 222.974C516.248 222.173 517.651 221.171 518.452 219.969C517.25 219.368 515.647 217.966 513.644 215.762C511.641 213.558 510.439 211.855 510.038 210.653C511.24 210.052 512.843 208.65 514.846 206.446C517.05 204.042 518.252 202.239 518.452 201.037C515.647 200.837 512.342 199.935 508.535 198.333C504.929 196.53 502.125 194.627 500.121 192.623C502.926 192.824 506.232 192.022 510.038 190.219C513.844 188.416 516.649 186.513 518.452 184.51C516.048 184.309 513.143 183.408 509.737 181.805C506.532 180.202 504.128 178.5 502.525 176.696C504.929 176.496 507.734 175.695 510.939 174.292C514.345 172.69 516.849 170.887 518.452 168.883C518.051 167.681 516.649 165.878 514.245 163.474C512.041 160.87 510.338 159.267 509.136 158.666C509.537 157.464 510.839 155.661 513.043 153.257C515.447 150.653 517.25 149.05 518.452 148.449C517.45 147.648 515.948 146.947 513.944 146.346C511.941 145.745 510.138 145.444 508.535 145.444C505.731 151.053 502.726 155.361 499.52 158.366C500.121 155.16 500.021 151.354 499.22 146.947C498.418 142.339 497.116 138.332 495.313 134.926C496.916 138.532 497.517 141.638 497.116 144.242C496.115 142.639 494.412 141.137 492.008 139.734C489.804 138.132 487.801 137.23 485.998 137.03C485.998 138.232 486.799 140.235 488.402 143.04C490.205 145.644 491.607 147.347 492.609 148.149C492.208 149.351 490.705 150.853 488.101 152.656C485.497 154.459 483.594 155.561 482.392 155.962C483.393 157.364 485.096 159.167 487.5 161.371C490.104 163.374 492.308 164.476 494.111 164.676C493.11 166.279 491.307 168.082 488.702 170.085C486.098 172.089 483.994 173.291 482.392 173.691C483.994 175.094 486.198 176.095 489.003 176.696C492.008 177.097 494.612 177.097 496.816 176.696C494.812 177.899 492.408 178.8 489.604 179.401C486.999 180.002 484.595 180.102 482.392 179.702C484.195 180.102 486.398 181.204 489.003 183.007C491.807 184.81 493.811 186.513 495.013 188.116C493.21 188.516 490.906 189.618 488.101 191.421C485.296 193.024 483.393 194.627 482.392 196.229C484.595 195.829 487.2 196.129 490.205 197.131C493.21 197.932 495.514 199.034 497.116 200.436C494.913 200.036 492.308 200.336 489.303 201.338C486.298 202.139 483.994 203.241 482.392 204.643C485.397 204.243 489.003 204.844 493.21 206.446C497.417 208.049 500.522 210.052 502.525 212.457C499.52 212.256 495.914 212.957 491.707 214.56C487.7 216.163 484.595 217.966 482.392 219.969C484.796 221.572 487.4 223.976 490.205 227.181C493.009 230.387 494.812 233.392 495.614 236.196C493.009 234.994 489.503 234.293 485.096 234.093C480.889 233.892 477.483 234.493 474.879 235.896C472.876 239.101 471.373 243.208 470.371 248.217C469.37 253.425 469.47 257.833 470.672 261.439C469.069 259.035 467.767 256.03 466.765 252.424C465.964 248.818 465.663 245.412 465.864 242.206C465.062 245.612 463.86 249.018 462.258 252.424C460.855 255.829 459.153 258.434 457.149 260.237C457.35 256.631 456.448 252.323 454.445 247.315C452.441 242.307 450.137 238.5 447.533 235.896C448.134 239.502 448.134 243.709 447.533 248.517C446.932 253.525 445.53 257.532 443.326 260.537C444.528 256.931 444.728 252.624 443.927 247.616C443.126 242.607 441.523 238.701 439.119 235.896C436.515 237.899 434.311 241.305 432.508 246.113C430.705 250.921 429.803 255.028 429.803 258.434C427.199 256.23 424.695 252.123 422.291 246.113C419.887 240.303 417.483 231.989 415.079 221.171ZM502.225 88.6487C501.423 87.046 500.822 84.9425 500.422 82.3381C499.821 83.9408 498.919 85.7439 497.717 87.7472C499.32 88.3482 500.822 88.6487 502.225 88.6487ZM641.161 280.37C639.158 277.365 636.153 274.36 632.146 271.355C628.139 268.551 624.433 266.748 621.027 265.946C624.433 265.345 628.54 265.345 633.348 265.946C638.356 266.748 642.263 268.25 645.068 270.454C643.265 269.252 641.261 266.848 639.058 263.242C636.854 259.836 635.552 257.031 635.151 254.828C637.355 255.028 640.46 254.727 644.467 253.926C648.674 253.325 651.679 252.323 653.482 250.921C649.275 250.32 644.767 248.317 639.959 244.911C635.351 241.505 632.146 237.899 630.343 234.093C633.949 236.096 638.457 237.599 643.866 238.6C649.475 239.402 654.283 239.502 658.29 238.901C656.086 235.896 652.781 233.091 648.373 230.487C644.166 227.882 640.159 226.58 636.353 226.58C639.759 225.178 643.966 224.477 648.974 224.477C654.183 224.276 658.39 225.078 661.595 226.881C659.592 225.278 656.487 224.176 652.28 223.575C648.073 222.974 644.867 222.974 642.664 223.575C643.265 221.371 644.667 218.567 646.871 215.161C649.275 211.755 651.478 209.351 653.482 207.949C650.877 209.952 647.372 211.455 642.964 212.457C638.757 213.258 635.151 213.258 632.146 212.457C635.351 211.855 638.657 210.353 642.063 207.949C645.669 205.545 648.373 202.941 650.176 200.136C646.37 202.139 641.361 203.542 635.151 204.343C629.141 205.144 624.032 204.844 619.825 203.441C624.032 201.839 628.54 199.134 633.348 195.328C638.156 191.521 641.462 187.615 643.265 183.608C640.861 184.81 637.555 185.411 633.348 185.411C629.341 185.411 626.136 185.01 623.732 184.209C626.136 183.207 628.84 181.304 631.845 178.5C634.851 175.695 636.754 172.99 637.555 170.386C635.351 169.384 632.346 168.783 628.54 168.583C624.934 168.383 621.929 168.683 619.525 169.484C620.527 167.281 622.229 164.776 624.633 161.972C627.037 159.167 629.341 157.164 631.545 155.962C627.538 154.159 622.33 153.658 615.919 154.459C609.708 155.06 604.7 156.463 600.894 158.666C602.697 155.06 605.501 151.454 609.308 147.848C613.314 144.042 617.221 141.237 621.027 139.434C618.824 140.035 616.319 140.335 613.515 140.335C610.91 140.135 608.707 139.734 606.904 139.133C609.308 138.332 611.712 136.729 614.116 134.325C616.72 131.721 618.423 129.317 619.224 127.113C616.82 125.511 613.214 124.609 608.406 124.409C603.598 124.208 599.792 124.609 596.987 125.611C597.989 122.806 599.892 119.501 602.697 115.694C605.702 111.888 608.606 109.484 611.411 108.482C608.406 109.884 604.299 110.686 599.091 110.886C594.082 111.086 590.075 110.485 587.07 109.083C590.276 107.681 593.681 105.277 597.288 101.871C600.894 98.4652 603.298 95.1597 604.5 91.9543C602.096 90.5519 599.792 88.4484 597.588 85.6437C595.384 82.839 594.082 80.1344 593.681 77.5301C595.284 79.5334 597.688 81.3365 600.894 82.9391C604.099 84.5418 607.004 85.4434 609.608 85.6437C609.408 83.44 610.009 80.8356 611.411 77.8306C613.014 74.6252 614.617 72.2212 616.219 70.6185C616.019 72.8222 616.62 75.5267 618.022 78.7321C619.425 81.7371 620.927 84.041 622.53 85.6437C624.133 84.4417 625.535 82.5385 626.737 79.9341C627.939 77.1294 628.54 74.7254 628.54 72.722C629.942 73.7237 631.144 75.4265 632.146 77.8306C633.348 80.2346 634.049 82.3381 634.25 84.1412C634.45 81.1361 635.351 77.8306 636.954 74.2245C638.757 70.4181 640.66 67.6134 642.664 65.8104C642.664 68.8154 643.465 72.4215 645.068 76.6286C646.871 80.6353 648.774 83.6403 650.777 85.6437C653.782 83.2397 656.186 79.6336 657.989 74.8255C659.792 70.0175 660.694 65.8104 660.694 62.2044C662.497 65.4097 663.699 69.5166 664.3 74.525C665.101 79.5334 665.001 83.8407 663.999 87.4467C667.004 88.2481 670.611 88.2481 674.818 87.4467C679.225 86.445 682.731 85.0427 685.335 83.2397C683.532 85.844 680.928 88.5486 677.522 91.3533C674.317 93.9576 671.212 95.6605 668.207 96.4618C670.41 98.0645 673.916 99.2666 678.724 100.068C683.532 100.869 687.439 100.969 690.444 100.368C689.642 103.173 687.639 106.479 684.434 110.285C681.228 113.891 678.323 116.395 675.719 117.798C676.52 118.799 678.223 120.001 680.828 121.404C683.632 122.806 685.736 123.607 687.138 123.808C687.138 125.01 686.537 127.113 685.335 130.118C684.334 132.923 683.332 134.726 682.33 135.527C683.933 134.926 685.936 134.626 688.34 134.626C688.14 134.225 687.94 133.724 687.739 133.123C690.344 133.724 693.649 133.724 697.656 133.123C701.863 132.522 705.068 131.521 707.272 130.118C705.269 129.718 703.065 128.516 700.661 126.512C698.457 124.309 696.955 122.205 696.153 120.202C697.956 121.203 700.36 121.704 703.366 121.704C706.571 121.704 709.075 121.203 710.878 120.202C711.078 118.799 710.578 116.495 709.376 113.29C708.174 110.085 707.172 107.981 706.371 106.98C707.172 105.978 708.975 104.575 711.78 102.772C714.785 100.969 716.988 100.068 718.391 100.068C717.389 96.8625 715.386 93.3566 712.381 89.5503C709.576 85.7439 706.671 83.1395 703.666 81.7371C706.871 81.1361 710.878 81.2363 715.686 82.0376C720.494 82.6386 724.2 83.9408 726.805 85.9442C726.004 83.1395 725.803 79.9341 726.204 76.3281C726.805 72.5217 727.706 69.4165 728.908 67.0124C728.307 69.6168 728.408 72.8222 729.209 76.6286C730.01 80.2346 731.212 83.2397 732.815 85.6437C732.014 82.238 731.813 78.2313 732.214 73.6235C732.615 68.8155 733.817 64.9089 735.82 61.9038C734.818 65.3096 734.518 69.4165 734.918 74.2245C735.519 78.8323 736.822 82.6386 738.825 85.6437C741.029 83.2397 742.932 79.8339 744.535 75.4265C746.137 70.8188 747.039 66.9123 747.239 63.7069C749.243 66.1109 751.046 69.6168 752.648 74.2245C754.451 78.6319 755.353 82.4383 755.353 85.6437C755.353 81.637 756.455 76.8289 758.658 71.2195C760.862 65.4097 763.567 61.2027 766.772 58.5983C766.972 62.605 768.174 67.4131 770.378 73.0225C772.782 78.4316 775.386 82.6386 778.191 85.6437C780.194 85.4434 782.598 85.9442 785.403 87.1462C788.408 88.1479 790.712 89.3499 792.315 90.7523C790.311 90.9526 787.907 91.9543 785.103 93.7573C782.498 95.36 780.695 97.0629 779.694 98.8659C783.5 99.4669 787.507 101.37 791.714 104.575C796.121 107.781 799.126 111.086 800.729 114.492C797.724 112.088 793.617 110.485 788.408 109.684C783.199 108.682 778.692 108.682 774.886 109.684C776.488 112.889 779.093 116.395 782.699 120.202C786.505 123.808 790.111 126.011 793.517 126.813C790.111 128.015 785.804 128.516 780.595 128.315C775.386 128.115 771.279 127.113 768.274 125.31C769.476 128.716 771.88 132.623 775.487 137.03C779.093 141.237 782.598 143.942 786.004 145.144C782.598 146.746 778.091 147.648 772.482 147.848C767.072 148.048 762.665 147.548 759.259 146.346C760.061 149.551 762.164 153.257 765.57 157.464C768.976 161.671 772.281 164.376 775.487 165.578C772.482 167.181 768.274 168.182 762.865 168.583C757.657 168.783 753.45 168.383 750.244 167.381C752.849 170.787 756.555 173.792 761.363 176.396C766.371 179 770.979 180.603 775.186 181.204C772.381 181.805 769.176 181.705 765.57 180.904C761.964 180.102 758.558 179 755.353 177.598C760.762 182.406 764.368 187.314 766.171 192.323C762.765 191.121 758.258 190.52 752.648 190.52C747.239 190.52 742.832 191.221 739.426 192.623C741.63 196.43 745.236 199.835 750.244 202.84C755.453 205.645 760.261 207.448 764.668 208.249C760.461 209.051 755.453 208.65 749.643 207.047C744.034 205.445 739.526 203.241 736.12 200.436C737.323 203.041 739.526 205.645 742.732 208.249C745.937 210.854 748.942 212.457 751.747 213.058C748.942 213.659 745.536 213.759 741.53 213.358C737.523 212.957 734.317 211.956 731.913 210.353C733.115 214.159 735.82 218.166 740.027 222.373C744.434 226.38 748.441 229.185 752.047 230.787C748.441 232.59 743.633 233.392 737.623 233.191C731.613 232.791 726.805 231.789 723.199 230.186C725.002 233.592 728.107 236.797 732.514 239.802C736.922 242.807 741.029 244.61 744.835 245.211C741.63 246.213 737.723 246.313 733.115 245.512C728.708 244.911 724.902 243.709 721.696 241.906C723.9 243.709 726.004 246.113 728.007 249.118C730.01 252.123 731.312 254.727 731.913 256.931C729.309 255.929 725.803 255.629 721.396 256.03C716.988 256.631 713.482 257.532 710.878 258.734C713.282 259.736 715.686 261.639 718.09 264.444C720.494 267.248 722.197 269.753 723.199 271.956C720.995 271.155 717.99 270.754 714.184 270.754C710.578 270.754 707.573 271.255 705.169 272.257C705.569 274.661 706.871 277.766 709.075 281.572C711.479 285.579 713.783 288.284 715.987 289.686C713.783 291.088 710.377 291.89 705.77 292.09C701.362 292.491 697.956 292.29 695.552 291.489C693.749 294.695 692.447 298.601 691.646 303.209C691.045 308.017 691.245 312.124 692.247 315.529C689.642 313.125 687.539 309.62 685.936 305.012C684.334 300.604 683.532 296.598 683.532 292.992C680.928 295.997 678.824 300.104 677.222 305.312C675.819 310.721 675.519 315.329 676.32 319.136C674.116 316.531 672.313 313.025 670.911 308.618C669.709 304.21 669.108 300.104 669.108 296.297C668.707 299.703 667.505 303.309 665.502 307.115C663.699 310.922 661.696 313.726 659.492 315.529C659.292 312.124 658.29 308.017 656.487 303.209C654.684 298.401 652.48 294.995 649.876 292.992C649.876 294.995 649.475 297.299 648.674 299.903C648.073 302.708 647.071 304.811 645.669 306.214C645.869 304.21 645.569 301.306 644.767 297.499C643.966 293.693 642.764 287.983 641.161 280.37ZM700.661 148.149C698.658 147.147 696.454 145.344 694.05 142.74C692.648 144.142 691.446 145.544 690.444 146.947C694.651 146.546 698.057 146.947 700.661 148.149Z" fill="black"/>
</svg>
