<svg width="401" height="401" viewBox="0 0 401 401" fill="none" xmlns="http://www.w3.org/2000/svg">
<rect x="5.0084" y="5.0084" width="390.656" height="390.656" rx="115.193" fill="#77C2FF"/>
<rect x="5.0084" y="5.0084" width="390.656" height="390.656" rx="115.193" stroke="black" stroke-width="10.0168"/>
<path d="M160.269 100.168H240.404C256.343 100.168 271.63 106.5 282.901 117.771C294.172 129.042 300.504 144.329 300.504 160.269V240.404C300.504 256.343 294.172 271.63 282.901 282.901C271.63 294.172 256.343 300.504 240.404 300.504H160.269C144.329 300.504 129.042 294.172 117.771 282.901C106.5 271.63 100.168 256.343 100.168 240.404V160.269C100.168 144.329 106.5 129.042 117.771 117.771C129.042 106.5 144.329 100.168 160.269 100.168ZM220.37 190.319C217.713 190.319 215.165 191.375 213.287 193.253C211.408 195.132 210.353 197.68 210.353 200.336C210.353 202.993 211.408 205.541 213.287 207.419C215.165 209.298 217.713 210.353 220.37 210.353H250.42C253.077 210.353 255.625 209.298 257.503 207.419C259.382 205.541 260.437 202.993 260.437 200.336C260.437 197.68 259.382 195.132 257.503 193.253C255.625 191.375 253.077 190.319 250.42 190.319H220.37ZM200.336 230.387C197.68 230.387 195.132 231.442 193.253 233.321C191.375 235.199 190.319 237.747 190.319 240.404C190.319 243.06 191.375 245.608 193.253 247.486C195.132 249.365 197.68 250.42 200.336 250.42H250.42C253.077 250.42 255.625 249.365 257.503 247.486C259.382 245.608 260.437 243.06 260.437 240.404C260.437 237.747 259.382 235.199 257.503 233.321C255.625 231.442 253.077 230.387 250.42 230.387H200.336ZM200.336 150.252C197.68 150.252 195.132 151.308 193.253 153.186C191.375 155.065 190.319 157.612 190.319 160.269C190.319 162.926 191.375 165.474 193.253 167.352C195.132 169.231 197.68 170.286 200.336 170.286H250.42C253.077 170.286 255.625 169.231 257.503 167.352C259.382 165.474 260.437 162.926 260.437 160.269C260.437 157.612 259.382 155.065 257.503 153.186C255.625 151.308 253.077 150.252 250.42 150.252H200.336ZM158.546 202.77L151.464 195.689C150.54 194.732 149.435 193.969 148.213 193.444C146.991 192.919 145.676 192.642 144.346 192.631C143.016 192.619 141.697 192.873 140.466 193.376C139.235 193.88 138.117 194.624 137.176 195.564C136.236 196.505 135.492 197.623 134.988 198.854C134.485 200.085 134.231 201.404 134.243 202.734C134.254 204.064 134.531 205.379 135.056 206.601C135.581 207.823 136.344 208.928 137.301 209.852L151.464 224.016C152.395 224.947 153.499 225.686 154.715 226.19C155.931 226.694 157.235 226.954 158.551 226.954C159.868 226.954 161.171 226.694 162.387 226.19C163.603 225.686 164.708 224.947 165.638 224.016L193.966 195.689C195.847 193.81 196.904 191.262 196.906 188.604C196.908 185.946 195.854 183.396 193.976 181.515C192.097 179.634 189.549 178.576 186.891 178.574C184.233 178.572 181.683 179.626 179.802 181.505L158.546 202.76V202.77Z" fill="black"/>
</svg>
