<svg width="40" height="44" viewBox="0 0 40 44" fill="none" xmlns="http://www.w3.org/2000/svg">
<g filter="url(#filter0_d_33_71)">
<rect width="40" height="40" rx="12" fill="#77C2FF"/>
<rect x="0.5" y="0.5" width="39" height="39" rx="11.5" stroke="black"/>
<path d="M16 10H24C25.5913 10 27.1174 10.6321 28.2426 11.7574C29.3679 12.8826 30 14.4087 30 16V24C30 25.5913 29.3679 27.1174 28.2426 28.2426C27.1174 29.3679 25.5913 30 24 30H16C14.4087 30 12.8826 29.3679 11.7574 28.2426C10.6321 27.1174 10 25.5913 10 24V16C10 14.4087 10.6321 12.8826 11.7574 11.7574C12.8826 10.6321 14.4087 10 16 10ZM22 19C21.7348 19 21.4804 19.1054 21.2929 19.2929C21.1054 19.4804 21 19.7348 21 20C21 20.2652 21.1054 20.5196 21.2929 20.7071C21.4804 20.8946 21.7348 21 22 21H25C25.2652 21 25.5196 20.8946 25.7071 20.7071C25.8946 20.5196 26 20.2652 26 20C26 19.7348 25.8946 19.4804 25.7071 19.2929C25.5196 19.1054 25.2652 19 25 19H22ZM20 23C19.7348 23 19.4804 23.1054 19.2929 23.2929C19.1054 23.4804 19 23.7348 19 24C19 24.2652 19.1054 24.5196 19.2929 24.7071C19.4804 24.8946 19.7348 25 20 25H25C25.2652 25 25.5196 24.8946 25.7071 24.7071C25.8946 24.5196 26 24.2652 26 24C26 23.7348 25.8946 23.4804 25.7071 23.2929C25.5196 23.1054 25.2652 23 25 23H20ZM20 15C19.7348 15 19.4804 15.1054 19.2929 15.2929C19.1054 15.4804 19 15.7348 19 16C19 16.2652 19.1054 16.5196 19.2929 16.7071C19.4804 16.8946 19.7348 17 20 17H25C25.2652 17 25.5196 16.8946 25.7071 16.7071C25.8946 16.5196 26 16.2652 26 16C26 15.7348 25.8946 15.4804 25.7071 15.2929C25.5196 15.1054 25.2652 15 25 15H20ZM15.828 20.243L15.121 19.536C15.0288 19.4405 14.9184 19.3643 14.7964 19.3119C14.6744 19.2595 14.5432 19.2319 14.4104 19.2307C14.2776 19.2296 14.1459 19.2549 14.023 19.3052C13.9001 19.3555 13.7885 19.4297 13.6946 19.5236C13.6007 19.6175 13.5265 19.7291 13.4762 19.852C13.4259 19.9749 13.4006 20.1066 13.4017 20.2394C13.4029 20.3722 13.4305 20.5034 13.4829 20.6254C13.5353 20.7474 13.6115 20.8578 13.707 20.95L15.121 22.364C15.2139 22.457 15.3242 22.5307 15.4456 22.5811C15.567 22.6314 15.6971 22.6573 15.8285 22.6573C15.9599 22.6573 16.09 22.6314 16.2114 22.5811C16.3328 22.5307 16.4431 22.457 16.536 22.364L19.364 19.536C19.5518 19.3485 19.6574 19.0941 19.6576 18.8287C19.6577 18.5633 19.5525 18.3088 19.365 18.121C19.1775 17.9332 18.9231 17.8276 18.6577 17.8274C18.3923 17.8273 18.1378 17.9325 17.95 18.12L15.828 20.242V20.243Z" fill="black"/>
</g>
<defs>
<filter id="filter0_d_33_71" x="0" y="0" width="40" height="44" filterUnits="userSpaceOnUse" color-interpolation-filters="sRGB">
<feFlood flood-opacity="0" result="BackgroundImageFix"/>
<feColorMatrix in="SourceAlpha" type="matrix" values="0 0 0 0 0 0 0 0 0 0 0 0 0 0 0 0 0 0 127 0" result="hardAlpha"/>
<feOffset dy="4"/>
<feComposite in2="hardAlpha" operator="out"/>
<feColorMatrix type="matrix" values="0 0 0 0 0 0 0 0 0 0 0 0 0 0 0 0 0 0 1 0"/>
<feBlend mode="normal" in2="BackgroundImageFix" result="effect1_dropShadow_33_71"/>
<feBlend mode="normal" in="SourceGraphic" in2="effect1_dropShadow_33_71" result="shape"/>
</filter>
</defs>
</svg>
