<svg width="126" height="44" viewBox="0 0 126 44" fill="none" xmlns="http://www.w3.org/2000/svg">
<g filter="url(#filter0_d_33_59)">
<rect width="40" height="40" rx="12" fill="#77C2FF"/>
<rect x="0.5" y="0.5" width="39" height="39" rx="11.5" stroke="black"/>
<path d="M16 10H24C25.5913 10 27.1174 10.6321 28.2426 11.7574C29.3679 12.8826 30 14.4087 30 16V24C30 25.5913 29.3679 27.1174 28.2426 28.2426C27.1174 29.3679 25.5913 30 24 30H16C14.4087 30 12.8826 29.3679 11.7574 28.2426C10.6321 27.1174 10 25.5913 10 24V16C10 14.4087 10.6321 12.8826 11.7574 11.7574C12.8826 10.6321 14.4087 10 16 10ZM22 19C21.7348 19 21.4804 19.1054 21.2929 19.2929C21.1054 19.4804 21 19.7348 21 20C21 20.2652 21.1054 20.5196 21.2929 20.7071C21.4804 20.8946 21.7348 21 22 21H25C25.2652 21 25.5196 20.8946 25.7071 20.7071C25.8946 20.5196 26 20.2652 26 20C26 19.7348 25.8946 19.4804 25.7071 19.2929C25.5196 19.1054 25.2652 19 25 19H22ZM20 23C19.7348 23 19.4804 23.1054 19.2929 23.2929C19.1054 23.4804 19 23.7348 19 24C19 24.2652 19.1054 24.5196 19.2929 24.7071C19.4804 24.8946 19.7348 25 20 25H25C25.2652 25 25.5196 24.8946 25.7071 24.7071C25.8946 24.5196 26 24.2652 26 24C26 23.7348 25.8946 23.4804 25.7071 23.2929C25.5196 23.1054 25.2652 23 25 23H20ZM20 15C19.7348 15 19.4804 15.1054 19.2929 15.2929C19.1054 15.4804 19 15.7348 19 16C19 16.2652 19.1054 16.5196 19.2929 16.7071C19.4804 16.8946 19.7348 17 20 17H25C25.2652 17 25.5196 16.8946 25.7071 16.7071C25.8946 16.5196 26 16.2652 26 16C26 15.7348 25.8946 15.4804 25.7071 15.2929C25.5196 15.1054 25.2652 15 25 15H20ZM15.828 20.243L15.121 19.536C15.0288 19.4405 14.9184 19.3643 14.7964 19.3119C14.6744 19.2595 14.5432 19.2319 14.4104 19.2307C14.2776 19.2296 14.1459 19.2549 14.023 19.3052C13.9001 19.3555 13.7885 19.4297 13.6946 19.5236C13.6007 19.6175 13.5265 19.7291 13.4762 19.852C13.4259 19.9749 13.4006 20.1066 13.4017 20.2394C13.4029 20.3722 13.4305 20.5034 13.4829 20.6254C13.5353 20.7474 13.6115 20.8578 13.707 20.95L15.121 22.364C15.2139 22.457 15.3242 22.5307 15.4456 22.5811C15.567 22.6314 15.6971 22.6573 15.8285 22.6573C15.9599 22.6573 16.09 22.6314 16.2114 22.5811C16.3328 22.5307 16.4431 22.457 16.536 22.364L19.364 19.536C19.5518 19.3485 19.6574 19.0941 19.6576 18.8287C19.6577 18.5633 19.5525 18.3088 19.365 18.121C19.1775 17.9332 18.9231 17.8276 18.6577 17.8274C18.3923 17.8273 18.1378 17.9325 17.95 18.12L15.828 20.242V20.243Z" fill="black"/>
</g>
<path d="M48.25 28.95C47.85 29.03 47.37 28.98 46.81 28.8C46.27 28.6 45.84 28.37 45.52 28.11C45.92 28.15 46.39 28.09 46.93 27.93C47.49 27.75 47.93 27.53 48.25 27.27C48.03 27.05 47.7 26.82 47.26 26.58C46.84 26.32 46.47 26.19 46.15 26.19C46.31 25.97 46.57 25.76 46.93 25.56C47.31 25.36 47.65 25.23 47.95 25.17C47.49 25.19 46.98 25.13 46.42 24.99C45.88 24.85 45.44 24.65 45.1 24.39C45.56 24.51 46.1 24.5 46.72 24.36C47.36 24.2 47.87 23.98 48.25 23.7C48.01 23.42 47.63 23.16 47.11 22.92C46.61 22.68 46.18 22.58 45.82 22.62C46.08 22.36 46.46 22.12 46.96 21.9C47.46 21.66 47.89 21.54 48.25 21.54C47.85 21.32 47.34 21.19 46.72 21.15C46.12 21.09 45.6 21.12 45.16 21.24C45.54 20.98 46.04 20.83 46.66 20.79C47.28 20.75 47.81 20.8 48.25 20.94C47.97 20.64 47.55 20.38 46.99 20.16C46.43 19.94 45.95 19.84 45.55 19.86C45.85 19.58 46.27 19.32 46.81 19.08C47.37 18.84 47.85 18.74 48.25 18.78C48.03 18.56 47.71 18.38 47.29 18.24C46.87 18.08 46.51 18.02 46.21 18.06C46.43 17.84 46.75 17.66 47.17 17.52C47.59 17.36 47.95 17.3 48.25 17.34C47.87 17.1 47.38 16.93 46.78 16.83C46.2 16.73 45.69 16.74 45.25 16.86C45.45 16.72 45.7 16.61 46 16.53C46.28 16.43 46.57 16.36 46.87 16.32C46.21 16.18 45.68 15.96 45.28 15.66C45.72 15.76 46.23 15.74 46.81 15.6C47.41 15.44 47.89 15.22 48.25 14.94C47.99 14.96 47.67 14.91 47.29 14.79C46.91 14.67 46.63 14.51 46.45 14.31C46.73 14.31 47.05 14.25 47.41 14.13C47.77 13.99 48.05 13.83 48.25 13.65C47.93 13.65 47.55 13.59 47.11 13.47C46.67 13.33 46.34 13.15 46.12 12.93C46.44 12.99 46.82 12.94 47.26 12.78C47.7 12.62 48.03 12.43 48.25 12.21C47.79 12.29 47.24 12.23 46.6 12.03C45.98 11.83 45.5 11.57 45.16 11.25C45.62 11.31 46.16 11.25 46.78 11.07C47.42 10.87 47.91 10.61 48.25 10.29C48.03 9.91 47.67 9.58 47.17 9.3C46.69 9 46.24 8.8 45.82 8.7C46.26 8.68 46.75 8.76 47.29 8.94C47.83 9.1 48.26 9.32 48.58 9.6C48.46 9.12 48.48 8.55 48.64 7.89C48.8 7.23 49.04 6.72 49.36 6.36C49.26 6.84 49.29 7.41 49.45 8.07C49.61 8.71 49.84 9.22 50.14 9.6C50.04 9.14 50.05 8.6 50.17 7.98C50.29 7.36 50.48 6.85 50.74 6.45C50.6 6.91 50.6 7.45 50.74 8.07C50.88 8.69 51.08 9.2 51.34 9.6C51.34 9.28 51.46 8.89 51.7 8.43C51.96 7.95 52.22 7.61 52.48 7.41C52.48 7.73 52.6 8.13 52.84 8.61C53.1 9.07 53.36 9.4 53.62 9.6C53.88 9.3 54.07 8.89 54.19 8.37C54.31 7.83 54.32 7.37 54.22 6.99C54.48 7.29 54.66 7.71 54.76 8.25C54.88 8.77 54.9 9.22 54.82 9.6C55.1 9.28 55.3 8.84 55.42 8.28C55.54 7.7 55.56 7.2 55.48 6.78C55.68 7.02 55.84 7.35 55.96 7.77C56.08 8.17 56.15 8.57 56.17 8.97C56.21 8.71 56.27 8.47 56.35 8.25C56.45 8.01 56.56 7.81 56.68 7.65C56.64 7.95 56.67 8.29 56.77 8.67C56.89 9.05 57.04 9.36 57.22 9.6C57.2 9.34 57.24 9.03 57.34 8.67C57.44 8.29 57.58 8 57.76 7.8C57.7 8.06 57.72 8.38 57.82 8.76C57.94 9.14 58.1 9.42 58.3 9.6C58.16 9.1 58.15 8.51 58.27 7.83C58.41 7.15 58.62 6.59 58.9 6.15C58.76 6.65 58.76 7.24 58.9 7.92C59.04 8.6 59.24 9.16 59.5 9.6C59.68 9.38 59.82 9.08 59.92 8.7C60.02 8.32 60.06 7.99 60.04 7.71C60.2 7.89 60.32 8.13 60.4 8.43C60.5 8.73 60.56 9.02 60.58 9.3C60.6 8.9 60.69 8.48 60.85 8.04C61.01 7.58 61.2 7.22 61.42 6.96C61.4 7.36 61.47 7.83 61.63 8.37C61.81 8.89 62.02 9.3 62.26 9.6C62.56 9.56 62.9 9.4 63.28 9.12C63.66 8.82 63.93 8.54 64.09 8.28C64.21 8.58 64.22 8.96 64.12 9.42C64.04 9.88 63.93 10.25 63.79 10.53C64.27 10.49 64.84 10.56 65.5 10.74C66.16 10.9 66.67 11.15 67.03 11.49C66.55 11.43 65.98 11.5 65.32 11.7C64.66 11.88 64.15 12.13 63.79 12.45C64.29 12.35 64.88 12.4 65.56 12.6C66.26 12.78 66.81 13.03 67.21 13.35C66.71 13.23 66.11 13.27 65.41 13.47C64.71 13.65 64.17 13.91 63.79 14.25C63.63 14.53 63.51 14.9 63.43 15.36C63.37 15.8 63.38 16.17 63.46 16.47C63.22 16.31 62.98 16.06 62.74 15.72C62.52 15.36 62.37 15.03 62.29 14.73C62.37 15.07 62.36 15.46 62.26 15.9C62.18 16.34 62.04 16.7 61.84 16.98C61.94 16.62 61.94 16.21 61.84 15.75C61.76 15.27 61.62 14.88 61.42 14.58C61.4 14.78 61.32 15.02 61.18 15.3C61.06 15.56 60.92 15.8 60.76 16.02C60.98 16.24 61.19 16.56 61.39 16.98C61.59 17.38 61.68 17.72 61.66 18C61.9 17.92 62.15 17.76 62.41 17.52C62.69 17.26 62.88 17.02 62.98 16.8C63.1 17 63.18 17.29 63.22 17.67C63.28 18.05 63.27 18.35 63.19 18.57C63.45 18.83 63.83 19.05 64.33 19.23C64.83 19.41 65.26 19.47 65.62 19.41C65.34 19.65 64.95 19.86 64.45 20.04C63.97 20.22 63.55 20.29 63.19 20.25C63.41 20.49 63.71 20.7 64.09 20.88C64.49 21.04 64.9 21.17 65.32 21.27C65.76 21.35 66.14 21.38 66.46 21.36C66.12 21.72 65.61 22.01 64.93 22.23C64.25 22.45 63.67 22.54 63.19 22.5C63.31 22.84 63.31 23.28 63.19 23.82C63.07 24.36 62.91 24.79 62.71 25.11C62.67 24.75 62.48 24.35 62.14 23.91C61.82 23.47 61.5 23.15 61.18 22.95C60.94 23.15 60.69 23.48 60.43 23.94C60.17 24.4 60.05 24.79 60.07 25.11C59.81 24.91 59.55 24.58 59.29 24.12C59.05 23.66 58.93 23.27 58.93 22.95C58.71 23.35 58.56 23.84 58.48 24.42C58.4 25 58.41 25.51 58.51 25.95C58.29 25.55 58.13 25.06 58.03 24.48C57.95 23.9 57.97 23.39 58.09 22.95C57.93 23.23 57.81 23.58 57.73 24C57.65 24.42 57.63 24.81 57.67 25.17C57.69 25.31 57.71 25.44 57.73 25.56C57.67 25.44 57.61 25.3 57.55 25.14C57.31 25.08 57.04 25.06 56.74 25.08C56.7 25.48 56.71 25.84 56.77 26.16C56.59 25.86 56.44 25.51 56.32 25.11C56.08 25.13 55.84 25.17 55.6 25.23C55.56 25.31 55.52 25.38 55.48 25.44C55.48 25.4 55.48 25.35 55.48 25.29C55.02 25.43 54.66 25.61 54.4 25.83C54.74 25.81 55.14 25.88 55.6 26.04C56.06 26.18 56.41 26.37 56.65 26.61C56.31 26.59 55.9 26.66 55.42 26.82C54.96 26.96 54.62 27.15 54.4 27.39C54.72 27.37 55.1 27.46 55.54 27.66C56 27.84 56.33 28.05 56.53 28.29C56.21 28.31 55.82 28.41 55.36 28.59C54.92 28.75 54.6 28.95 54.4 29.19C54.24 29.53 54.18 29.95 54.22 30.45C54.26 30.97 54.35 31.4 54.49 31.74C54.21 31.5 53.97 31.14 53.77 30.66C53.57 30.2 53.47 29.78 53.47 29.4C53.25 29.56 53.03 29.83 52.81 30.21C52.61 30.61 52.51 30.95 52.51 31.23C52.31 31.05 52.11 30.77 51.91 30.39C51.71 30.01 51.59 29.68 51.55 29.4C51.37 29.66 51.25 30.01 51.19 30.45C51.15 30.89 51.18 31.27 51.28 31.59C51.12 31.37 51.01 31.09 50.95 30.75C50.89 31.03 50.8 31.26 50.68 31.44C50.78 31.16 50.79 30.81 50.71 30.39C50.65 29.99 50.54 29.66 50.38 29.4C50.1 29.72 49.91 30.16 49.81 30.72C49.71 31.28 49.7 31.76 49.78 32.16C49.52 31.84 49.32 31.4 49.18 30.84C49.06 30.28 49.06 29.8 49.18 29.4C48.98 29.78 48.83 30.25 48.73 30.81C48.65 31.37 48.68 31.85 48.82 32.25C48.62 31.87 48.46 31.38 48.34 30.78C48.24 30.18 48.21 29.57 48.25 28.95ZM57.25 14.58C57.15 14.72 57.05 14.89 56.95 15.09C57.07 15.15 57.19 15.21 57.31 15.27C57.23 15.01 57.21 14.78 57.25 14.58ZM57.43 16.08C57.39 16.36 57.44 16.7 57.58 17.1C57.74 17.48 57.91 17.78 58.09 18C58.07 17.76 58.11 17.48 58.21 17.16C58.31 16.82 58.43 16.52 58.57 16.26C58.59 16.02 58.54 15.73 58.42 15.39C58.3 15.05 58.15 14.78 57.97 14.58C57.79 14.8 57.67 15.1 57.61 15.48C57.73 15.56 57.83 15.65 57.91 15.75C57.81 15.73 57.71 15.71 57.61 15.69C57.61 15.77 57.61 15.83 57.61 15.87C57.57 15.81 57.53 15.75 57.49 15.69C57.25 15.67 56.99 15.67 56.71 15.69C56.65 15.99 56.64 16.24 56.68 16.44C56.52 16.28 56.38 16.06 56.26 15.78C56 15.82 55.74 15.89 55.48 15.99C55.42 16.07 55.36 16.14 55.3 16.2C55.3 16.14 55.29 16.09 55.27 16.05C54.93 16.17 54.64 16.31 54.4 16.47C54.54 16.59 54.72 16.69 54.94 16.77C55.02 16.69 55.1 16.62 55.18 16.56C55.16 16.64 55.14 16.74 55.12 16.86C55.28 16.92 55.44 16.97 55.6 17.01C55.74 16.79 55.88 16.62 56.02 16.5C56.02 16.68 56.07 16.88 56.17 17.1C56.45 17.14 56.7 17.15 56.92 17.13C57.06 16.67 57.23 16.32 57.43 16.08ZM59.17 14.58C59.21 14.78 59.19 15.01 59.11 15.27C59.05 15.51 58.97 15.74 58.87 15.96C58.85 16.26 58.92 16.62 59.08 17.04C59.26 17.44 59.45 17.76 59.65 18C59.85 17.82 60.04 17.55 60.22 17.19C60.42 16.83 60.55 16.5 60.61 16.2C60.51 16.32 60.41 16.42 60.31 16.5C60.25 16.22 60.1 15.88 59.86 15.48C59.62 15.06 59.39 14.76 59.17 14.58ZM56.05 14.73C56.05 14.67 56.05 14.66 56.05 14.7V14.73ZM56.77 18C56.77 17.78 56.81 17.53 56.89 17.25C56.73 17.35 56.56 17.43 56.38 17.49C56.52 17.73 56.65 17.9 56.77 18ZM55.24 18C55.24 17.94 55.25 17.87 55.27 17.79H55.15C55.17 17.87 55.2 17.94 55.24 18ZM57.1 24.3C57.02 24.36 56.92 24.41 56.8 24.45C56.78 24.53 56.77 24.61 56.77 24.69C57.05 24.81 57.3 24.94 57.52 25.08C57.4 24.74 57.32 24.38 57.28 24C57.24 23.6 57.27 23.25 57.37 22.95C57.13 23.27 56.95 23.7 56.83 24.24C56.93 24.28 57.02 24.3 57.1 24.3ZM56.08 23.97V23.94C56.08 23.96 56.08 23.97 56.08 23.97ZM73.4702 29.94C73.3902 30.04 73.3002 30.24 73.2002 30.54C73.1002 30.84 73.0002 31.17 72.9002 31.53C72.8002 31.91 72.7202 32.25 72.6602 32.55C72.6202 32.87 72.6102 33.09 72.6302 33.21C72.5902 33.09 72.5502 32.87 72.5102 32.55C72.4902 32.25 72.4802 31.91 72.4802 31.53C72.4802 31.15 72.4902 30.8 72.5102 30.48C72.5302 30.16 72.5702 29.94 72.6302 29.82C72.4102 30 72.1902 30.26 71.9702 30.6C71.7702 30.96 71.6402 31.28 71.5802 31.56C71.4002 31.34 71.2902 31.02 71.2502 30.6C71.2102 30.18 71.2402 29.83 71.3402 29.55C71.2602 29.77 71.0902 30 70.8302 30.24C70.5902 30.5 70.3702 30.68 70.1702 30.78C70.2702 30.58 70.3002 30.3 70.2602 29.94C70.2402 29.58 70.1802 29.3 70.0802 29.1C69.7602 29.2 69.4202 29.42 69.0602 29.76C68.7202 30.1 68.5002 30.44 68.4002 30.78C68.3402 30.44 68.3802 30.05 68.5202 29.61C68.6602 29.15 68.8202 28.8 69.0002 28.56C68.7802 28.86 68.4402 29.12 67.9802 29.34C67.5402 29.54 67.1502 29.66 66.8102 29.7C67.1102 29.48 67.3702 29.14 67.5902 28.68C67.8102 28.2 67.9202 27.77 67.9202 27.39C67.5002 27.41 67.0302 27.56 66.5102 27.84C65.9902 28.12 65.6102 28.44 65.3702 28.8C65.6502 28.26 66.0802 27.79 66.6602 27.39C66.2002 27.53 65.8202 27.57 65.5202 27.51C65.8202 27.41 66.1402 27.23 66.4802 26.97C66.8402 26.71 67.0802 26.44 67.2002 26.16C66.9602 25.98 66.6002 25.83 66.1202 25.71C65.6602 25.57 65.2802 25.53 64.9802 25.59C65.1202 25.33 65.3602 25.03 65.7002 24.69C66.0602 24.35 66.3802 24.14 66.6602 24.06C66.4402 23.78 66.0702 23.55 65.5502 23.37C65.0502 23.19 64.6202 23.1 64.2602 23.1C64.5002 22.82 64.8602 22.56 65.3402 22.32C65.8202 22.08 66.2402 21.95 66.6002 21.93C66.3202 21.61 65.9102 21.3 65.3702 21C64.8102 20.7 64.3202 20.53 63.9002 20.49C64.2202 20.21 64.6802 19.97 65.2802 19.77C65.8802 19.57 66.3902 19.49 66.8102 19.53C66.6702 19.21 66.3902 18.89 65.9702 18.57C65.5702 18.25 65.1902 18.04 64.8302 17.94C65.1502 17.8 65.5402 17.73 66.0002 17.73C66.4802 17.71 66.8902 17.76 67.2302 17.88C67.0502 17.8 66.8702 17.68 66.6902 17.52C66.5102 17.34 66.3902 17.16 66.3302 16.98C66.4702 17.14 66.6802 17.26 66.9602 17.34C67.2402 17.42 67.4802 17.46 67.6802 17.46C67.4602 17.26 67.2302 16.98 66.9902 16.62C66.7702 16.24 66.6502 15.9 66.6302 15.6C66.8302 15.82 67.1402 16 67.5602 16.14C67.9802 16.28 68.3402 16.35 68.6402 16.35C68.7002 16.03 68.6402 15.65 68.4602 15.21C68.2802 14.77 68.0802 14.42 67.8602 14.16C68.1802 14.26 68.5302 14.45 68.9102 14.73C69.2902 15.01 69.5502 15.3 69.6902 15.6C69.8102 15.16 69.8002 14.64 69.6602 14.04C69.5402 13.44 69.3402 12.97 69.0602 12.63C69.4602 12.81 69.8402 13.15 70.2002 13.65C70.5602 14.15 70.7902 14.61 70.8902 15.03C71.0302 14.69 71.0602 14.27 70.9802 13.77C70.9202 13.27 70.8002 12.85 70.6202 12.51C70.9202 12.75 71.1802 13.09 71.4002 13.53C71.6402 13.97 71.7802 14.38 71.8202 14.76C72.0002 14.62 72.1902 14.37 72.3902 14.01C72.6102 13.63 72.7202 13.33 72.7202 13.11C72.9402 13.19 73.2002 13.38 73.5002 13.68C73.8002 13.96 73.9902 14.21 74.0702 14.43C74.0502 14.15 74.1002 13.81 74.2202 13.41C74.3402 13.01 74.5002 12.71 74.7002 12.51C74.7002 12.79 74.7702 13.12 74.9102 13.5C75.0502 13.88 75.2102 14.18 75.3902 14.4C75.3302 14.1 75.3702 13.75 75.5102 13.35C75.6502 12.95 75.8102 12.63 75.9902 12.39C75.8902 12.69 75.8802 13.05 75.9602 13.47C76.0602 13.87 76.1902 14.2 76.3502 14.46C76.6102 14.34 76.8702 14.09 77.1302 13.71C77.3902 13.31 77.5602 12.97 77.6402 12.69C77.8202 12.91 77.9702 13.24 78.0902 13.68C78.2302 14.12 78.2902 14.48 78.2702 14.76C78.4702 14.64 78.6602 14.44 78.8402 14.16C79.0202 13.86 79.1202 13.58 79.1402 13.32C79.2402 13.54 79.2802 13.82 79.2602 14.16C79.2402 14.5 79.1802 14.78 79.0802 15C79.2602 14.96 79.4702 14.85 79.7102 14.67C79.9502 14.47 80.1102 14.29 80.1902 14.13C80.2902 14.29 80.3502 14.53 80.3702 14.85C80.3902 15.15 80.3602 15.38 80.2802 15.54C80.4402 15.36 80.7002 15.19 81.0602 15.03C81.4402 14.87 81.7502 14.8 81.9902 14.82C81.8502 15.02 81.7502 15.32 81.6902 15.72C81.6502 16.1 81.6602 16.41 81.7202 16.65C82.1002 16.75 82.5702 16.75 83.1302 16.65C83.7102 16.53 84.1602 16.36 84.4802 16.14C84.4402 16.54 84.2502 16.98 83.9102 17.46C83.5702 17.94 83.2402 18.28 82.9202 18.48C83.2602 18.62 83.6802 18.67 84.1802 18.63C84.7002 18.57 85.1102 18.44 85.4102 18.24C85.1902 18.54 84.8602 18.83 84.4202 19.11C84.0002 19.37 83.6102 19.5 83.2502 19.5C83.4502 19.5 83.7102 19.57 84.0302 19.71C84.3502 19.83 84.5802 19.97 84.7202 20.13C84.5202 20.19 84.2802 20.32 84.0002 20.52C83.7402 20.72 83.5602 20.91 83.4602 21.09C83.7402 21.27 84.1002 21.39 84.5402 21.45C85.0002 21.51 85.3902 21.49 85.7102 21.39C85.4902 21.55 85.2002 21.67 84.8402 21.75C85.2802 21.83 85.6702 21.96 86.0102 22.14C85.6702 22 85.2402 21.98 84.7202 22.08C84.2202 22.16 83.8002 22.29 83.4602 22.47C83.6002 22.69 83.8402 22.95 84.1802 23.25C84.5402 23.55 84.8502 23.74 85.1102 23.82C84.9302 24.02 84.6402 24.24 84.2402 24.48C83.8402 24.72 83.5102 24.85 83.2502 24.87C83.5102 24.85 83.8002 24.92 84.1202 25.08C84.4402 25.22 84.6802 25.39 84.8402 25.59C84.6202 25.45 84.3302 25.37 83.9702 25.35C83.6302 25.33 83.3402 25.37 83.1002 25.47C83.1202 25.67 83.2102 25.94 83.3702 26.28C83.5302 26.62 83.7002 26.85 83.8802 26.97C83.7202 27.09 83.4502 27.19 83.0702 27.27C82.6902 27.33 82.4002 27.34 82.2002 27.3C82.4602 27.48 82.7002 27.77 82.9202 28.17C83.1602 28.55 83.2802 28.9 83.2802 29.22C83.0802 28.98 82.7802 28.76 82.3802 28.56C81.9802 28.34 81.6202 28.24 81.3002 28.26C81.2002 28.4 81.1002 28.66 81.0002 29.04C80.9002 29.4 80.8602 29.67 80.8802 29.85C80.7002 29.89 80.4302 29.85 80.0702 29.73C79.7102 29.59 79.4602 29.47 79.3202 29.37C79.2602 29.49 79.2202 29.72 79.2002 30.06C79.1802 30.42 79.1802 30.8 79.2002 31.2C79.2202 31.62 79.2402 32 79.2602 32.34C79.3002 32.7 79.3402 32.94 79.3802 33.06C79.2802 32.96 79.1102 32.73 78.8702 32.37C78.6502 32.01 78.4302 31.62 78.2102 31.2C78.0102 30.78 77.8602 30.43 77.7602 30.15C77.8202 30.51 77.8002 30.9 77.7002 31.32C77.6002 31.76 77.4802 32.13 77.3402 32.43C77.3802 32.05 77.2902 31.61 77.0702 31.11C76.8702 30.61 76.6302 30.22 76.3502 29.94C76.3502 30.14 76.2802 30.37 76.1402 30.63C76.0202 30.91 75.8902 31.11 75.7502 31.23C75.7302 31.05 75.5802 30.82 75.3002 30.54C75.0202 30.28 74.4102 30.08 73.4702 29.94ZM75.5402 25.74C75.5802 25.56 75.5602 25.35 75.4802 25.11C75.4202 24.85 75.3402 24.64 75.2402 24.48C75.4202 24.5 75.6202 24.59 75.8402 24.75C76.0802 24.89 76.2502 25.03 76.3502 25.17C76.2502 24.99 76.0802 24.81 75.8402 24.63C75.6002 24.43 75.3802 24.32 75.1802 24.3C75.3602 24.2 75.6002 24.13 75.9002 24.09C76.2002 24.03 76.4402 24.04 76.6202 24.12C76.5202 23.98 76.3602 23.86 76.1402 23.76C75.9202 23.66 75.7302 23.6 75.5702 23.58C75.6902 23.48 75.8602 23.4 76.0802 23.34C76.3202 23.26 76.5202 23.22 76.6802 23.22C76.4202 23.2 76.2002 23.1 76.0202 22.92C76.1202 22.92 76.2402 22.89 76.3802 22.83C76.5202 22.77 76.6302 22.7 76.7102 22.62C76.5702 22.64 76.4102 22.62 76.2302 22.56C76.0502 22.5 75.9102 22.42 75.8102 22.32C75.9502 22.32 76.1102 22.3 76.2902 22.26C76.4702 22.2 76.6102 22.12 76.7102 22.02C76.5702 22.02 76.4102 21.99 76.2302 21.93C76.0502 21.85 75.9202 21.76 75.8402 21.66C75.9802 21.66 76.1302 21.62 76.2902 21.54C76.4702 21.46 76.6002 21.37 76.6802 21.27C76.6002 21.19 76.4702 21.12 76.2902 21.06C76.1102 20.98 75.9602 20.94 75.8402 20.94C75.9202 20.84 76.0402 20.75 76.2002 20.67C76.3802 20.57 76.5302 20.52 76.6502 20.52C76.4902 20.38 76.2502 20.29 75.9302 20.25C75.6102 20.19 75.3602 20.19 75.1802 20.25C75.2602 20.09 75.4302 19.92 75.6902 19.74C75.5702 19.76 75.4602 19.77 75.3602 19.77C75.5002 19.67 75.6202 19.52 75.7202 19.32C75.8202 19.12 75.8702 18.94 75.8702 18.78C75.7302 18.9 75.6002 19.06 75.4802 19.26C75.3602 19.44 75.2702 19.64 75.2102 19.86C75.1902 20.18 75.1302 20.44 75.0302 20.64C75.0302 20.64 75.0302 20.62 75.0302 20.58C74.9902 20.46 74.9502 20.32 74.9102 20.16C74.7102 20.24 74.4602 20.29 74.1602 20.31C73.8802 20.31 73.6402 20.26 73.4402 20.16C73.5602 20.3 73.7302 20.43 73.9502 20.55C74.1702 20.65 74.3702 20.7 74.5502 20.7C74.2902 20.88 73.9902 20.99 73.6502 21.03C73.9902 21.07 74.2502 21.19 74.4302 21.39C74.2702 21.35 74.0802 21.36 73.8602 21.42C73.6602 21.48 73.4902 21.56 73.3502 21.66C73.4502 21.76 73.5902 21.86 73.7702 21.96C73.9702 22.04 74.1402 22.08 74.2802 22.08C74.2002 22.2 74.0602 22.3 73.8602 22.38C73.6602 22.46 73.4902 22.5 73.3502 22.5C73.5102 22.48 73.6902 22.5 73.8902 22.56C74.1102 22.62 74.2802 22.7 74.4002 22.8C74.0202 22.76 73.6802 22.87 73.3802 23.13C73.5802 23.09 73.8202 23.11 74.1002 23.19C74.4002 23.27 74.6302 23.39 74.7902 23.55C74.5702 23.53 74.3202 23.59 74.0402 23.73C73.7802 23.85 73.5802 23.99 73.4402 24.15C73.5802 24.11 73.7602 24.12 73.9802 24.18C74.2202 24.22 74.4002 24.29 74.5202 24.39C74.3802 24.41 74.2202 24.5 74.0402 24.66C73.8602 24.82 73.7402 24.97 73.6802 25.11C73.7602 25.03 73.8902 24.97 74.0702 24.93C74.2502 24.87 74.3802 24.85 74.4602 24.87C74.5802 24.43 74.7502 24.08 74.9702 23.82C74.8302 24.08 74.7902 24.41 74.8502 24.81C74.9302 25.19 75.1602 25.5 75.5402 25.74ZM73.6802 19.35C73.7802 19.53 73.9602 19.7 74.2202 19.86C74.4802 20 74.7102 20.09 74.9102 20.13C74.8902 20.07 74.8802 20.01 74.8802 19.95C74.8002 19.73 74.7002 19.52 74.5802 19.32C74.4602 19.1 74.3202 18.93 74.1602 18.81C74.2002 18.99 74.2802 19.2 74.4002 19.44C74.5402 19.66 74.6902 19.81 74.8502 19.89C74.6702 19.89 74.4502 19.84 74.1902 19.74C73.9502 19.62 73.7802 19.49 73.6802 19.35ZM74.4302 25.71C74.3902 25.59 74.3802 25.47 74.4002 25.35C74.3802 25.51 74.3902 25.63 74.4302 25.71ZM86.5382 28.23C86.3782 28.11 86.1682 28 85.9082 27.9C85.6482 27.8 85.4182 27.77 85.2182 27.81C85.3782 27.69 85.5882 27.58 85.8482 27.48C86.1082 27.38 86.3382 27.35 86.5382 27.39C86.3182 27.15 85.9682 26.94 85.4882 26.76C85.0282 26.58 84.6282 26.49 84.2882 26.49C84.4482 26.33 84.6582 26.18 84.9182 26.04C85.1982 25.9 85.4882 25.79 85.7882 25.71C85.4482 25.73 85.1082 25.71 84.7682 25.65C84.4082 25.57 84.1082 25.46 83.8682 25.32C84.2482 25.46 84.6982 25.5 85.2182 25.44C85.7582 25.38 86.1982 25.24 86.5382 25.02C86.1782 25.1 85.7382 25.06 85.2182 24.9C84.7182 24.74 84.3182 24.54 84.0182 24.3C84.3782 24.38 84.8182 24.34 85.3382 24.18C85.8582 24.02 86.2582 23.82 86.5382 23.58C86.3582 23.36 86.0782 23.18 85.6982 23.04C85.3182 22.9 84.9882 22.82 84.7082 22.8C84.8882 22.6 85.1682 22.42 85.5482 22.26C85.9282 22.1 86.2582 22.02 86.5382 22.02C86.3182 21.78 85.9782 21.54 85.5182 21.3C85.0782 21.04 84.6982 20.9 84.3782 20.88C84.5982 20.64 84.9282 20.4 85.3682 20.16C85.8082 19.92 86.1682 19.79 86.4482 19.77C86.0882 19.81 85.6682 19.78 85.1882 19.68C84.7082 19.56 84.3282 19.38 84.0482 19.14C84.4282 19.2 84.8582 19.18 85.3382 19.08C85.8382 18.96 86.2382 18.79 86.5382 18.57C86.4182 18.37 86.1982 18.17 85.8782 17.97C85.5582 17.77 85.2882 17.67 85.0682 17.67C85.1882 17.49 85.3982 17.3 85.6982 17.1C86.0182 16.9 86.2582 16.8 86.4182 16.8C85.9982 16.86 85.5182 16.83 84.9782 16.71C84.4382 16.59 84.0082 16.41 83.6882 16.17C84.1082 16.25 84.6082 16.24 85.1882 16.14C85.7682 16.04 86.2182 15.85 86.5382 15.57C86.4582 15.35 86.2882 15.14 86.0282 14.94C85.7882 14.72 85.5682 14.59 85.3682 14.55C85.5682 14.45 85.8282 14.43 86.1482 14.49C86.4682 14.53 86.7282 14.6 86.9282 14.7C87.0482 14.58 87.1682 14.39 87.2882 14.13C87.4082 13.87 87.4582 13.64 87.4382 13.44C87.6782 13.66 87.8482 13.97 87.9482 14.37C87.9282 13.85 88.0682 13.4 88.3682 13.02C88.2882 13.26 88.2882 13.55 88.3682 13.89C88.4682 14.23 88.5882 14.5 88.7282 14.7C89.0282 14.38 89.2482 13.92 89.3882 13.32C89.5282 12.7 89.5682 12.17 89.5082 11.73C89.8082 12.05 90.0182 12.52 90.1382 13.14C90.2582 13.74 90.2982 14.26 90.2582 14.7C90.4782 14.58 90.7182 14.34 90.9782 13.98C91.2582 13.62 91.4182 13.32 91.4582 13.08C91.6782 13.2 91.9082 13.45 92.1482 13.83C92.3882 14.21 92.5282 14.52 92.5682 14.76C92.6482 14.78 92.7482 14.8 92.8682 14.82C92.7682 14.28 92.7582 13.84 92.8382 13.5C93.1582 13.94 93.6182 14.32 94.2182 14.64C94.5782 14.54 94.8582 14.43 95.0582 14.31C95.0182 13.95 95.0282 13.58 95.0882 13.2C95.1482 12.8 95.2382 12.46 95.3582 12.18C95.4382 12.58 95.6382 13.02 95.9582 13.5C96.2982 13.98 96.6482 14.31 97.0082 14.49C96.8682 14.13 96.8382 13.69 96.9182 13.17C96.9982 12.63 97.1382 12.2 97.3382 11.88C97.2782 12.26 97.3282 12.7 97.4882 13.2C97.6482 13.7 97.8482 14.1 98.0882 14.4C98.0282 14 98.0582 13.54 98.1782 13.02C98.3182 12.5 98.5082 12.07 98.7482 11.73C98.6082 12.11 98.5582 12.58 98.5982 13.14C98.6582 13.68 98.7982 14.12 99.0182 14.46C99.2982 14.24 99.5682 13.91 99.8282 13.47C100.088 13.01 100.248 12.6 100.308 12.24C100.468 12.54 100.548 12.92 100.548 13.38C100.568 13.82 100.518 14.22 100.398 14.58C100.558 14.22 100.788 13.87 101.088 13.53C101.408 13.19 101.718 12.95 102.018 12.81C101.758 13.07 101.548 13.46 101.388 13.98C101.248 14.5 101.198 14.95 101.238 15.33C101.478 15.35 101.768 15.3 102.108 15.18C102.448 15.04 102.698 14.88 102.858 14.7C102.878 14.94 102.828 15.24 102.708 15.6C102.588 15.94 102.448 16.19 102.288 16.35C102.588 16.17 103.018 16.07 103.578 16.05C104.138 16.03 104.588 16.09 104.928 16.23C104.588 16.37 104.248 16.66 103.908 17.1C103.588 17.54 103.368 17.93 103.248 18.27C103.408 18.33 103.608 18.37 103.848 18.39C104.108 18.39 104.318 18.35 104.478 18.27C104.358 18.41 104.188 18.55 103.968 18.69C103.768 18.81 103.578 18.87 103.398 18.87C103.638 19.05 103.958 19.2 104.358 19.32C104.778 19.42 105.138 19.45 105.438 19.41C105.258 19.65 104.978 19.87 104.598 20.07C104.218 20.27 103.888 20.39 103.608 20.43C103.908 20.71 104.328 20.9 104.868 21C105.428 21.1 105.908 21.12 106.308 21.06C105.988 21.32 105.558 21.53 105.018 21.69C104.478 21.83 104.008 21.85 103.608 21.75C103.868 21.97 104.218 22.16 104.658 22.32C105.098 22.48 105.488 22.55 105.828 22.53C105.648 22.71 105.388 22.88 105.048 23.04C104.728 23.18 104.408 23.27 104.088 23.31C104.508 23.35 104.868 23.47 105.168 23.67C104.948 23.61 104.678 23.62 104.358 23.7C104.038 23.76 103.788 23.87 103.608 24.03C104.028 23.91 104.518 23.88 105.078 23.94C105.658 24 106.128 24.15 106.488 24.39C106.088 24.25 105.598 24.22 105.018 24.3C104.438 24.36 103.968 24.51 103.608 24.75C103.728 24.89 103.908 25.02 104.148 25.14C104.408 25.26 104.628 25.33 104.808 25.35C104.748 25.45 104.638 25.54 104.478 25.62C104.338 25.7 104.198 25.77 104.058 25.83C104.458 25.77 104.898 25.78 105.378 25.86C105.858 25.94 106.248 26.09 106.548 26.31C106.128 26.21 105.628 26.19 105.048 26.25C104.468 26.31 103.988 26.45 103.608 26.67C103.808 26.61 104.178 26.61 104.718 26.67C105.278 26.71 105.878 26.79 106.518 26.91C107.178 27.03 107.768 27.16 108.288 27.3C108.828 27.44 109.188 27.57 109.368 27.69C109.168 27.63 108.788 27.63 108.228 27.69C107.668 27.73 107.068 27.81 106.428 27.93C105.788 28.03 105.198 28.15 104.658 28.29C104.138 28.43 103.788 28.57 103.608 28.71C103.708 28.89 103.868 29.09 104.088 29.31C104.328 29.51 104.548 29.65 104.748 29.73C104.568 29.81 104.318 29.85 103.998 29.85C103.678 29.85 103.418 29.8 103.218 29.7C103.058 29.94 102.918 30.26 102.798 30.66C102.698 31.08 102.668 31.44 102.708 31.74C102.448 31.4 102.268 30.97 102.168 30.45C102.108 30.85 101.978 31.17 101.778 31.41C101.838 31.15 101.828 30.85 101.748 30.51C101.688 30.17 101.578 29.9 101.418 29.7C101.458 30.08 101.368 30.53 101.148 31.05C100.948 31.57 100.698 31.95 100.398 32.19C100.438 31.81 100.348 31.36 100.128 30.84C99.9082 30.34 99.6682 29.96 99.4082 29.7C99.1682 29.9 98.9582 30.21 98.7782 30.63C98.5982 31.07 98.5082 31.44 98.5082 31.74C98.2882 31.52 98.0882 31.2 97.9082 30.78C97.7282 30.36 97.6282 30 97.6082 29.7C97.4882 29.78 97.3082 29.84 97.0682 29.88C96.8482 29.92 96.6682 29.92 96.5282 29.88C96.6282 29.78 96.7082 29.62 96.7682 29.4C96.8282 29.16 96.8582 28.97 96.8582 28.83C96.7182 28.83 96.5482 28.8 96.3482 28.74C96.1682 28.66 96.0282 28.57 95.9282 28.47C96.0682 28.49 96.2382 28.47 96.4382 28.41C96.6382 28.33 96.7782 28.23 96.8582 28.11C96.7382 28.05 96.5782 27.91 96.3782 27.69C96.1782 27.47 96.0582 27.3 96.0182 27.18C96.1382 27.12 96.2982 26.98 96.4982 26.76C96.7182 26.52 96.8382 26.34 96.8582 26.22C96.5782 26.2 96.2482 26.11 95.8682 25.95C95.5082 25.77 95.2282 25.58 95.0282 25.38C95.3082 25.4 95.6382 25.32 96.0182 25.14C96.3982 24.96 96.6782 24.77 96.8582 24.57C96.6182 24.55 96.3282 24.46 95.9882 24.3C95.6682 24.14 95.4282 23.97 95.2682 23.79C95.5082 23.77 95.7882 23.69 96.1082 23.55C96.4482 23.39 96.6982 23.21 96.8582 23.01C96.8182 22.89 96.6782 22.71 96.4382 22.47C96.2182 22.21 96.0482 22.05 95.9282 21.99C95.9682 21.87 96.0982 21.69 96.3182 21.45C96.5582 21.19 96.7382 21.03 96.8582 20.97C96.7582 20.89 96.6082 20.82 96.4082 20.76C96.2082 20.7 96.0282 20.67 95.8682 20.67C95.5882 21.23 95.2882 21.66 94.9682 21.96C95.0282 21.64 95.0182 21.26 94.9382 20.82C94.8582 20.36 94.7282 19.96 94.5482 19.62C94.7082 19.98 94.7682 20.29 94.7282 20.55C94.6282 20.39 94.4582 20.24 94.2182 20.1C93.9982 19.94 93.7982 19.85 93.6182 19.83C93.6182 19.95 93.6982 20.15 93.8582 20.43C94.0382 20.69 94.1782 20.86 94.2782 20.94C94.2382 21.06 94.0882 21.21 93.8282 21.39C93.5682 21.57 93.3782 21.68 93.2582 21.72C93.3582 21.86 93.5282 22.04 93.7682 22.26C94.0282 22.46 94.2482 22.57 94.4282 22.59C94.3282 22.75 94.1482 22.93 93.8882 23.13C93.6282 23.33 93.4182 23.45 93.2582 23.49C93.4182 23.63 93.6382 23.73 93.9182 23.79C94.2182 23.83 94.4782 23.83 94.6982 23.79C94.4982 23.91 94.2582 24 93.9782 24.06C93.7182 24.12 93.4782 24.13 93.2582 24.09C93.4382 24.13 93.6582 24.24 93.9182 24.42C94.1982 24.6 94.3982 24.77 94.5182 24.93C94.3382 24.97 94.1082 25.08 93.8282 25.26C93.5482 25.42 93.3582 25.58 93.2582 25.74C93.4782 25.7 93.7382 25.73 94.0382 25.83C94.3382 25.91 94.5682 26.02 94.7282 26.16C94.5082 26.12 94.2482 26.15 93.9482 26.25C93.6482 26.33 93.4182 26.44 93.2582 26.58C93.5582 26.54 93.9182 26.6 94.3382 26.76C94.7582 26.92 95.0682 27.12 95.2682 27.36C94.9682 27.34 94.6082 27.41 94.1882 27.57C93.7882 27.73 93.4782 27.91 93.2582 28.11C93.4982 28.27 93.7582 28.51 94.0382 28.83C94.3182 29.15 94.4982 29.45 94.5782 29.73C94.3182 29.61 93.9682 29.54 93.5282 29.52C93.1082 29.5 92.7682 29.56 92.5082 29.7C92.3082 30.02 92.1582 30.43 92.0582 30.93C91.9582 31.45 91.9682 31.89 92.0882 32.25C91.9282 32.01 91.7982 31.71 91.6982 31.35C91.6182 30.99 91.5882 30.65 91.6082 30.33C91.5282 30.67 91.4082 31.01 91.2482 31.35C91.1082 31.69 90.9382 31.95 90.7382 32.13C90.7582 31.77 90.6682 31.34 90.4682 30.84C90.2682 30.34 90.0382 29.96 89.7782 29.7C89.8382 30.06 89.8382 30.48 89.7782 30.96C89.7182 31.46 89.5782 31.86 89.3582 32.16C89.4782 31.8 89.4982 31.37 89.4182 30.87C89.3382 30.37 89.1782 29.98 88.9382 29.7C88.6782 29.9 88.4582 30.24 88.2782 30.72C88.0982 31.2 88.0082 31.61 88.0082 31.95C87.7482 31.73 87.4982 31.32 87.2582 30.72C87.0182 30.14 86.7782 29.31 86.5382 28.23ZM95.2382 15C95.1582 14.84 95.0982 14.63 95.0582 14.37C94.9982 14.53 94.9082 14.71 94.7882 14.91C94.9482 14.97 95.0982 15 95.2382 15ZM109.109 34.14C108.909 33.84 108.609 33.54 108.209 33.24C107.809 32.96 107.439 32.78 107.099 32.7C107.439 32.64 107.849 32.64 108.329 32.7C108.829 32.78 109.219 32.93 109.499 33.15C109.319 33.03 109.119 32.79 108.899 32.43C108.679 32.09 108.549 31.81 108.509 31.59C108.729 31.61 109.039 31.58 109.439 31.5C109.859 31.44 110.159 31.34 110.339 31.2C109.919 31.14 109.469 30.94 108.989 30.6C108.529 30.26 108.209 29.9 108.029 29.52C108.389 29.72 108.839 29.87 109.379 29.97C109.939 30.05 110.419 30.06 110.819 30C110.599 29.7 110.269 29.42 109.829 29.16C109.409 28.9 109.009 28.77 108.629 28.77C108.969 28.63 109.389 28.56 109.889 28.56C110.409 28.54 110.829 28.62 111.149 28.8C110.949 28.64 110.639 28.53 110.219 28.47C109.799 28.41 109.479 28.41 109.259 28.47C109.319 28.25 109.459 27.97 109.679 27.63C109.919 27.29 110.139 27.05 110.339 26.91C110.079 27.11 109.729 27.26 109.289 27.36C108.869 27.44 108.509 27.44 108.209 27.36C108.529 27.3 108.859 27.15 109.199 26.91C109.559 26.67 109.829 26.41 110.009 26.13C109.629 26.33 109.129 26.47 108.509 26.55C107.909 26.63 107.399 26.6 106.979 26.46C107.399 26.3 107.849 26.03 108.329 25.65C108.809 25.27 109.139 24.88 109.319 24.48C109.079 24.6 108.749 24.66 108.329 24.66C107.929 24.66 107.609 24.62 107.369 24.54C107.609 24.44 107.879 24.25 108.179 23.97C108.479 23.69 108.669 23.42 108.749 23.16C108.529 23.06 108.229 23 107.849 22.98C107.489 22.96 107.189 22.99 106.949 23.07C107.049 22.85 107.219 22.6 107.459 22.32C107.699 22.04 107.929 21.84 108.149 21.72C107.749 21.54 107.229 21.49 106.589 21.57C105.969 21.63 105.469 21.77 105.089 21.99C105.269 21.63 105.549 21.27 105.929 20.91C106.329 20.53 106.719 20.25 107.099 20.07C106.879 20.13 106.629 20.16 106.349 20.16C106.089 20.14 105.869 20.1 105.689 20.04C105.929 19.96 106.169 19.8 106.409 19.56C106.669 19.3 106.839 19.06 106.919 18.84C106.679 18.68 106.319 18.59 105.839 18.57C105.359 18.55 104.979 18.59 104.699 18.69C104.799 18.41 104.989 18.08 105.269 17.7C105.569 17.32 105.859 17.08 106.139 16.98C105.839 17.12 105.429 17.2 104.909 17.22C104.409 17.24 104.009 17.18 103.709 17.04C104.029 16.9 104.369 16.66 104.729 16.32C105.089 15.98 105.329 15.65 105.449 15.33C105.209 15.19 104.979 14.98 104.759 14.7C104.539 14.42 104.409 14.15 104.369 13.89C104.529 14.09 104.769 14.27 105.089 14.43C105.409 14.59 105.699 14.68 105.959 14.7C105.939 14.48 105.999 14.22 106.139 13.92C106.299 13.6 106.459 13.36 106.619 13.2C106.599 13.42 106.659 13.69 106.799 14.01C106.939 14.31 107.089 14.54 107.249 14.7C107.409 14.58 107.549 14.39 107.669 14.13C107.789 13.85 107.849 13.61 107.849 13.41C107.989 13.51 108.109 13.68 108.209 13.92C108.329 14.16 108.399 14.37 108.419 14.55C108.439 14.25 108.529 13.92 108.689 13.56C108.869 13.18 109.059 12.9 109.259 12.72C109.259 13.02 109.339 13.38 109.499 13.8C109.679 14.2 109.869 14.5 110.069 14.7C110.369 14.46 110.609 14.1 110.789 13.62C110.969 13.14 111.059 12.72 111.059 12.36C111.239 12.68 111.359 13.09 111.419 13.59C111.499 14.09 111.489 14.52 111.389 14.88C111.689 14.96 112.049 14.96 112.469 14.88C112.909 14.78 113.259 14.64 113.519 14.46C113.339 14.72 113.079 14.99 112.739 15.27C112.419 15.53 112.109 15.7 111.809 15.78C112.029 15.94 112.379 16.06 112.859 16.14C113.339 16.22 113.729 16.23 114.029 16.17C113.949 16.45 113.749 16.78 113.429 17.16C113.109 17.52 112.819 17.77 112.559 17.91C112.639 18.01 112.809 18.13 113.069 18.27C113.349 18.41 113.559 18.49 113.699 18.51C113.699 18.63 113.639 18.84 113.519 19.14C113.419 19.42 113.319 19.6 113.219 19.68C113.379 19.62 113.579 19.59 113.819 19.59C113.799 19.55 113.779 19.5 113.759 19.44C114.019 19.5 114.349 19.5 114.749 19.44C115.169 19.38 115.489 19.28 115.709 19.14C115.509 19.1 115.289 18.98 115.049 18.78C114.829 18.56 114.679 18.35 114.599 18.15C114.779 18.25 115.019 18.3 115.319 18.3C115.639 18.3 115.889 18.25 116.069 18.15C116.089 18.01 116.039 17.78 115.919 17.46C115.799 17.14 115.699 16.93 115.619 16.83C115.699 16.73 115.879 16.59 116.159 16.41C116.459 16.23 116.679 16.14 116.819 16.14C116.719 15.82 116.519 15.47 116.219 15.09C115.939 14.71 115.649 14.45 115.349 14.31C115.669 14.25 116.069 14.26 116.549 14.34C117.029 14.4 117.399 14.53 117.659 14.73C117.579 14.45 117.559 14.13 117.599 13.77C117.659 13.39 117.749 13.08 117.869 12.84C117.809 13.1 117.819 13.42 117.899 13.8C117.979 14.16 118.099 14.46 118.259 14.7C118.179 14.36 118.159 13.96 118.199 13.5C118.239 13.02 118.359 12.63 118.559 12.33C118.459 12.67 118.429 13.08 118.469 13.56C118.529 14.02 118.659 14.4 118.859 14.7C119.079 14.46 119.269 14.12 119.429 13.68C119.589 13.22 119.679 12.83 119.699 12.51C119.899 12.75 120.079 13.1 120.239 13.56C120.419 14 120.509 14.38 120.509 14.7C120.509 14.3 120.619 13.82 120.839 13.26C121.059 12.68 121.329 12.26 121.649 12C121.669 12.4 121.789 12.88 122.009 13.44C122.249 13.98 122.509 14.4 122.789 14.7C122.989 14.68 123.229 14.73 123.509 14.85C123.809 14.95 124.039 15.07 124.199 15.21C123.999 15.23 123.759 15.33 123.479 15.51C123.219 15.67 123.039 15.84 122.939 16.02C123.319 16.08 123.719 16.27 124.139 16.59C124.579 16.91 124.879 17.24 125.039 17.58C124.739 17.34 124.329 17.18 123.809 17.1C123.289 17 122.839 17 122.459 17.1C122.619 17.42 122.879 17.77 123.239 18.15C123.619 18.51 123.979 18.73 124.319 18.81C123.979 18.93 123.549 18.98 123.029 18.96C122.509 18.94 122.099 18.84 121.799 18.66C121.919 19 122.159 19.39 122.519 19.83C122.879 20.25 123.229 20.52 123.569 20.64C123.229 20.8 122.779 20.89 122.219 20.91C121.679 20.93 121.239 20.88 120.899 20.76C120.979 21.08 121.189 21.45 121.529 21.87C121.869 22.29 122.199 22.56 122.519 22.68C122.219 22.84 121.799 22.94 121.259 22.98C120.739 23 120.319 22.96 119.999 22.86C120.259 23.2 120.629 23.5 121.109 23.76C121.609 24.02 122.069 24.18 122.489 24.24C122.209 24.3 121.889 24.29 121.529 24.21C121.169 24.13 120.829 24.02 120.509 23.88C121.049 24.36 121.409 24.85 121.589 25.35C121.249 25.23 120.799 25.17 120.239 25.17C119.699 25.17 119.259 25.24 118.919 25.38C119.139 25.76 119.499 26.1 119.999 26.4C120.519 26.68 120.999 26.86 121.439 26.94C121.019 27.02 120.519 26.98 119.939 26.82C119.379 26.66 118.929 26.44 118.589 26.16C118.709 26.42 118.929 26.68 119.249 26.94C119.569 27.2 119.869 27.36 120.149 27.42C119.869 27.48 119.529 27.49 119.129 27.45C118.729 27.41 118.409 27.31 118.169 27.15C118.289 27.53 118.559 27.93 118.979 28.35C119.419 28.75 119.819 29.03 120.179 29.19C119.819 29.37 119.339 29.45 118.739 29.43C118.139 29.39 117.659 29.29 117.299 29.13C117.479 29.47 117.789 29.79 118.229 30.09C118.669 30.39 119.079 30.57 119.459 30.63C119.139 30.73 118.749 30.74 118.289 30.66C117.849 30.6 117.469 30.48 117.149 30.3C117.369 30.48 117.579 30.72 117.779 31.02C117.979 31.32 118.109 31.58 118.169 31.8C117.909 31.7 117.559 31.67 117.119 31.71C116.679 31.77 116.329 31.86 116.069 31.98C116.309 32.08 116.549 32.27 116.789 32.55C117.029 32.83 117.199 33.08 117.299 33.3C117.079 33.22 116.779 33.18 116.399 33.18C116.039 33.18 115.739 33.23 115.499 33.33C115.539 33.57 115.669 33.88 115.889 34.26C116.129 34.66 116.359 34.93 116.579 35.07C116.359 35.21 116.019 35.29 115.559 35.31C115.119 35.35 114.779 35.33 114.539 35.25C114.359 35.57 114.229 35.96 114.149 36.42C114.089 36.9 114.109 37.31 114.209 37.65C113.949 37.41 113.739 37.06 113.579 36.6C113.419 36.16 113.339 35.76 113.339 35.4C113.079 35.7 112.869 36.11 112.709 36.63C112.569 37.17 112.539 37.63 112.619 38.01C112.399 37.75 112.219 37.4 112.079 36.96C111.959 36.52 111.899 36.11 111.899 35.73C111.859 36.07 111.739 36.43 111.539 36.81C111.359 37.19 111.159 37.47 110.939 37.65C110.919 37.31 110.819 36.9 110.639 36.42C110.459 35.94 110.239 35.6 109.979 35.4C109.979 35.6 109.939 35.83 109.859 36.09C109.799 36.37 109.699 36.58 109.559 36.72C109.579 36.52 109.549 36.23 109.469 35.85C109.389 35.47 109.269 34.9 109.109 34.14ZM115.049 20.94C114.849 20.84 114.629 20.66 114.389 20.4C114.249 20.54 114.129 20.68 114.029 20.82C114.449 20.78 114.789 20.82 115.049 20.94Z" fill="black"/>
<defs>
<filter id="filter0_d_33_59" x="0" y="0" width="40" height="44" filterUnits="userSpaceOnUse" color-interpolation-filters="sRGB">
<feFlood flood-opacity="0" result="BackgroundImageFix"/>
<feColorMatrix in="SourceAlpha" type="matrix" values="0 0 0 0 0 0 0 0 0 0 0 0 0 0 0 0 0 0 127 0" result="hardAlpha"/>
<feOffset dy="4"/>
<feComposite in2="hardAlpha" operator="out"/>
<feColorMatrix type="matrix" values="0 0 0 0 0 0 0 0 0 0 0 0 0 0 0 0 0 0 1 0"/>
<feBlend mode="normal" in2="BackgroundImageFix" result="effect1_dropShadow_33_59"/>
<feBlend mode="normal" in="SourceGraphic" in2="effect1_dropShadow_33_59" result="shape"/>
</filter>
</defs>
</svg>
