<svg width="162" height="24" viewBox="0 0 162 24" fill="none" xmlns="http://www.w3.org/2000/svg">
<path fill-rule="evenodd" clip-rule="evenodd" d="M6.18182 10.3333C5.20406 10.3333 5 10.5252 5 11.4444V13.1111C5 14.0304 5.20406 14.2222 6.18182 14.2222H8.54545V20.8889C8.54545 21.8081 8.74951 22 9.72727 22H12.0909C13.0687 22 13.2727 21.8081 13.2727 20.8889V14.2222H15.9267C16.6683 14.2222 16.8594 14.0867 17.0631 13.4164L17.5696 11.7497C17.9185 10.6014 17.7035 10.3333 16.4332 10.3333H13.2727V7.55556C13.2727 6.94191 13.8018 6.44444 14.4545 6.44444H17.8182C18.7959 6.44444 19 6.25259 19 5.33333V3.11111C19 2.19185 18.7959 2 17.8182 2H14.4545C11.191 2 8.54545 4.48731 8.54545 7.55556V10.3333H6.18182Z" stroke="#363636" stroke-width="1.5" stroke-linejoin="round"/>
<path d="M48.5 12C48.5 7.52166 48.5 5.28249 49.8912 3.89124C51.2825 2.5 53.5217 2.5 58 2.5C62.4783 2.5 64.7175 2.5 66.1088 3.89124C67.5 5.28249 67.5 7.52166 67.5 12C67.5 16.4783 67.5 18.7175 66.1088 20.1088C64.7175 21.5 62.4783 21.5 58 21.5C53.5217 21.5 51.2825 21.5 49.8912 20.1088C48.5 18.7175 48.5 16.4783 48.5 12Z" stroke="#363636" stroke-width="1.5" stroke-linejoin="round"/>
<path d="M62.5 12C62.5 14.4853 60.4853 16.5 58 16.5C55.5147 16.5 53.5 14.4853 53.5 12C53.5 9.51472 55.5147 7.5 58 7.5C60.4853 7.5 62.5 9.51472 62.5 12Z" stroke="#363636" stroke-width="1.5"/>
<path d="M63.509 6.5H63.5" stroke="#363636" stroke-width="2" stroke-linecap="round" stroke-linejoin="round"/>
<path d="M95 21L102.548 13.4516M102.548 13.4516L95 3H100L105.452 10.5484M102.548 13.4516L108 21H113L105.452 10.5484M113 3L105.452 10.5484" stroke="#363636" stroke-width="1.5" stroke-linecap="round" stroke-linejoin="round"/>
<path d="M140.5 12C140.5 7.52166 140.5 5.28249 141.891 3.89124C143.282 2.5 145.522 2.5 150 2.5C154.478 2.5 156.718 2.5 158.109 3.89124C159.5 5.28249 159.5 7.52166 159.5 12C159.5 16.4783 159.5 18.7175 158.109 20.1088C156.718 21.5 154.478 21.5 150 21.5C145.522 21.5 143.282 21.5 141.891 20.1088C140.5 18.7175 140.5 16.4783 140.5 12Z" stroke="#363636" stroke-width="1.5" stroke-linejoin="round"/>
<path d="M148.536 11.0075C147.716 10.8916 145.847 11.0834 144.93 12.7782C144.014 14.4729 144.937 16.2368 145.514 16.9069C146.083 17.5338 147.892 18.721 149.811 17.5619C150.287 17.2746 150.88 17.0603 151.552 14.8153L151.474 5.98145C151.344 6.95419 152.419 9.23575 155.478 9.5057" stroke="#363636" stroke-width="1.5" stroke-linecap="round" stroke-linejoin="round"/>
</svg>
