<svg width="375" height="375" viewBox="0 0 375 375" fill="none" xmlns="http://www.w3.org/2000/svg">
<path d="M253.576 323.775C239.27 292.443 211.689 324.825 244.933 355.65C258.058 352.237 271.633 343.875 277.445 332.793C279.526 322.631 267.358 311.4 253.576 323.775Z" fill="#77C2FF"/>
<path d="M86.4942 253.125C86.4942 253.125 83.6067 240.394 82.7442 232.763C77.4942 235.894 68.7755 242.738 63.9942 245.063C54.6192 239.757 44.8505 233.175 44.8505 233.175C43.7095 239.648 43.2258 246.219 43.4067 252.788C35.6922 254.026 28.0548 255.704 20.5317 257.813L37.8567 273.207L28.7442 294.563C28.7442 294.563 41.7192 292.913 52.238 292.219C54.2924 298.931 55.9886 305.746 57.3192 312.638C57.3192 312.638 64.688 305.813 70.9505 299.813C82.088 304.182 89.288 307.838 89.288 307.838L93.2817 289.819L109.313 285L97.8192 271.294L105.619 255.244L86.4942 253.125Z" fill="#77C2FF"/>
<path d="M318.374 186.093C318.873 186.084 319.355 185.915 319.75 185.611C320.145 185.307 320.432 184.884 320.568 184.405C339.374 114.374 345.937 88.799 332.137 78.6177C321.281 70.6115 296.249 64.1802 288.749 64.4427C281.718 64.5927 280.387 75.449 273.581 75.6927C265.668 75.8052 232.331 68.7552 215.249 63.1865C198.487 57.5615 201.693 51.6552 196.856 42.3927C192.187 35.1177 155.868 27.674 144.356 33.4865C132.843 39.299 129.918 68.2302 126.787 82.5927C125.962 86.4365 129.918 88.2177 131.137 83.5302C132.149 79.7802 132.843 73.6677 133.781 69.374C136.556 56.6052 139.406 41.099 146.399 37.499C156.187 32.549 189.881 39.899 193.012 44.7927C197.231 53.999 195.318 61.1052 213.749 67.499C231.599 73.274 265.199 80.399 273.562 80.2115C281.681 80.474 283.537 71.174 288.787 68.9615C295.556 68.8115 319.649 74.999 329.437 82.2927C344.624 95.4177 324.281 146.98 316.181 183.205C316.089 183.543 316.076 183.898 316.143 184.242C316.21 184.586 316.355 184.91 316.567 185.189C316.779 185.468 317.052 185.695 317.365 185.851C317.679 186.008 318.024 186.091 318.374 186.093Z" fill="black"/>
<path d="M275.361 307.499C286.124 305.624 288.73 295.031 294.111 277.706C294.218 277.139 294.106 276.553 293.799 276.065C293.492 275.576 293.012 275.222 292.455 275.073C291.898 274.924 291.305 274.99 290.795 275.259C290.285 275.528 289.896 275.98 289.705 276.524C285.205 291.712 283.836 300.318 273.88 302.774C271.274 303.412 264.917 303.731 246.824 299.493C246.533 299.425 246.232 299.416 245.938 299.464C245.643 299.513 245.361 299.619 245.108 299.776C244.855 299.934 244.635 300.14 244.461 300.382C244.287 300.625 244.163 300.899 244.095 301.19C244.028 301.48 244.018 301.782 244.067 302.076C244.115 302.37 244.221 302.652 244.379 302.905C244.536 303.159 244.742 303.379 244.985 303.552C245.227 303.726 245.502 303.85 245.792 303.918C264.374 308.381 269.099 308.699 275.361 307.499Z" fill="black"/>
<path d="M134.006 275.4C134.537 275.361 135.037 275.139 135.422 274.772C135.806 274.404 136.051 273.914 136.113 273.386C136.175 272.857 136.051 272.324 135.763 271.877C135.474 271.43 135.038 271.098 134.531 270.937C120.544 267.094 115.069 263.437 114.975 263.437C114.438 263.161 113.813 263.11 113.238 263.295C112.663 263.479 112.185 263.885 111.909 264.422C111.633 264.959 111.582 265.583 111.767 266.158C111.951 266.733 112.357 267.211 112.894 267.487C119.512 271.131 126.623 273.797 134.006 275.4Z" fill="black"/>
<path d="M93.3186 238.125C97.0686 239.025 100.819 218.887 102.881 212.962C103.023 212.376 102.926 211.757 102.611 211.241C102.296 210.726 101.79 210.357 101.203 210.215C100.616 210.074 99.9971 210.171 99.482 210.486C98.9668 210.8 98.5978 211.307 98.4561 211.894C96.4498 219.037 89.2311 237.075 93.3186 238.125Z" fill="black"/>
<path d="M67.6321 232.838C71.2696 232.031 71.6259 224.55 73.6134 215.794C73.6816 215.484 73.6849 215.164 73.623 214.854C73.561 214.543 73.4352 214.249 73.2535 213.989C73.0718 213.729 72.8382 213.511 72.5675 213.346C72.2967 213.182 71.9948 213.075 71.6807 213.033C71.3667 212.992 71.0474 213.016 70.7431 213.104C70.4388 213.192 70.1561 213.342 69.913 213.545C69.6699 213.749 69.4716 214 69.3307 214.284C69.1899 214.567 69.1095 214.877 69.0946 215.194C68.6259 224.1 62.2321 231.844 67.6321 232.838Z" fill="black"/>
<path d="M211.876 331.425C213.958 331.425 217.783 328.068 207.564 325.162C191.57 319.987 143.476 303.337 127.951 300.3C127.679 300.165 127.382 300.089 127.078 300.076C126.775 300.063 126.472 300.114 126.189 300.225C125.907 300.336 125.651 300.505 125.437 300.722C125.224 300.938 125.059 301.197 124.951 301.481C123.901 305.737 142.989 308.231 163.183 315.693C174.376 319.8 206.683 331.387 211.876 331.425Z" fill="black"/>
<path d="M180.732 339.919C184.594 340.556 185.419 337.612 182.982 336.356C178.875 334.237 170.194 333.019 168.882 332.7C162.45 331.312 132.263 316.369 130.538 323.081C130.49 323.381 130.506 323.688 130.583 323.981C130.66 324.275 130.797 324.549 130.985 324.787C131.174 325.025 131.41 325.221 131.678 325.363C131.947 325.505 132.241 325.59 132.544 325.612C138.432 325.312 160.519 334.762 167.813 337.106C173.832 338.325 174.619 338.906 180.732 339.919Z" fill="black"/>
<path d="M308.625 136.875C326.25 137.681 329.906 110.381 311.25 107.119C287.794 102.694 285.862 137.344 308.625 136.875ZM307.5 111.3C314.437 111.037 321.319 117.431 318.975 124.631C316.294 134.006 306.937 132.281 305.85 132.131C295.237 131.475 292.219 111.862 307.5 111.3Z" fill="black"/>
<path d="M290.624 99.375C305.137 92.2313 243.131 86.25 238.537 82.7625C219.356 76.9688 196.687 74.6438 180.093 67.7625C174.562 66.525 152.831 56.5125 149.849 62.4375C149.818 62.7332 149.846 63.0322 149.931 63.3171C150.016 63.602 150.157 63.8672 150.346 64.0974C150.534 64.3275 150.766 64.5181 151.028 64.658C151.291 64.7979 151.578 64.8844 151.874 64.9125C174.056 67.875 187.181 77.4563 211.237 80.925C225.318 83.025 245.231 90.15 258.862 92.3813C269.674 93.5381 280.326 95.8835 290.624 99.375Z" fill="black"/>
<path d="M284.1 113.267C284.665 113.273 285.211 113.069 285.635 112.695C286.058 112.322 286.328 111.805 286.394 111.244C286.459 110.683 286.314 110.118 285.988 109.657C285.661 109.197 285.176 108.873 284.625 108.749C279.553 107.518 274.421 106.548 269.25 105.842C261.6 105.599 248.625 97.3862 247.256 101.661C245.288 107.83 280.2 111.824 284.1 113.267Z" fill="black"/>
<path d="M278.925 128.025C285.338 124.669 278.119 121.969 267.788 120.413C265.913 120.413 261.338 118.069 260.55 121.407C259.763 124.744 265.35 124.388 267.169 124.932C276.094 126.207 276.675 127.669 278.925 128.025Z" fill="black"/>
<path d="M272.157 61.6116C273.094 56.1366 267.357 56.2303 257.007 53.5491C245.626 50.6241 230.626 46.2553 230.888 53.2491C231.019 57.9741 238.238 58.2178 248.213 60.5241C258.488 62.8866 271.201 67.1616 272.157 61.6116Z" fill="black"/>
<path d="M211.873 51.6567C206.792 47.6817 212.755 37.8567 218.83 43.2755C219.941 44.1979 220.641 45.5241 220.774 46.9623C220.908 48.4005 220.465 49.8328 219.542 50.9442C218.62 52.0556 217.294 52.7551 215.855 52.8887C214.417 53.0223 212.985 52.5792 211.873 51.6567Z" fill="black"/>
<path d="M289.424 365.625C293.718 366.712 303.355 307.218 311.924 288.056C331.574 232.968 346.874 159.487 359.493 108.393C373.518 58.6872 323.737 49.6122 279.262 40.2747C242.418 32.7747 169.705 10.8372 145.405 9.69344C119.399 6.18719 114.524 32.6434 109.274 55.6309C108.712 60.9747 98.2491 99.0184 102.449 98.2872C107.605 98.2872 106.574 87.4497 108.862 79.9497C112.612 61.9684 116.887 35.6434 124.949 21.9934C130.743 13.7997 137.455 14.3622 145.199 14.2497C159.374 14.1372 220.33 30.5247 251.249 38.5309C279.205 45.7684 312.187 50.1747 337.499 61.7059C362.812 73.2372 356.662 101.643 355.124 107.193C352.424 116.981 339.824 171.131 336.993 184.725C328.762 223.706 293.587 327.225 287.23 362.85C287.151 363.181 287.148 363.526 287.221 363.858C287.294 364.191 287.442 364.503 287.653 364.77C287.864 365.037 288.134 365.253 288.44 365.401C288.747 365.549 289.083 365.626 289.424 365.625Z" fill="black"/>
<path d="M189.375 144.656C185.888 145.106 185.888 141.056 177.619 141.413C174.338 141.563 173.4 137.231 177.375 136.65C181.9 135.921 186.533 136.925 190.35 139.463C192.863 141.431 192.3 144.375 189.375 144.656Z" fill="black"/>
<path d="M199.687 181.332C202.443 183.207 199.687 186.488 196.63 184.575C192.993 182.344 189.318 174.469 200.287 168.488C200.784 168.208 201.368 168.124 201.924 168.252C202.48 168.38 202.968 168.712 203.292 169.182C203.616 169.651 203.753 170.225 203.676 170.791C203.598 171.356 203.312 171.872 202.874 172.238C200.624 174.282 197.905 175.725 197.455 177.525C197.438 178.304 197.637 179.073 198.031 179.745C198.425 180.417 198.998 180.966 199.687 181.332Z" fill="black"/>
<path d="M153.093 131.962C149.005 132.075 142.462 127.312 139.874 126.544C132.018 124.237 136.405 128.419 128.624 130.481C121.499 132.356 117.524 124.425 123.224 119.812C128.924 115.2 133.837 118.031 137.23 119.062C144.73 121.387 142.18 115.012 150.055 116.137C157.555 117.225 157.555 124.631 168.918 123.262C178.105 122.156 181.93 128.569 177.505 131.962C171.262 136.744 163.893 135.806 161.774 132.225C159.374 128.137 158.324 131.831 153.093 131.962Z" fill="black"/>
<path d="M180.132 176.25C164.907 175.444 157.52 165.337 159.62 157.106C161.664 149.175 171.376 143.437 183.039 148.912C196.37 155.156 194.232 176.962 180.132 176.25ZM187.501 164.475C187.917 161.693 187.275 158.856 185.703 156.524C184.131 154.192 181.742 152.533 179.007 151.875C179.214 157.2 178.707 165 175.107 170.85C181.314 173.194 186.414 171.019 187.501 164.475Z" fill="black"/>
<path d="M187.668 195.169C191.024 190.106 209.305 193.425 205.424 208.069C202.762 218.175 195.168 218.906 190.574 217.631C186.43 216.487 186.205 213.206 188.005 206.381C188.849 203.269 184.874 199.387 187.668 195.169Z" fill="black"/>
<path d="M160.8 94.5929C165.825 96.6179 164.925 101.212 169.069 104.849C173.738 108.918 180.319 99.2241 189.694 116.549C193.013 122.718 197.831 118.593 202.631 122.624C210.338 129.149 198.188 139.912 186.994 131.887C181.481 127.912 185.269 123.618 182.831 121.518C179.531 118.649 174.844 120.787 168.375 118.93C163.725 117.618 167.494 110.924 162.6 108.768C158.85 107.137 155.456 109.199 149.475 107.38C144.956 106.012 146.025 101.418 142.256 102.112C138.488 102.805 134.644 108.468 129.806 108.73C126.469 108.918 118.444 106.612 121.95 97.4804C124.2 91.6491 132.131 91.3679 143.194 94.5929C148.331 96.1116 153.75 91.7429 160.8 94.5929Z" fill="#77C2FF"/>
<path d="M244.819 147.581C240.882 146.719 232.988 142.969 234.263 136.425C235.969 127.781 234.263 126.3 226.894 118.669C222.338 113.981 230.644 107.794 225.526 106.444C206.663 101.475 204.901 95.0813 206.982 89.3063C209.251 82.8001 221.982 86.0813 225.001 95.5125C227.644 103.856 236.251 101.794 241.988 108.731C251.363 119.981 233.176 121.369 245.082 130.856C255.001 138.75 252.638 149.288 244.819 147.581Z" fill="#77C2FF"/>
<path d="M237.168 157.143C233.418 152.324 223.03 154.462 223.255 150.543C223.649 143.718 238.255 149.324 240.749 154.293C242.024 156.974 238.987 159.487 237.168 157.143Z" fill="black"/>
<path d="M221.251 121.876C235.726 130.82 231.563 142.988 221.963 140.101C213.488 137.551 206.045 132.826 208.595 125.532C211.557 117.113 203.945 120.451 197.776 114.282C193.163 109.595 193.782 101.345 186.32 101.157C168.713 100.763 176.27 90.2634 168.788 86.8884C163.051 84.3196 160.032 89.1384 153.582 87.5634C147.132 85.9884 149.551 77.5884 153.132 75.2446C158.551 71.7196 167.213 72.1134 176.851 84.6196C182.682 92.1196 193.726 82.0696 197.176 95.8696C199.97 106.988 204.676 100.988 210.938 105.001C222.113 112.051 214.951 118.126 221.251 121.876Z" fill="black"/>
<path d="M41.1186 175.876C44.006 164.757 46.5373 156.863 49.6498 148.144C38.3998 142.182 14.8873 135.901 15.8998 132.132C17.1935 127.219 40.0686 138.526 51.2998 143.888C57.731 130.182 59.3623 124.969 62.6436 118.444C59.1561 112.557 44.0998 98.0256 47.1373 94.9506C50.1748 91.8756 62.6248 108.788 66.2248 113.494C69.6936 108.301 79.0498 95.9069 86.2123 97.6694C99.8998 103.632 130.687 150.657 148.087 165.826C149.796 156.429 153.181 147.417 158.081 139.219C159.787 136.294 162.862 138.676 161.494 140.907C156.375 149.481 153.099 159.028 151.875 168.938C152.794 169.651 153.75 170.363 154.687 171.038C163.481 177.207 177.187 178.013 179.794 187.651C181.012 192.207 179.437 202.482 172.181 208.276C184.612 221.963 187.444 230.119 193.05 232.388C206.55 237.826 211.8 221.138 242.662 224.007C243.459 224.129 244.273 224.032 245.019 223.729C245.765 223.425 246.415 222.925 246.9 222.282C253.95 212.063 263.044 183.863 253.125 157.501C252.187 155.063 255.656 153.282 256.875 156.488C267.15 185.401 258.975 207.376 251.944 223.126C250.425 226.576 255.206 228.263 258.225 226.013C270.487 216.844 284.681 187.144 281.494 167.138C278.137 146.063 258.675 136.126 250.65 132.807C248.775 132.057 250.556 129.338 252.394 130.088C286.144 143.607 289.05 166.069 287.194 178.407C294.694 180.094 293.362 184.707 296.419 186.882C297.994 188.007 303.262 184.144 308.025 184.894C313.425 185.738 311.944 194.851 317.25 195.601C323.231 196.426 331.012 195.226 327.656 205.913C324.844 214.838 315.6 214.444 313.05 204.038C311.681 198.413 305.269 203.007 302.437 201.919C297.431 200.044 297.844 195.807 295.425 197.926C289.144 203.363 304.181 205.294 308.1 213.282C310.837 218.907 306.956 222.919 309.037 228.526C310.256 231.826 320.156 232.594 318.862 238.594C316.519 249.319 300 253.182 300.825 241.407C301.125 237.226 302.981 232.163 302.062 229.688C300.544 225.507 295.725 223.707 293.081 221.588C285.9 215.832 289.931 208.782 284.887 209.532C281.775 210.001 281.737 214.519 284.681 220.913C287.344 226.726 291.975 225.413 293.681 231.601C295.556 238.088 287.925 238.969 291.487 244.294C293.531 247.351 299.625 250.632 298.05 256.088C295.481 264.882 284.1 265.163 281.7 259.463C279.3 253.763 283.275 250.744 281.906 245.419C280.687 240.619 275.569 239.101 273.881 235.894C269.925 228.394 276.056 217.707 271.012 218.419C268.275 218.813 272.044 220.857 267.75 227.569C263.7 233.851 276.319 236.363 271.219 246.469C272.662 250.576 274.556 255.601 274.537 259.201C274.425 290.401 251.606 289.951 221.869 301.126C212.194 304.557 201.375 307.388 193.237 307.144C170.962 306.432 162.75 292.857 150.112 281.082C125.381 257.888 107.287 225.769 128.944 201.057C109.05 202.519 47.6998 213.619 42.3936 208.369C37.0873 203.119 38.0623 192.957 39.9561 180.769C33.1685 183.357 15.1311 194.232 13.2373 189.601C10.9123 183.901 33.5623 179.851 41.1186 175.876ZM172.369 201.751C182.4 185.344 172.369 183.338 155.812 176.626C156.487 181.763 154.312 191.869 151.237 197.251C160.275 200.626 167.756 208.932 172.5 201.751H172.369ZM262.987 278.982C274.237 267.732 270.487 248.982 260.644 238.407C251.137 228.132 233.662 223.688 215.344 231.919C226.481 242.063 237.525 267.301 227.719 294.432C241.987 289.632 257.85 284.176 262.987 278.982ZM127.8 210.713C126.063 214.361 124.905 218.258 124.369 222.263C128.363 222.448 132.325 223.077 136.181 224.138C136.78 224.314 137.291 224.707 137.617 225.239C137.942 225.772 138.057 226.407 137.94 227.02C137.823 227.632 137.482 228.18 136.984 228.555C136.485 228.931 135.865 229.107 135.244 229.051C132.994 228.957 129.45 227.063 123.994 226.876C122.55 251.007 147.619 270.657 162.056 287.344C173.625 300.694 193.8 309.319 220.406 296.944C236.531 273.282 220.406 240.282 210.431 233.813C203.962 236.307 196.65 241.069 189.656 236.663C177.225 225.863 176.081 214.763 163.687 207.432C155.569 202.632 138.244 194.813 130.5 206.382C133.876 206.663 137.199 207.395 140.381 208.557C140.874 208.715 141.3 209.032 141.593 209.46C141.885 209.887 142.026 210.4 141.993 210.916C141.961 211.433 141.757 211.924 141.414 212.312C141.071 212.7 140.609 212.962 140.1 213.057C137.4 213.544 132.056 210.676 127.8 210.713ZM95.1373 200.776C115.65 198.376 131.475 194.776 146.569 196.351C150.319 191.082 152.587 177.226 150.675 173.382C132.487 160.538 108.469 124.238 91.0123 106.613C93.506 139.557 75.2436 185.363 50.2498 205.519C59.8123 205.632 79.7061 202.894 95.1373 200.776ZM83.0061 139.538C69.2061 141.919 56.756 158.532 69.656 174.207C75.7775 163.366 80.2754 151.685 83.0061 139.538ZM44.1373 203.738C47.4561 203.738 58.0685 192.976 67.256 178.238C50.4936 164.344 65.1561 134.626 84.1311 134.832C87.6185 117.657 88.3311 103.276 84.1311 101.813C80.981 100.707 73.5561 110.007 68.7936 117.432C71.4186 120.282 75.0561 124.669 73.4998 126.282C72.6373 127.182 69.0186 124.894 66.4123 122.194C62.2915 129.717 58.6833 137.51 55.6123 145.519C62.1373 148.501 60.6186 152.776 53.981 149.776C50.8896 157.857 48.2603 166.108 46.106 174.488C53.231 172.763 52.9686 173.044 53.0248 174.207C53.0811 175.369 47.9061 178.388 44.6248 179.626C42.1873 186.788 42.4873 201.544 44.1373 203.738Z" fill="black"/>
<path d="M273.261 198.281C273.261 200.156 267.392 202.406 266.736 205.069C266.305 206.775 266.38 211.744 263.736 211.069C262.236 210.694 261.392 204.506 263.024 202.387C264.237 200.683 265.812 199.268 267.636 198.244C267.758 198.163 267.861 198.058 267.941 197.936C268.022 197.815 268.076 197.678 268.103 197.534C268.129 197.391 268.126 197.244 268.094 197.101C268.062 196.959 268.002 196.825 267.917 196.706C263.455 190.519 266.605 190.669 272.605 182.362C274.48 179.644 265.761 175.837 264.936 172.425C263.755 167.625 270.805 166.275 270.917 163.444C270.917 161.081 264.186 158.606 262.705 155.081C262.413 154.021 262.364 152.91 262.562 151.828C262.76 150.747 263.2 149.725 263.849 148.837C265.292 146.287 269.005 147.994 267.599 150.6C266.53 152.569 266.699 153.319 267.899 154.181C272.399 157.425 275.399 159.806 275.961 162.394C276.992 167.569 269.455 170.644 269.511 172.031C269.511 173.906 277.555 176.55 277.555 181.125C277.555 186.3 271.292 189.225 270.992 192.019C270.749 194.1 273.861 195.787 273.261 198.281Z" fill="black"/>
<path d="M213.038 187.05C205.782 177.581 214.913 159.056 228.732 163.35C240.301 166.95 245.138 175.669 245.738 183.131C247.501 204.75 221.12 197.569 213.038 187.05ZM232.501 169.819C232.407 176.419 231.488 186.281 227.269 191.213C244.557 199.369 245.138 176.625 232.501 169.819Z" fill="black"/>
</svg>
