<svg width="32" height="32" viewBox="0 0 32 32" fill="none" xmlns="http://www.w3.org/2000/svg">
<path d="M31.6663 16.9383C31.6639 19.2651 31.6462 21.2428 31.514 22.8656C31.3606 24.7487 31.0461 26.3223 30.3424 27.6291C30.032 28.2056 29.6506 28.7218 29.1862 29.1862C27.8682 30.5041 26.1891 31.1011 24.0612 31.3872C21.9823 31.6667 19.3178 31.6667 15.9178 31.6667H15.7488C12.3489 31.6667 9.68439 31.6667 7.60546 31.3872C5.47755 31.1011 3.79845 30.5041 2.48051 29.1862C1.31212 28.0178 0.708742 26.5635 0.387882 24.7596C0.0726855 22.9874 0.0150265 20.7826 0.0030478 18.0448C3.03951e-07 17.3484 3.039e-07 16.6119 3.039e-07 15.8348V15.7488C-1.83472e-05 12.3489 -3.29601e-05 9.68439 0.279472 7.60546C0.565562 5.47755 1.16257 3.79845 2.48051 2.48051C3.79845 1.16257 5.47755 0.565562 7.60546 0.279472C9.45426 0.0309066 11.833 0.0034034 14.7282 0.000373583C15.3383 -0.000264859 15.8333 0.494568 15.8333 1.10465C15.8333 1.71473 15.3381 2.20906 14.728 2.20971C11.7919 2.21281 9.60689 2.23957 7.89984 2.46907C6.01692 2.72223 4.88175 3.2037 4.04272 4.04272C3.2037 4.88175 2.72223 6.01692 2.46907 7.89984C2.21165 9.81454 2.2093 12.3305 2.2093 15.8333C2.2093 16.2611 2.2093 16.6748 2.20981 17.0753L3.68435 15.7851C5.02653 14.6107 7.0494 14.6781 8.31048 15.9392L14.6287 22.2574C15.6409 23.2696 17.2342 23.4076 18.4054 22.5845L18.8446 22.2758C20.5299 21.0914 22.8101 21.2286 24.3412 22.6066L28.5101 26.3587C28.9297 25.4775 29.1789 24.3196 29.312 22.6862C29.4374 21.1471 29.4546 19.2779 29.457 16.9383C29.4576 16.3282 29.9519 15.8333 30.562 15.8333C31.1721 15.8333 31.6669 16.3282 31.6663 16.9383Z" fill="black"/>
<path fill-rule="evenodd" clip-rule="evenodd" d="M24.5417 14.25C21.1829 14.25 19.5035 14.25 18.4601 13.2066C17.4167 12.1631 17.4167 10.4838 17.4167 7.125C17.4167 3.76624 17.4167 2.08686 18.4601 1.04343C19.5035 0 21.1829 0 24.5417 0C27.9004 0 29.5798 0 30.6232 1.04343C31.6667 2.08686 31.6667 3.76624 31.6667 7.125C31.6667 10.4838 31.6667 12.1631 30.6232 13.2066C29.5798 14.25 27.9004 14.25 24.5417 14.25ZM25.7292 3.95833C25.7292 3.3025 25.1975 2.77083 24.5417 2.77083C23.8858 2.77083 23.3542 3.3025 23.3542 3.95833V5.9375H21.375C20.7192 5.9375 20.1875 6.46916 20.1875 7.125C20.1875 7.78084 20.7192 8.3125 21.375 8.3125H23.3542V10.2917C23.3542 10.9475 23.8858 11.4792 24.5417 11.4792C25.1975 11.4792 25.7292 10.9475 25.7292 10.2917V8.3125H27.7083C28.3642 8.3125 28.8958 7.78084 28.8958 7.125C28.8958 6.46916 28.3642 5.9375 27.7083 5.9375H25.7292V3.95833Z" fill="black"/>
</svg>
