<svg width="115" height="112" viewBox="0 0 115 112" fill="none" xmlns="http://www.w3.org/2000/svg">
<path d="M19.2496 30.2464C19.6279 31.6509 20.4906 32.8764 21.6852 33.7063C22.8798 34.5362 24.3293 34.917 25.7775 34.7815C29.6725 34.389 34.2318 33.4288 37.3115 34.9566C39.9565 36.3093 42.4868 37.4869 44.6064 37.3117C44.8419 29.721 49.4917 26.6594 53.0184 25.3671C56.545 24.0748 61.5511 24.3103 64.7879 25.6026C74.3352 24.9987 76.8655 27.0579 79.7882 31.2488C84.3233 25.4154 85.5673 14.3403 80.9054 6.48989C80.0237 4.95604 79.9633 5.42707 78.4899 5.60219C75.4705 11.5443 71.195 13.4526 63.7794 13.368C55.3674 13.3137 43.1269 5.66258 43.5979 7.84257C44.6607 12.4864 49.6004 22.8429 46.5388 20.7233C43.8334 18.7848 40.186 7.84257 35.5965 6.07321C28.7123 3.36785 20.9465 3.77848 14.7688 4.86546C14.506 4.90279 14.2542 4.99593 14.0304 5.13865C13.8066 5.28136 13.6159 5.47033 13.4712 5.69286C13.3264 5.91538 13.231 6.16631 13.1913 6.42878C13.1516 6.69124 13.1686 6.95917 13.241 7.21454C14.491 12.3052 17.601 23.8936 19.2496 30.2464Z" fill="#77C2FF"/>
<path d="M103.496 37.3116C106.383 33.8393 107.12 31.7197 110.912 37.4867C109.91 37.0157 109.1 36.6594 108.672 36.8405C107.814 37.2089 107.391 38.7971 106.908 38.308C106.673 38.1328 106.383 37.8973 106.202 37.7826C105.205 36.8949 105.676 39.4855 107.319 39.6606C107.85 39.721 108.382 39.0568 108.853 38.2476C109.088 37.8973 109.257 37.9637 109.499 38.0724C110.544 38.5676 112.09 39.3104 112.204 37.7826C112.319 36.2548 108.732 33.1931 108.442 32.9516C107.44 32.245 106.147 32.3054 104.97 33.5977C104.324 34.3043 101.848 37.1244 101.733 37.5954C101.612 38.4287 102.204 38.8998 103.496 37.3116Z" fill="black"/>
<path d="M86.3167 37.7824C87.0836 37.6616 88.2249 36.2123 89.336 35.0166C89.7588 34.5517 90.7491 34.4128 91.2805 34.3101C91.9206 34.1773 91.8059 34.5456 91.8059 34.7811C91.8059 38.4044 93.4364 37.7462 96.2202 35.3065C97.0475 34.6241 97.0777 36.9551 98.515 37.1181C99.5718 37.2389 101.631 35.0046 101.045 34.4732C100.339 33.7666 99.608 36.0553 98.6297 35.9466C98.0258 35.8862 97.742 34.0625 96.8603 33.8874C95.8639 33.7062 94.6864 35.0589 93.5088 35.8258C92.3313 36.5928 94.2093 31.9912 90.9182 33.1809C92.9774 31.0612 96.178 26.7496 98.213 28.531C100.248 30.3124 102.507 33.7968 103.449 33.7062C104.216 33.5915 103.274 32.6494 102.688 31.8946C98.3942 26.5443 97.3918 25.252 92.6876 29.5455C92.0837 30.0709 90.5076 31.961 88.9798 33.6036C86.673 36.1338 85.0244 37.9817 86.3167 37.7824Z" fill="black"/>
<path d="M24.4851 77.7831C22.7701 76.3821 22.1481 76.6901 21.0129 78.2541C20.8438 78.4957 20.717 78.6708 20.3063 78.3749C19.8957 78.079 19.3099 77.6684 19.0986 78.079C18.8872 78.4896 20.095 79.7276 20.8015 79.788C21.9247 79.788 22.13 77.8314 22.9815 78.2541C24.1892 78.9063 26.333 80.3133 26.5081 78.7251C26.6833 77.1369 22.2206 73.1332 21.9187 72.9038C19.7266 71.2371 17.613 75.5125 15.8014 77.7348C15.3304 78.3387 16.1577 79.0875 17.2145 77.7891C19.3039 75.2227 20.2339 73.2057 21.2121 73.8519C21.8643 74.2625 23.688 76.2674 24.7448 77.5536C25.3608 78.3145 24.6603 77.8374 24.4851 77.7831Z" fill="black"/>
<path d="M54.3472 69.4921C53.983 69.4361 53.6111 69.5214 53.3077 69.7306C53.0043 69.9398 52.7923 70.257 52.7151 70.6174C52.638 70.9777 52.7014 71.3539 52.8926 71.669C53.0837 71.9841 53.3881 72.2142 53.7433 72.3122C55.9595 72.904 56.3702 69.7277 54.3472 69.4921Z" fill="black"/>
<path d="M7.54112 74.0815C8.24765 78.846 10.3069 76.5513 12.191 73.7252C12.7284 73.0126 13.5557 75.0416 14.2502 74.5525C14.8541 74.0815 13.1874 72.0766 12.0702 72.3725C10.953 72.6684 8.95419 76.6298 8.95419 74.9631C8.65829 73.6104 8.48316 72.6684 7.95175 72.4933C7.3056 72.2577 5.83818 73.3145 5.60267 73.2541C5.36716 73.1938 5.30677 73.0186 5.186 72.7831C7.24522 70.6695 9.25009 67.8434 11.1885 68.0185C13.127 68.1937 16.2732 74.3532 17.6017 73.7252C18.0788 73.5017 17.3662 72.5476 16.6597 71.7867C14.1294 68.9606 13.0364 66.9255 11.1281 66.7866C8.02422 66.5511 3.72462 73.1877 0.185899 76.7264C-0.103962 77.0827 -0.103962 77.6081 0.542186 77.5477C1.53858 77.3726 2.60141 75.9052 4.30434 73.7252C4.90821 74.9027 6.11597 74.4317 7.0097 73.7855C7.54111 73.55 7.54112 73.8459 7.54112 74.0815Z" fill="black"/>
<path d="M21.8952 29.4251C21.0679 27.4202 18.0002 13.9055 16.4604 8.89331C15.4579 5.59615 14.4615 6.01282 14.697 6.77371C14.697 6.84013 20.2104 27.9094 20.2285 27.9577C20.9532 30.2464 22.1911 30.1317 21.8952 29.4251Z" fill="black"/>
<path d="M94.8491 108.321C89.7282 103.671 89.6134 102.79 84.5832 102.85C86.111 101.999 82.1133 92.8862 80.4043 79.7277C84.3476 74.4921 86.582 70.0657 86.0566 64.7274C94.9396 59.9568 97.174 46.8406 89.8188 42.4263C89.2874 42.1908 88.762 42.4867 88.8224 43.308C89.0579 45.7838 85.6399 45.959 84.1725 44.3104C81.9382 41.8405 83.8162 36.78 80.5493 31.4237C84.1363 27.3656 85.1387 20.0104 84.3718 14.0682C83.5505 7.65508 79.6676 1.65859 77.4876 5.71664C75.7243 9.06815 71.4851 11.1515 65.6637 10.8375C61.4366 10.6563 57.5476 9.12854 53.1937 6.94854C38.5255 -0.297974 27.9275 0.90978 14.4791 1.5982C14.2436 0.12474 13.362 -0.0503841 11.653 0.0100035C10.3003 0.0703912 9.47904 0.541415 10.1252 2.65498C9.52131 3.40379 9.2858 3.11997 13.9477 19.014C15.9828 25.9405 16.7739 31.7799 18.5976 34.7812C19.2437 37.3115 19.8899 39.8417 20.5964 42.3659C17.6555 45.5483 19.5396 56.9012 24.2197 56.8589C28.7487 74.2747 32.3962 89.3958 33.2778 93.0432C29.57 93.3331 27.1485 93.7316 26.2729 94.3959C24.9021 95.4346 19.5698 103.043 18.3923 103.339C17.5106 103.575 14.0383 102.693 12.6856 103.158C10.7411 103.81 6.27246 108.279 6.04299 109.1C5.92221 109.571 6.39323 110.338 7.85461 108.986C11.7979 105.453 12.2086 105.042 13.0902 104.632C13.9719 104.221 17.2087 105.338 18.7365 104.928C19.9442 104.632 20.7957 103.219 24.3284 98.8888C25.5361 97.4213 26.7982 95.8331 27.1485 95.5372C27.9154 94.8911 33.151 94.5348 34.86 94.4201C39.691 94.0638 38.2115 95.181 40.3311 97.9467C41.5388 99.6013 42.5594 99.245 56.9196 99.245C59.2747 99.245 60.0356 104.185 64.2748 104.42C66.5695 104.541 78.7678 104.493 81.1833 104.42C87.1255 104.245 87.8924 104.716 89.6376 105.894C91.3828 107.071 96.0508 112.126 96.6969 110.833C97.0834 110.26 96.2621 109.553 94.8491 108.321ZM84.6738 66.9678C84.3175 71.0259 82.0831 75.555 78.2002 80.084C76.3886 76.9076 71.8474 72.8375 68.4355 70.9655C70.7725 67.7529 72.2218 66.5632 71.0805 65.3193C70.4766 64.6731 69.4319 63.6163 68.665 63.7311C68.2483 63.7914 68.3087 64.3349 68.5442 64.6127C68.9548 65.2166 70.1928 66.1405 69.7822 66.7323C68.9221 67.9744 67.9989 69.1717 67.0164 70.3193C63.5441 69.323 60.8387 71.9679 62.4269 75.2047C61.9445 75.9099 61.6207 76.7112 61.4779 77.5536C61.3351 78.396 61.3766 79.2593 61.5996 80.084C57.3725 80.6879 42.4809 77.0284 43.8336 73.0851C44.4797 71.201 46.6899 69.0874 46.7201 67.3785C46.8107 62.0281 42.4024 63.3325 47.7165 56.4362C48.1585 56.5902 48.5921 56.7678 49.0148 56.9676C48.7189 57.8493 47.8071 58.6223 48.3626 59.7877C48.8759 60.8566 51.2492 62.0825 51.8953 61.5571C52.777 60.8506 50.0112 60.2588 49.661 59.1416C49.661 58.3747 50.8687 57.4387 50.3675 56.4966C49.3651 54.685 44.2442 55.3191 48.1875 51.7864C49.2749 52.7737 50.4943 53.605 51.8108 54.2562C51.8651 65.7903 62.753 70.5609 53.5741 75.7301C52.7468 76.2011 53.864 77.2639 55.8688 75.9656C60.096 73.2059 59.3955 70.0234 55.9836 64.0813C58.2179 62.2697 60.9837 59.5522 62.3364 56.6717C64.1294 56.7405 65.9246 56.6211 67.6927 56.3155C68.7012 60.144 64.7156 58.0546 63.5139 59.5522C62.8074 60.4339 63.2241 61.3216 62.8678 61.7322C62.3967 62.3784 59.4559 62.4388 59.16 63.4955C58.8641 64.5523 62.5175 63.6707 63.4596 63.0245C65.1263 62.0221 63.8944 60.3433 64.9874 60.3192C68.6952 60.2286 70.0479 59.3771 69.0454 55.9652C71.107 55.4148 72.9915 54.3415 74.5165 52.8492C79.6676 55.6633 85.1991 61.0196 84.6738 66.9678ZM69.5768 82.2036C68.9307 81.9681 68.7495 82.6143 67.0466 84.6735C66.1154 84.0577 65.2653 83.3274 64.5163 82.4995C65.5731 81.6179 67.107 79.7338 66.4004 79.148C65.5309 78.3992 65.404 79.7519 63.689 81.322C61.5151 77.735 64.5767 76.026 63.7494 74.6129C63.526 74.2693 63.4121 73.8659 63.4229 73.4562C63.4337 73.0464 63.5686 72.6496 63.8098 72.3182C67.3968 69.2988 75.7545 78.6166 77.1615 81.2616C73.2243 85.4404 70.3377 85.7907 68.4597 85.2653C69.7278 83.7858 70.2592 82.4331 69.5527 82.1976L69.5768 82.2036ZM47.2334 50.6692C47.0616 50.8107 46.9039 50.9684 46.7624 51.1402C45.2889 51.3757 41.7019 52.197 40.7598 52.0219C38.4712 50.4216 34.8902 42.9215 31.8768 42.3176C29.8879 40.6108 27.3765 39.6331 24.7571 39.5458C24.4008 38.2475 24.0506 36.8948 23.6943 35.6025C40.168 32.8367 33.1691 36.4841 43.8155 37.7825C43.7964 39.4487 44.2127 41.0911 45.0232 42.5471C44.842 44.7814 44.3106 46.4843 47.1972 50.6632L47.2334 50.6692ZM52.3482 42.0821C52.5234 43.1992 52.9521 43.9662 53.556 43.8454C54.9087 43.6703 53.0608 41.0494 54.2625 40.0772C54.6224 39.7916 55.0682 39.6362 55.5276 39.6362C55.987 39.6362 56.4329 39.7916 56.7928 40.0772C57.143 40.3188 57.614 40.3127 57.7348 39.9625C58.0247 39.0808 56.7324 38.3743 56.0258 38.2535C56.5573 35.4334 54.0874 33.7848 51.1948 33.7848C52.783 32.7824 54.8181 34.2558 55.5488 34.2558C56.7867 34.2558 56.4304 32.9032 54.9026 32.4925C57.5536 32.4321 60.3738 32.5469 61.8472 32.0215C61.8519 32.3754 61.9602 32.7202 62.1588 33.0132C62.3573 33.3062 62.6374 33.5346 62.9644 33.6701C60.5489 33.9056 60.8448 35.6085 61.7566 35.373C64.6975 34.0807 70.4041 37.0216 71.0563 39.9021C71.7568 42.9637 76.0564 43.4348 75.8209 47.0218C75.1385 55.8505 62.3786 56.8287 54.0512 53.6644C48.3445 51.3697 44.2865 46.4179 47.5233 40.8985C50.4098 40.7113 52.0161 42.076 52.312 42.076L52.3482 42.0821ZM51.2311 35.2583C53.5258 35.373 55.0536 36.3151 54.5282 38.3743C54.0185 38.5074 53.5534 38.774 53.1808 39.1465C52.8083 39.519 52.5418 39.9841 52.4086 40.4939C52.1269 40.3305 51.832 40.1911 51.527 40.0772C51.5395 38.4628 51.4285 36.8497 51.1948 35.2522L51.2311 35.2583ZM53.7432 57.9097C53.5092 56.9168 53.3517 55.9073 53.2722 54.8903C55.6837 55.748 58.1933 56.2998 60.7421 56.5328C60.2341 57.4596 59.6266 58.3283 58.9305 59.1235C57.9703 56.2249 55.6092 55.4942 53.7432 57.9097ZM57.8012 60.3252C57.0246 61.1389 56.1999 61.9052 55.3314 62.6199C54.8833 61.6956 54.5292 60.7286 54.2746 59.7334C54.4896 59.336 54.7444 58.9616 55.0355 58.6162C55.1545 58.7938 55.3101 58.944 55.4917 59.0568C55.6733 59.1696 55.8769 59.2424 56.0888 59.2704C56.3008 59.2984 56.5163 59.2809 56.7209 59.2191C56.9256 59.1574 57.1148 59.0527 57.2759 58.9121C57.4878 59.3662 57.6575 59.8397 57.7831 60.3252H57.8012ZM29.3889 42.378C28.8708 42.5535 28.4181 42.882 28.0905 43.32C27.0941 42.1123 25.5603 41.9673 25.21 41.0857C26.6725 41.2101 28.0913 41.6466 29.3707 42.3659L29.3889 42.378ZM29.093 44.4976C30.977 41.7318 33.5073 45.029 35.4457 47.7344C34.0203 49.9703 32.1345 51.8766 29.9142 53.3263C30.2729 52.0835 30.3937 50.7845 30.2705 49.4977C31.0918 49.4977 32.8853 48.4892 32.5652 47.3237C32.4022 46.7199 31.9614 47.0278 31.6836 47.3237C29.3103 49.4554 27.6618 46.4843 29.0748 44.4855L29.093 44.4976ZM36.3395 48.9723C39.8722 54.0871 40.0473 53.9724 45.458 52.8552C45.2101 53.3668 45.1632 53.9528 45.3264 54.4973C45.4897 55.0418 45.8512 55.5053 46.3397 55.7961C39.9205 63.7311 46.9435 63.8639 44.6971 68.6768C40.633 71.0319 36.2428 69.794 31.9312 66.0318C31.0435 62.6199 30.0471 59.0329 29.105 55.4398C31.9801 53.873 34.4476 51.6537 36.3093 48.9602L36.3395 48.9723ZM81.5215 40.0712C81.6483 42.076 81.8778 43.779 83.1097 45.192C85.2897 47.7223 89.4081 47.2513 90.2898 44.4251C93.9976 48.7247 94.2935 57.6621 85.7607 63.254C84.7039 59.4918 81.7027 55.1922 75.6397 51.6656C78.1881 48.3866 78.2002 44.8478 74.5226 41.8405C71.0744 39.0808 73.4054 37.4745 67.8799 34.6604C64.7639 33.193 63.997 32.6616 63.7615 32.0155C63.3509 30.8983 64.7639 30.071 64.3654 29.3101C64.3243 29.2316 64.2638 29.1649 64.1895 29.1164C64.1153 29.068 64.0299 29.0395 63.9415 29.0335C63.8531 29.0277 63.7647 29.0445 63.6846 29.0823C63.6045 29.1201 63.5354 29.1777 63.4837 29.2497C59.8242 33.6097 52.6139 27.3294 47.6561 35.9588C46.8892 37.7221 47.1247 39.1895 45.9471 40.7234C44.7394 37.4866 45.4761 32.722 48.9665 28.9538C53.3205 24.1228 60.5006 24.775 65.0296 26.0129C65.6589 26.1935 66.3167 26.2529 66.9681 26.1881C76.1591 25.1796 81.0022 32.3174 81.5215 40.0712ZM11.4718 1.24191C12.118 1.12718 12.9393 1.06679 12.9393 1.71294L11.4114 1.8941C11.3631 1.74917 11.188 1.3023 11.4718 1.24191ZM18.9418 32.3114C17.414 26.5987 13.1748 11.067 11.5866 5.0101C11.3511 4.18883 11.1155 3.42191 12.7641 3.24678C19.7087 2.54025 30.2766 2.00883 37.1789 3.06562C49.2564 4.87725 55.422 11.5984 65.5973 12.2445C72.0708 12.6612 76.8958 10.2457 78.8343 6.24805C79.1906 5.54151 79.3053 5.64417 79.7763 6.12727C84.6617 11.6648 84.0034 23.7001 79.6555 29.9562C73.2243 22.1964 69.0333 25.7955 63.834 24.3643C54.2504 21.508 44.679 26.4598 43.906 36.309C38.9059 35.838 39.2018 34.7208 36.1402 33.6037C31.128 31.8343 20.1435 36.466 18.9539 32.3114H18.9418ZM24.0023 55.313C21.3573 54.842 20.4756 49.3105 20.6508 45.8382C20.8863 42.4867 23.7064 43.6642 23.4165 42.6618C23.2353 42.0579 22.6496 41.9009 21.9431 42.0157L20.1797 35.3066C20.8587 35.4516 21.5467 35.5505 22.239 35.6025C23.4165 39.6001 23.5977 42.1666 25.2946 43.0181C26.1466 43.4273 26.8772 44.0518 27.4142 44.8297C27.1335 45.8358 27.1758 46.9046 27.535 47.8853C26.7076 48.0061 25.0047 47.5955 25.1194 48.4167C25.1933 48.6286 25.3276 48.8141 25.5057 48.9504C25.6839 49.0867 25.8981 49.1678 26.1219 49.1837C26.9987 49.3006 27.8823 49.3591 28.7669 49.3588C28.8393 50.2199 28.8194 51.0859 28.7065 51.9434C27.7878 52.037 26.8611 52.0188 25.9468 51.889C25.0047 51.7683 25.2946 53.3021 26.8828 53.4772C27.3333 53.5074 27.785 53.5074 28.2354 53.4772C27.547 55.1922 25.8984 55.6633 24.0144 55.313H24.0023ZM34.6486 92.85C33.8877 89.7279 30.2403 74.5525 25.6509 56.8408C26.3778 56.7865 27.0824 56.5654 27.7101 56.1947C32.1244 72.6684 36.2368 88.496 37.2996 92.6145C36.4257 92.7473 35.5444 92.8259 34.6607 92.85H34.6486ZM40.4579 94.2027C40.3245 93.8682 40.1181 93.5678 39.8538 93.3233C39.5895 93.0789 39.2739 92.8965 38.9301 92.7896C38.284 90.3741 35.7537 80.4343 32.5169 68.3145C36.2247 70.9595 39.5763 72.2578 43.5196 70.73C42.3118 72.439 41.3396 74.4982 43.4592 76.1649C38.8697 81.9862 40.2828 85.3378 43.1633 91.9321C42.3722 92.6145 41.1343 93.3754 40.4579 94.2027ZM57.9341 97.5542C54.341 97.6146 46.696 97.6146 43.2841 97.5542C42.0763 97.5542 41.1041 96.9503 41.2852 95.6701C41.5207 94.728 43.3444 93.7316 44.1053 93.0251C50.3434 94.0215 60.108 95.6701 60.875 96.437C60.5489 97.8501 59.317 97.4334 57.9039 97.5542H57.9341ZM61.1105 100.26C60.7485 99.802 60.355 99.3701 59.9329 98.9673C65.5792 97.9044 59.4015 90.67 61.1407 88.3149C62.3484 92.4333 63.3146 94.6133 64.3171 97.1979C63.2542 98.0856 61.6661 98.9733 61.0803 100.26H61.1105ZM83.1097 102.023C80.7606 103.835 70.6397 102.729 64.3473 102.85C63.1395 102.85 62.1069 102.204 62.3424 100.966C62.5779 100.024 64.5224 98.9673 65.2289 98.2003C67.9464 98.6653 84.1242 100.99 83.0795 102.023H83.1097ZM65.6999 96.7873C64.4922 93.4961 63.3992 90.3439 61.6359 84.6675C61.1346 83.043 59.8242 83.9428 60.6395 86.6723C57.8737 88.5504 60.0356 91.7268 60.6395 94.7884C59.1117 94.0215 50.5789 92.6688 44.5763 91.6724C42.2212 85.7303 39.9869 82.729 44.5763 77.0224C50.1079 80.6094 57.759 81.6662 62.0888 81.5515C66.2676 89.0214 73.6228 88.2605 79.1543 81.2012C79.8609 87.8438 81.9201 94.1423 83.3815 100.32C80.0239 98.8706 71.8957 97.9588 65.6698 96.7873H65.6999Z" fill="black"/>
<path d="M114.264 73.5498C112.772 71.6959 110.677 70.2527 109.56 69.9266C107.639 69.365 106.039 71.9737 99.8493 79.5161C98.6415 78.2782 95.6704 75.5728 94.203 75.5728C92.3189 75.5728 82.7897 84.6914 86.262 85.1624C87.1437 85.2832 89.7887 82.6925 90.9058 82.2215C90.3744 85.2409 93.5146 84.4257 95.3806 82.457C96.3226 81.4546 95.9844 80.3253 95.4349 80.8084C93.9977 82.0162 92.4155 83.0488 92.023 82.9884C92.6269 79.4014 89.4928 81.4546 87.192 83.3387C88.7259 81.1647 93.1945 76.7504 94.2574 76.696C95.0182 76.696 97.313 78.5077 99.1367 80.3193C98.4301 81.6176 98.7683 82.6623 99.6077 81.6176C100.447 80.5729 100.815 80.1442 102.138 78.4412C103.726 77.4388 105.2 76.7323 105.61 76.9074C106.021 77.0825 106.317 79.6128 107.494 79.6731C108.255 79.7335 109.083 78.4654 110.079 76.7323C110.2 76.5571 110.375 76.2612 110.683 76.6175C111.287 77.318 111.975 77.8253 112.446 77.5535C113.92 76.6719 113.394 75.3856 112.978 75.6755C112.786 75.815 112.608 75.9727 112.446 76.1465C111.939 76.6538 111.311 75.0293 110.272 75.0293C108.865 75.1139 107.857 79.2565 107.386 77.9702C106.552 75.5849 106.087 75.0837 103.762 76.3216C105.822 74.0873 107.881 70.8867 109.119 70.8867C110.061 70.8867 112.356 72.8856 113.95 74.8844C114.439 75.8446 115.29 74.818 114.264 73.5498Z" fill="black"/>
<path d="M54.0754 48.1933C54.5561 48.542 55.1445 48.7096 55.7368 48.6665C56.3291 48.6234 56.887 48.3724 57.3122 47.9578C58.1395 49.1958 62.5478 48.9603 62.5478 47.1909C62.5478 46.7803 62.1975 46.5448 61.6661 46.8407C61.2096 47.1108 60.6992 47.2773 60.1712 47.3284C59.6432 47.3795 59.1104 47.314 58.6105 47.1366C57.904 46.8407 58.1938 45.7235 57.3122 45.6631C56.4305 45.6027 56.5513 46.9554 55.8991 47.1366C55.7116 47.1948 55.5131 47.2088 55.3192 47.1774C55.1254 47.1459 54.9415 47.07 54.7819 46.9554C53.9003 46.2489 52.9582 47.1909 54.0754 48.1933Z" fill="black"/>
<path d="M59.0818 50.4884C58.2056 50.578 57.3266 50.3486 56.6059 49.8423C55.8994 49.1961 55.2713 50.2952 56.2557 51.1949C57.5117 52.3483 59.5528 52.0162 59.8427 51.1346C60.0178 50.7239 59.4924 50.4884 59.0818 50.4884Z" fill="black"/>
<path d="M61.6658 43.6641C65.2891 43.3078 66.7263 45.3671 68.55 43.6641C72.7772 39.6665 66.8833 33.9417 61.1948 36.6592C58.574 37.9816 58.1392 44.0204 61.6658 43.6641ZM66.3157 37.7824C68.6708 38.3077 68.9607 41.4841 67.5234 42.6134C66.8773 43.1448 66.1708 42.3235 65.1744 42.2631C64.9992 40.6749 64.7637 38.966 64.4678 37.4985C65.0946 37.5022 65.7172 37.5982 66.3157 37.7824Z" fill="black"/>
<path d="M55.7845 45.2281C56.6058 44.9322 57.0768 44.5819 58.2544 45.053C59.136 45.3428 59.4621 44.1109 58.4899 43.6399C57.9629 43.3988 57.3822 43.2993 56.805 43.3512C56.2279 43.403 55.6742 43.6046 55.1987 43.9358C54.4318 44.6242 54.7821 45.6025 55.7845 45.2281Z" fill="black"/>
</svg>
